<svg width="32" height="32" viewBox="0 0 32 32" fill="none" xmlns="http://www.w3.org/2000/svg">
<g clip-path="url(#clip0_2249_2748)">
<path d="M25.9594 0.517969C25.9594 0.777735 25.7441 0.992969 25.4844 0.992969H6.51406C6.2543 0.992969 6.03906 0.777735 6.03906 0.517969C6.03906 0.258203 6.2543 0.0429688 6.51406 0.0429688H25.4918C25.7516 0.0429688 25.9594 0.258203 25.9594 0.517969Z" fill="#929292"/>
<path d="M30.1098 4.45195C28.9816 10.1074 25.6641 14.7164 21.2109 16.802C21.2332 16.7723 21.2555 16.7352 21.2777 16.7055L21.2852 16.698C21.6043 16.223 21.9012 15.7332 22.1832 15.2285C25.5527 13.1059 28.0687 9.35039 29.1004 4.82305H25.1223C25.1371 4.68203 25.1445 4.54102 25.1594 4.4C25.1742 4.23672 25.1816 4.07344 25.1891 3.91016H29.657C29.7906 3.91016 29.9242 3.96953 30.0133 4.08086C30.1023 4.18477 30.132 4.31836 30.1098 4.45195Z" fill="#929292"/>
<path d="M10.5226 16.6758C6.21045 14.5309 2.98936 9.98125 1.89092 4.45938C1.86124 4.32578 1.89835 4.18477 1.98741 4.08086C2.07647 3.97695 2.20264 3.91016 2.34366 3.91016H6.81905C6.83389 4.22187 6.85616 4.52617 6.88585 4.82305H2.90772C3.90967 9.20937 6.31436 12.8906 9.53545 15.043C9.84717 15.6367 10.1737 16.1785 10.5226 16.6758Z" fill="#929292"/>
<path d="M17.2688 19.7402C17.2688 20.0445 17.0164 20.2969 16.7121 20.2969H15.2871C14.9828 20.2969 14.7305 20.0445 14.7305 19.7402C14.7305 19.4359 14.9828 19.1836 15.2871 19.1836H16.7121C16.9422 19.1836 17.1426 19.3246 17.2242 19.525C17.2539 19.5918 17.2688 19.666 17.2688 19.7402Z" fill="#929292"/>
<path d="M16.7719 21.2109V24.8922H15.2207V21.2109H15.2801H16.7051H16.7719Z" fill="#929292"/>
<path d="M21.5598 28.4609H10.4418C10.1152 28.4609 9.85547 28.7207 9.85547 29.0473V31.9566H22.1461V29.0473C22.1461 28.7207 21.8863 28.4609 21.5598 28.4609ZM19.6969 30.6652H12.2973C12.0449 30.6652 11.8371 30.4574 11.8371 30.2051C11.8371 29.9527 12.0449 29.7449 12.2973 29.7449H19.6969C19.9492 29.7449 20.157 29.9527 20.157 30.2051C20.157 30.4574 19.9566 30.6652 19.6969 30.6652Z" fill="#929292"/>
<path d="M19.243 26.8368V27.5493H12.7637V26.8368C12.7637 26.2727 13.2238 25.8126 13.7879 25.8126H18.2188C18.7828 25.8052 19.243 26.2727 19.243 26.8368Z" fill="#929292"/>
<path d="M7.66602 1.90625C7.67344 2.72266 7.70313 3.52422 7.7625 4.31094V4.32578V4.34063C8 7.67305 8.6457 10.6863 9.66992 13.1652C10.8055 15.9113 12.3863 17.9004 14.1527 18.8059C14.4199 18.4793 14.8281 18.2715 15.2883 18.2715H16.7133C17.166 18.2715 17.5742 18.4793 17.8414 18.8059C18.7914 18.3012 19.682 17.4254 20.5133 16.1934C20.5207 16.1859 20.5207 16.1859 20.5281 16.1785L20.5355 16.1711C22.6805 12.9723 23.8902 9.09805 24.2391 4.34063C24.2391 4.3332 24.2391 4.3332 24.2391 4.32578C24.2984 3.55391 24.3281 2.74492 24.3355 1.91367H7.66602V1.90625ZM17.2625 10.0926L18.0418 12.4973L16.0008 11.0129L13.9598 12.4973L14.7391 10.0926L12.698 8.6082H15.2289L16.0082 6.20352L16.7875 8.6082H19.3184L17.2625 10.0926Z" fill="#929292"/>
</g>
<defs>
<clipPath id="clip0_2249_2748">
<rect width="32" height="32" fill="white"/>
</clipPath>
</defs>
</svg>
