<svg width="40" height="41" viewBox="0 0 40 41" fill="none" xmlns="http://www.w3.org/2000/svg">
<path d="M32 0.5C36.4183 0.5 40 4.08172 40 8.5V32.5C40 36.9183 36.4183 40.5 32 40.5H8C3.58172 40.5 0 36.9183 0 32.5V8.5C0 4.08172 3.58172 0.5 8 0.5H32Z" fill="#DBEAFE"/>
<path d="M32 0.5C36.4183 0.5 40 4.08172 40 8.5V32.5C40 36.9183 36.4183 40.5 32 40.5H8C3.58172 40.5 0 36.9183 0 32.5V8.5C0 4.08172 3.58172 0.5 8 0.5H32Z" stroke="#E5E7EB"/>
<path d="M30 32.5H10V8.5H30V32.5Z" stroke="#E5E7EB"/>
<g clip-path="url(#clip0_2600_3977)">
<path d="M20 12.5C20.5531 12.5 21 12.9469 21 13.5V15.5H24.75C25.9937 15.5 27 16.5062 27 17.75V26.25C27 27.4937 25.9937 28.5 24.75 28.5H15.25C14.0062 28.5 13 27.4937 13 26.25V17.75C13 16.5062 14.0062 15.5 15.25 15.5H19V13.5C19 12.9469 19.4469 12.5 20 12.5ZM16.5 24.5C16.225 24.5 16 24.725 16 25C16 25.275 16.225 25.5 16.5 25.5H17.5C17.775 25.5 18 25.275 18 25C18 24.725 17.775 24.5 17.5 24.5H16.5ZM19.5 24.5C19.225 24.5 19 24.725 19 25C19 25.275 19.225 25.5 19.5 25.5H20.5C20.775 25.5 21 25.275 21 25C21 24.725 20.775 24.5 20.5 24.5H19.5ZM22.5 24.5C22.225 24.5 22 24.725 22 25C22 25.275 22.225 25.5 22.5 25.5H23.5C23.775 25.5 24 25.275 24 25C24 24.725 23.775 24.5 23.5 24.5H22.5ZM18.25 20.5C18.25 20.1685 18.1183 19.8505 17.8839 19.6161C17.6495 19.3817 17.3315 19.25 17 19.25C16.6685 19.25 16.3505 19.3817 16.1161 19.6161C15.8817 19.8505 15.75 20.1685 15.75 20.5C15.75 20.8315 15.8817 21.1495 16.1161 21.3839C16.3505 21.6183 16.6685 21.75 17 21.75C17.3315 21.75 17.6495 21.6183 17.8839 21.3839C18.1183 21.1495 18.25 20.8315 18.25 20.5ZM23 21.75C23.3315 21.75 23.6495 21.6183 23.8839 21.3839C24.1183 21.1495 24.25 20.8315 24.25 20.5C24.25 20.1685 24.1183 19.8505 23.8839 19.6161C23.6495 19.3817 23.3315 19.25 23 19.25C22.6685 19.25 22.3505 19.3817 22.1161 19.6161C21.8817 19.8505 21.75 20.1685 21.75 20.5C21.75 20.8315 21.8817 21.1495 22.1161 21.3839C22.3505 21.6183 22.6685 21.75 23 21.75ZM11.5 19.5H12V25.5H11.5C10.6719 25.5 10 24.8281 10 24V21C10 20.1719 10.6719 19.5 11.5 19.5ZM28.5 19.5C29.3281 19.5 30 20.1719 30 21V24C30 24.8281 29.3281 25.5 28.5 25.5H28V19.5H28.5Z" fill="#2563EB"/>
</g>
<defs>
<clipPath id="clip0_2600_3977">
<path d="M10 12.5H30V28.5H10V12.5Z" fill="white"/>
</clipPath>
</defs>
</svg>
