<svg width="32" height="32" viewBox="0 0 32 32" fill="none" xmlns="http://www.w3.org/2000/svg">
<path d="M25.1034 3.88051H22.0311V4.91832C22.0311 6.42126 20.8245 7.644 19.3414 7.644H11.6586C10.1755 7.644 8.96888 6.42126 8.96888 4.91832V3.88051H5.89659C5.40143 3.88051 5 4.2873 5 4.78907V30.0914C5 30.5932 5.40143 31 5.89659 31H25.1034C25.5986 31 26 30.5932 26 30.0914V4.78907C26 4.28724 25.5986 3.88051 25.1034 3.88051ZM13.2529 25.5563C13.6031 25.9111 13.6031 26.4864 13.2529 26.8412C12.9029 27.196 12.3351 27.196 11.985 26.8412L11.1785 26.0239L10.372 26.8412C10.0219 27.196 9.45424 27.196 9.10403 26.8412C8.75388 26.4865 8.75388 25.9112 9.10403 25.5563L9.9106 24.739L9.10403 23.9216C8.75388 23.5669 8.75388 22.9916 9.10403 22.6368C9.45418 22.2819 10.0218 22.2819 10.372 22.6368L11.1785 23.4541L11.985 22.6368C12.3351 22.282 12.9028 22.282 13.2529 22.6368C13.6031 22.9915 13.6031 23.5668 13.2529 23.9216L12.4464 24.739L13.2529 25.5563ZM14.2133 17.1095L11.3323 20.029C10.982 20.384 10.4144 20.3837 10.0643 20.029L9.10403 19.0559C8.75388 18.7011 8.75388 18.1258 9.10403 17.771C9.45412 17.4162 10.0218 17.4162 10.372 17.771L10.6983 18.1017L12.9454 15.8246C13.2955 15.4699 13.8632 15.4699 14.2134 15.8246C14.5635 16.1794 14.5635 16.7547 14.2133 17.1095ZM14.2133 10.7839L11.3323 13.7034C10.9821 14.0583 10.4144 14.0581 10.0643 13.7034L9.10403 12.7302C8.75388 12.3755 8.75388 11.8002 9.10403 11.4454C9.45412 11.0906 10.0218 11.0906 10.372 11.4454L10.6983 11.7761L12.9454 9.49904C13.82 8.68055 15.0207 9.89857 14.2133 10.7839ZM21.262 25.6476H17.4206C16.231 25.5996 16.2319 23.878 17.4206 23.8305H21.262C22.4516 23.8785 22.4507 25.6001 21.262 25.6476ZM21.262 19.322H17.4206C16.231 19.2739 16.2319 17.5524 17.4206 17.5049H21.262C22.4516 17.5529 22.4507 19.2744 21.262 19.322ZM21.262 12.9964H17.4206C16.231 12.9484 16.2319 11.2268 17.4206 11.1793H21.262C22.4516 11.2272 22.4507 12.9488 21.262 12.9964Z" fill="#929292"/>
<path d="M11.6586 5.82682H19.3414C19.8365 5.82682 20.2379 5.42003 20.2379 4.91826V2.84275C20.2379 2.34098 19.8365 1.93419 19.3414 1.93419H18.171C17.3058 -0.644669 13.6932 -0.64479 12.8289 1.93419H11.6586C11.1635 1.93419 10.7621 2.34098 10.7621 2.84275V4.91832C10.7621 5.42009 11.1635 5.82682 11.6586 5.82682Z" fill="#929292"/>
</svg>
