<svg width="16" height="17" viewBox="0 0 16 17" fill="none" xmlns="http://www.w3.org/2000/svg">
<g clip-path="url(#clip0_2600_3982)">
<g clip-path="url(#clip1_2600_3982)">
<path d="M6.59307 0.728425C6.40557 0.53155 6.12432 0.45655 5.86182 0.5253C5.59932 0.59405 5.3962 0.803425 5.32745 1.06593L4.8337 3.01905L2.8962 2.47218C2.6337 2.39718 2.35245 2.47218 2.16182 2.6628C1.9712 2.85343 1.8962 3.13468 1.9712 3.39718L2.51807 5.33468L0.564949 5.83155C0.302449 5.89718 0.0961986 6.10343 0.0243236 6.36593C-0.0475513 6.62843 0.0305737 6.90655 0.227449 7.09405L1.6712 8.5003L0.227449 9.90655C0.0305737 10.0941 -0.0444264 10.3753 0.0243236 10.6378C0.0930737 10.9003 0.302449 11.1034 0.564949 11.1722L2.51807 11.6659L1.9712 13.6034C1.8962 13.8659 1.9712 14.1472 2.16182 14.3378C2.35245 14.5284 2.6337 14.6034 2.8962 14.5284L4.8337 13.9816L5.32745 15.9347C5.39307 16.1972 5.59932 16.4034 5.86182 16.4753C6.12432 16.5472 6.40245 16.4691 6.59307 16.2753L7.99932 14.8316L9.40557 16.2753C9.5962 16.4691 9.87432 16.5472 10.1368 16.4753C10.3993 16.4034 10.6024 16.1972 10.6712 15.9347L11.1649 13.9816L13.1024 14.5284C13.3649 14.6034 13.6462 14.5284 13.8368 14.3378C14.0274 14.1472 14.1024 13.8659 14.0274 13.6034L13.4806 11.6659L15.4337 11.1722C15.6962 11.1066 15.9024 10.9003 15.9743 10.6378C16.0462 10.3753 15.9681 10.0972 15.7743 9.90655L14.3306 8.5003L15.7743 7.09405C15.9681 6.90343 16.0462 6.6253 15.9743 6.3628C15.9024 6.1003 15.6962 5.89718 15.4337 5.82843L13.4806 5.33468L14.0274 3.39718C14.1024 3.13468 14.0274 2.85343 13.8368 2.6628C13.6462 2.47218 13.3649 2.39718 13.1024 2.47218L11.1649 3.01905L10.6681 1.06593C10.6024 0.803425 10.3962 0.597175 10.1337 0.5253C9.8712 0.453425 9.59307 0.53155 9.40557 0.728425L7.99932 2.17218L6.59307 0.728425Z" fill="#2563EB"/>
</g>
</g>
<defs>
<clipPath id="clip0_2600_3982">
<rect width="16" height="16" fill="white" transform="translate(0 0.5)"/>
</clipPath>
<clipPath id="clip1_2600_3982">
<path d="M0 0.5H16V16.5H0V0.5Z" fill="white"/>
</clipPath>
</defs>
</svg>
