<svg width="32" height="32" viewBox="0 0 32 32" fill="none" xmlns="http://www.w3.org/2000/svg">
<g clip-path="url(#clip0_1059_451)">
<path d="M27.3604 20.28L24.9604 17.8667V11.92C24.9924 9.71177 24.2242 7.56655 22.7979 5.88045C21.3716 4.19435 19.3834 3.08125 17.2004 2.74667C15.9335 2.57982 14.6456 2.68509 13.4226 3.05544C12.1996 3.42578 11.0696 4.0527 10.1081 4.89435C9.14653 5.736 8.37555 6.77304 7.84657 7.93626C7.31758 9.09948 7.04276 10.3621 7.04042 11.64V17.8667L4.64042 20.28C4.33896 20.5865 4.13453 20.975 4.05269 21.3971C3.97085 21.8191 4.01522 22.2559 4.18026 22.6529C4.3453 23.0498 4.62369 23.3893 4.98062 23.6289C5.33756 23.8685 5.7572 23.9976 6.18709 24H10.6671V24.4533C10.7294 25.8069 11.3257 27.0806 12.3254 27.9954C13.3251 28.9101 14.6466 29.3912 16.0004 29.3333C17.3542 29.3912 18.6758 28.9101 19.6755 27.9954C20.6752 27.0806 21.2715 25.8069 21.3338 24.4533V24H25.8138C26.2436 23.9976 26.6633 23.8685 27.0202 23.6289C27.3772 23.3893 27.6555 23.0498 27.8206 22.6529C27.9856 22.2559 28.03 21.8191 27.9482 21.3971C27.8663 20.975 27.6619 20.5865 27.3604 20.28ZM18.6671 24.4533C18.5931 25.0947 18.2746 25.6827 17.7779 26.0951C17.2811 26.5074 16.6444 26.7121 16.0004 26.6667C15.3564 26.7121 14.7198 26.5074 14.223 26.0951C13.7262 25.6827 13.4077 25.0947 13.3338 24.4533V24H18.6671V24.4533Z" fill="#929292"/>
</g>
<defs>
<clipPath id="clip0_1059_451">
<rect width="32" height="32" fill="white"/>
</clipPath>
</defs>
</svg>
