<svg width="25" height="25" viewBox="0 0 25 25" fill="none" xmlns="http://www.w3.org/2000/svg">
<path d="M21 0C23.2091 0 25 1.79086 25 4V21C25 23.2091 23.2091 25 21 25H4C1.79086 25 0 23.2091 0 21V4C2.57706e-07 1.79086 1.79086 0 4 0H21ZM7.89355 6.94629C7.39182 6.94679 6.91059 7.14638 6.55566 7.50098C6.2007 7.85584 6.00062 8.33793 6 8.83984V15.0781C6.0007 15.58 6.20079 16.0612 6.55566 16.416C6.91059 16.7708 7.39169 16.9701 7.89355 16.9707H10.7617L12.6416 19.791C12.6844 19.8552 12.7426 19.9079 12.8105 19.9443C12.8786 19.9807 12.9551 20 13.0322 20C13.1093 19.9999 13.185 19.9807 13.2529 19.9443C13.321 19.9079 13.3791 19.8552 13.4219 19.791L15.3018 16.9707H18.1699C18.6719 16.9701 19.1538 16.771 19.5088 16.416C19.8636 16.0612 20.0628 15.5799 20.0635 15.0781V10.5957C20.0635 10.4714 20.0146 10.3516 19.9268 10.2637C19.8388 10.1758 19.7191 10.127 19.5947 10.127C19.4706 10.127 19.3515 10.176 19.2637 10.2637C19.1758 10.3516 19.126 10.4714 19.126 10.5957V15.0781C19.1255 15.3313 19.0247 15.5739 18.8457 15.7529C18.6665 15.9321 18.4233 16.0328 18.1699 16.0332H15.0518C14.9746 16.0332 14.8981 16.0525 14.8301 16.0889C14.762 16.1253 14.704 16.178 14.6611 16.2422L13.0322 18.6875L11.4023 16.2432C11.3596 16.1792 11.3013 16.1271 11.2334 16.0908C11.1655 16.0545 11.0897 16.0352 11.0127 16.0352H7.89355C7.63993 16.0348 7.39699 15.9334 7.21777 15.7539C7.03863 15.5745 6.93758 15.3316 6.9375 15.0781V8.83984C6.93787 8.58654 7.03863 8.34315 7.21777 8.16406C7.39696 7.98497 7.6402 7.88404 7.89355 7.88379H14.4492C14.5735 7.88379 14.6933 7.83498 14.7812 7.74707C14.8692 7.65916 14.918 7.53936 14.918 7.41504C14.9179 7.29092 14.869 7.17181 14.7812 7.08398C14.6933 6.99607 14.5735 6.94629 14.4492 6.94629H7.89355ZM8.8125 13.4375C8.68834 13.4376 8.56929 13.4865 8.48145 13.5742C8.39353 13.6621 8.34375 13.7819 8.34375 13.9062C8.34385 14.0304 8.39362 14.1495 8.48145 14.2373C8.5693 14.3251 8.68829 14.3749 8.8125 14.375H17.251C17.3752 14.375 17.4941 14.3251 17.582 14.2373C17.6699 14.1495 17.7196 14.0304 17.7197 13.9062C17.7197 13.7819 17.6699 13.6621 17.582 13.5742C17.4942 13.4865 17.3752 13.4375 17.251 13.4375H8.8125ZM19.0195 5C18.6632 5 18.3207 5.141 18.0684 5.39258L13.5312 9.93066C13.4434 10.0185 13.3936 10.1375 13.3936 10.2617V12.1367C13.3936 12.261 13.4434 12.3799 13.5312 12.4678C13.6191 12.5556 13.7381 12.6054 13.8623 12.6055H15.7373C15.8616 12.6054 15.9814 12.5557 16.0693 12.4678L20.6074 7.93066C20.8587 7.67834 21 7.3366 21 6.98047C20.9999 6.62438 20.8588 6.28255 20.6074 6.03027L19.9697 5.39258C19.7175 5.14117 19.3757 5.00009 19.0195 5ZM8.8125 11.5625C8.68832 11.5626 8.56929 11.6115 8.48145 11.6992C8.39353 11.7871 8.34375 11.9069 8.34375 12.0312C8.34387 12.1554 8.39364 12.2745 8.48145 12.3623C8.56929 12.4501 8.68831 12.4999 8.8125 12.5H11.625C11.7493 12.5 11.8691 12.4502 11.957 12.3623C12.0448 12.2745 12.0946 12.1554 12.0947 12.0312C12.0947 11.9069 12.0449 11.7871 11.957 11.6992C11.8691 11.6113 11.7493 11.5625 11.625 11.5625H8.8125ZM18.6973 8.51465L15.5449 11.668H14.332V10.4561L17.4854 7.30273L18.6973 8.51465ZM8.8125 9.68652C8.68831 9.68658 8.5693 9.73643 8.48145 9.82422C8.39363 9.91203 8.34387 10.0311 8.34375 10.1553C8.34375 10.2796 8.39353 10.3994 8.48145 10.4873C8.56929 10.5751 8.68833 10.624 8.8125 10.624H11.625C11.7493 10.624 11.8691 10.5752 11.957 10.4873C12.0449 10.3994 12.0947 10.2796 12.0947 10.1553C12.0946 10.0311 12.0448 9.91202 11.957 9.82422C11.8691 9.73631 11.7493 9.68652 11.625 9.68652H8.8125ZM19.0205 5.93652C19.1281 5.93662 19.2313 5.97978 19.3076 6.05566L19.9443 6.69238C20.0205 6.76882 20.0635 6.87258 20.0635 6.98047C20.0634 7.08829 20.0204 7.19217 19.9443 7.26855L19.3604 7.85254L18.1484 6.63965L18.7324 6.05566C18.8088 5.97962 18.9127 5.93652 19.0205 5.93652Z" fill="#929292"/>
</svg>
