<svg width="24" height="24" viewBox="0 0 24 24" fill="none" xmlns="http://www.w3.org/2000/svg">
<g clip-path="url(#clip0_1635_1710)">
<path d="M15.001 5.25H6.00098C5.60329 5.25045 5.22202 5.40864 4.94082 5.68984C4.65961 5.97105 4.50143 6.35231 4.50098 6.75V21C4.50098 21.1378 4.53895 21.2729 4.61072 21.3906C4.68249 21.5082 4.78528 21.6038 4.90782 21.6669C5.03035 21.7299 5.16789 21.758 5.30533 21.748C5.44278 21.738 5.57481 21.6904 5.68695 21.6103L10.5003 18.1717L15.3151 21.6103C15.4272 21.6904 15.5593 21.7381 15.6967 21.748C15.8341 21.758 15.9717 21.7299 16.0942 21.6669C16.2167 21.6038 16.3195 21.5082 16.3913 21.3906C16.463 21.2729 16.501 21.1378 16.501 21V6.75C16.5005 6.35231 16.3423 5.97105 16.0611 5.68984C15.7799 5.40864 15.3987 5.25045 15.001 5.25Z" fill="#A098AE"/>
<path d="M18.001 2.25H8.25098C8.05206 2.25 7.8613 2.32902 7.72065 2.46967C7.57999 2.61032 7.50098 2.80109 7.50098 3C7.50098 3.19891 7.57999 3.38968 7.72065 3.53033C7.8613 3.67098 8.05206 3.75 8.25098 3.75H18.001V18C18.001 18.1989 18.08 18.3897 18.2206 18.5303C18.3613 18.671 18.5521 18.75 18.751 18.75C18.9499 18.75 19.1407 18.671 19.2813 18.5303C19.422 18.3897 19.501 18.1989 19.501 18V3.75C19.5005 3.35231 19.3423 2.97105 19.0611 2.68984C18.7799 2.40864 18.3987 2.25045 18.001 2.25Z" fill="#A098AE"/>
</g>
<defs>
<clipPath id="clip0_1635_1710">
<rect width="24" height="24" fill="white"/>
</clipPath>
</defs>
</svg>
