<svg width="42" height="40" viewBox="0 0 42 40" fill="none" xmlns="http://www.w3.org/2000/svg">
<g clip-path="url(#clip0_2233_2162)">
<path d="M26.0648 8.75H10.5146C9.82744 8.75076 9.16868 9.01439 8.68281 9.48307C8.19694 9.95175 7.92364 10.5872 7.92285 11.25V35C7.92286 35.2297 7.98847 35.4549 8.11247 35.651C8.23647 35.847 8.41408 36.0064 8.62579 36.1115C8.83751 36.2166 9.07515 36.2634 9.31262 36.2467C9.5501 36.2301 9.77823 36.1507 9.97198 36.0172L18.2886 30.2861L26.6075 36.0172C26.8013 36.1507 27.0294 36.2301 27.2669 36.2467C27.5043 36.2634 27.742 36.2166 27.9537 36.1115C28.1654 36.0064 28.343 35.847 28.467 35.651C28.591 35.4549 28.6565 35.2297 28.6565 35V11.25C28.6557 10.5872 28.3824 9.95175 27.8966 9.48307C27.4107 9.01439 26.7519 8.75076 26.0648 8.75Z" fill="#41246D"/>
<path d="M31.2484 3.75H14.4023C14.0586 3.75 13.729 3.8817 13.486 4.11612C13.243 4.35054 13.1064 4.66848 13.1064 5C13.1064 5.33152 13.243 5.64946 13.486 5.88388C13.729 6.1183 14.0586 6.25 14.4023 6.25H31.2484V30C31.2484 30.3315 31.3849 30.6495 31.628 30.8839C31.871 31.1183 32.2006 31.25 32.5443 31.25C32.8879 31.25 33.2175 31.1183 33.4606 30.8839C33.7036 30.6495 33.8401 30.3315 33.8401 30V6.25C33.8393 5.58719 33.566 4.95175 33.0802 4.48307C32.5943 4.01439 31.9355 3.75076 31.2484 3.75Z" fill="#41246D"/>
</g>
<defs>
<clipPath id="clip0_2233_2162">
<rect width="41.4673" height="40" fill="white" transform="translate(0.146484)"/>
</clipPath>
</defs>
</svg>
