<svg width="42" height="40" viewBox="0 0 42 40" fill="none" xmlns="http://www.w3.org/2000/svg">
<g clip-path="url(#clip0_2233_2143)">
<path d="M21.1863 11.6663C19.3731 11.6663 17.6059 12.2167 16.1349 13.2393C14.664 14.262 13.5639 15.7052 12.9906 17.3644C12.4172 19.0237 12.3996 20.8149 12.9402 22.4844C13.4808 24.1539 14.5523 25.6169 16.0028 26.6663V33.333C16.0028 34.2171 16.3669 35.0649 17.015 35.69C17.663 36.3152 18.542 36.6663 19.4585 36.6663H22.9141C23.8306 36.6663 24.7095 36.3152 25.3576 35.69C26.0056 35.0649 26.3697 34.2171 26.3697 33.333V26.6663C27.8202 25.6169 28.8917 24.1539 29.4323 22.4844C29.973 20.8149 29.9553 19.0237 29.382 17.3644C28.8086 15.7052 27.7085 14.262 26.2376 13.2393C24.7667 12.2167 22.9994 11.6663 21.1863 11.6663ZM21.1863 9.99967C21.6445 9.99967 22.084 9.82408 22.408 9.51152C22.732 9.19896 22.9141 8.77504 22.9141 8.33301V4.99967C22.9141 4.55765 22.732 4.13372 22.408 3.82116C22.084 3.5086 21.6445 3.33301 21.1863 3.33301C20.728 3.33301 20.2885 3.5086 19.9645 3.82116C19.6405 4.13372 19.4585 4.55765 19.4585 4.99967V8.33301C19.4585 8.77504 19.6405 9.19896 19.9645 9.51152C20.2885 9.82408 20.728 9.99967 21.1863 9.99967ZM36.7365 18.333H33.2809C32.8227 18.333 32.3832 18.5086 32.0592 18.8212C31.7351 19.1337 31.5531 19.5576 31.5531 19.9997C31.5531 20.4417 31.7351 20.8656 32.0592 21.1782C32.3832 21.4907 32.8227 21.6663 33.2809 21.6663H36.7365C37.1948 21.6663 37.6342 21.4907 37.9583 21.1782C38.2823 20.8656 38.4643 20.4417 38.4643 19.9997C38.4643 19.5576 38.2823 19.1337 37.9583 18.8212C37.6342 18.5086 37.1948 18.333 36.7365 18.333ZM9.09162 18.333H5.63601C5.17777 18.333 4.73829 18.5086 4.41427 18.8212C4.09024 19.1337 3.9082 19.5576 3.9082 19.9997C3.9082 20.4417 4.09024 20.8656 4.41427 21.1782C4.73829 21.4907 5.17777 21.6663 5.63601 21.6663H9.09162C9.54986 21.6663 9.98934 21.4907 10.3134 21.1782C10.6374 20.8656 10.8194 20.4417 10.8194 19.9997C10.8194 19.5576 10.6374 19.1337 10.3134 18.8212C9.98934 18.5086 9.54986 18.333 9.09162 18.333ZM13.6876 10.6997L11.1995 8.33301C10.8627 8.0258 10.4132 7.86023 9.94985 7.87274C9.48649 7.88524 9.04726 8.07478 8.72878 8.39967C8.4103 8.72457 8.23867 9.15819 8.25163 9.60515C8.26459 10.0521 8.46109 10.4758 8.79789 10.783L11.2859 13.0997C11.4529 13.2552 11.6506 13.3767 11.8673 13.4568C12.084 13.537 12.3153 13.5743 12.5472 13.5663C12.78 13.5655 13.0101 13.5193 13.2239 13.4305C13.4377 13.3417 13.6307 13.2122 13.7913 13.0497C14.0997 12.7244 14.2619 12.2945 14.2425 11.854C14.2231 11.4136 14.0235 10.9985 13.6876 10.6997ZM33.6092 8.41634C33.2855 8.10592 32.8475 7.93169 32.3911 7.93169C31.9346 7.93169 31.4967 8.10592 31.173 8.41634L28.6849 10.6997C28.3631 11.0119 28.1825 11.4344 28.1825 11.8747C28.1825 12.315 28.3631 12.7374 28.6849 13.0497C28.8455 13.2122 29.0385 13.3417 29.2523 13.4305C29.4661 13.5193 29.6962 13.5655 29.929 13.5663C30.3738 13.5646 30.8008 13.3975 31.1211 13.0997L33.6092 10.783C33.7711 10.6281 33.8997 10.4437 33.9874 10.2406C34.0751 10.0375 34.1203 9.81969 34.1203 9.59968C34.1203 9.37966 34.0751 9.16181 33.9874 8.95871C33.8997 8.75562 33.7711 8.57128 33.6092 8.41634Z" fill="#FF999A"/>
</g>
<defs>
<clipPath id="clip0_2233_2143">
<rect width="41.4673" height="40" fill="white" transform="translate(0.453125)"/>
</clipPath>
</defs>
</svg>
