<svg width="24" height="22" viewBox="0 0 24 22" fill="none" xmlns="http://www.w3.org/2000/svg">
<path d="M19.5 2.35248H18.3825V1.625C18.3825 1.00999 17.88 0.5 17.2575 0.5C16.635 0.5 16.1325 1.00999 16.1325 1.625V2.35248H13.125V1.625C13.125 1.00999 12.6225 0.5 12 0.5C11.3775 0.5 10.875 1.00999 10.875 1.625V2.35248H7.86749V1.625C7.86749 1.00999 7.36501 0.5 6.74249 0.5C6.11998 0.5 5.61749 1.00999 5.61749 1.625V2.35248H4.5C2.22748 2.35248 0.375 4.19749 0.375 6.47748V17.375C0.375 19.6475 2.22748 21.5 4.5 21.5H19.5C21.7725 21.5 23.625 19.6475 23.625 17.375V6.47748C23.625 4.19749 21.7725 2.35248 19.5 2.35248ZM21.375 7.715H2.625V6.47748C2.625 5.44248 3.465 4.60248 4.5 4.60248H5.61749V5.285C5.61749 5.90747 6.11998 6.41 6.74249 6.41C7.36501 6.41 7.86749 5.90747 7.86749 5.285V4.60248H10.875V5.285C10.875 5.90747 11.3775 6.41 12 6.41C12.6225 6.41 13.125 5.90747 13.125 5.285V4.60248H16.1325V5.285C16.1325 5.90747 16.635 6.41 17.2575 6.41C17.88 6.41 18.3825 5.90747 18.3825 5.285V4.60248H19.5C20.535 4.60248 21.375 5.44248 21.375 6.47748V7.715Z" fill="#A098AE"/>
</svg>
