<svg width="22" height="21" viewBox="0 0 22 21" fill="none" xmlns="http://www.w3.org/2000/svg">
<g clip-path="url(#clip0_2401_5485)">
<path d="M5.47924 1.51875C5.47924 1.35682 5.40708 1.20153 5.27864 1.08703C5.15019 0.972529 4.97599 0.908203 4.79434 0.908203C4.61269 0.908203 4.43848 0.972529 4.31004 1.08703C4.18159 1.20153 4.10943 1.35682 4.10943 1.51875V2.1293H2.73962C2.01303 2.1293 1.3162 2.3866 0.802417 2.84461C0.288638 3.30261 0 3.92379 0 4.5715L0 5.7926H21.917V4.5715C21.917 3.92379 21.6283 3.30261 21.1146 2.84461C20.6008 2.3866 19.9039 2.1293 19.1773 2.1293H17.8075V1.51875C17.8075 1.35682 17.7354 1.20153 17.6069 1.08703C17.4785 0.972529 17.3043 0.908203 17.1226 0.908203C16.941 0.908203 16.7668 0.972529 16.6383 1.08703C16.5099 1.20153 16.4377 1.35682 16.4377 1.51875V2.1293H5.47924V1.51875ZM21.917 18.0036V7.0137H0V18.0036C0 18.6513 0.288638 19.2725 0.802417 19.7305C1.3162 20.1885 2.01303 20.4458 2.73962 20.4458H19.1773C19.9039 20.4458 20.6008 20.1885 21.1146 19.7305C21.6283 19.2725 21.917 18.6513 21.917 18.0036ZM13.0132 9.4559H14.383C14.5647 9.4559 14.7389 9.52022 14.8673 9.63472C14.9958 9.74923 15.0679 9.90452 15.0679 10.0664V11.2875C15.0679 11.4495 14.9958 11.6048 14.8673 11.7193C14.7389 11.8338 14.5647 11.8981 14.383 11.8981H13.0132C12.8316 11.8981 12.6573 11.8338 12.5289 11.7193C12.4005 11.6048 12.3283 11.4495 12.3283 11.2875V10.0664C12.3283 9.90452 12.4005 9.74923 12.5289 9.63472C12.6573 9.52022 12.8316 9.4559 13.0132 9.4559ZM17.1226 9.4559H18.4924C18.6741 9.4559 18.8483 9.52022 18.9767 9.63472C19.1052 9.74923 19.1773 9.90452 19.1773 10.0664V11.2875C19.1773 11.4495 19.1052 11.6048 18.9767 11.7193C18.8483 11.8338 18.6741 11.8981 18.4924 11.8981H17.1226C16.941 11.8981 16.7668 11.8338 16.6383 11.7193C16.5099 11.6048 16.4377 11.4495 16.4377 11.2875V10.0664C16.4377 9.90452 16.5099 9.74923 16.6383 9.63472C16.7668 9.52022 16.941 9.4559 17.1226 9.4559ZM2.73962 13.7297C2.73962 13.5678 2.81178 13.4125 2.94023 13.298C3.06867 13.1835 3.24288 13.1192 3.42453 13.1192H4.79434C4.97599 13.1192 5.15019 13.1835 5.27864 13.298C5.40708 13.4125 5.47924 13.5678 5.47924 13.7297V14.9508C5.47924 15.1128 5.40708 15.2681 5.27864 15.3826C5.15019 15.4971 4.97599 15.5614 4.79434 15.5614H3.42453C3.24288 15.5614 3.06867 15.4971 2.94023 15.3826C2.81178 15.2681 2.73962 15.1128 2.73962 14.9508V13.7297ZM7.53396 13.1192H8.90377C9.08542 13.1192 9.25963 13.1835 9.38807 13.298C9.51651 13.4125 9.58867 13.5678 9.58867 13.7297V14.9508C9.58867 15.1128 9.51651 15.2681 9.38807 15.3826C9.25963 15.4971 9.08542 15.5614 8.90377 15.5614H7.53396C7.35231 15.5614 7.1781 15.4971 7.04966 15.3826C6.92121 15.2681 6.84905 15.1128 6.84905 14.9508V13.7297C6.84905 13.5678 6.92121 13.4125 7.04966 13.298C7.1781 13.1835 7.35231 13.1192 7.53396 13.1192Z" fill="#929292"/>
</g>
<defs>
<clipPath id="clip0_2401_5485">
<rect width="21.917" height="19.5376" fill="white" transform="translate(0 0.908203)"/>
</clipPath>
</defs>
</svg>
