<svg width="27" height="27" viewBox="0 0 27 27" fill="none" xmlns="http://www.w3.org/2000/svg">
<path d="M18.7561 4.42697V2.74998C18.7561 2.30923 18.3906 1.94373 17.9499 1.94373C17.5091 1.94373 17.1436 2.30923 17.1436 2.74998V4.36248H10.1561V2.74998C10.1561 2.30923 9.79061 1.94373 9.34985 1.94373C8.90911 1.94373 8.54361 2.30923 8.54361 2.74998V4.42697C5.6411 4.69572 4.23286 6.42647 4.01786 8.99572C3.99636 9.30747 4.25436 9.56547 4.55536 9.56547H22.7444C23.0561 9.56547 23.3141 9.29672 23.2819 8.99572C23.0669 6.42647 21.6586 4.69572 18.7561 4.42697Z" fill="#F9F9F9"/>
<path opacity="0.4" d="M22.2496 11.178C22.8409 11.178 23.3246 11.6617 23.3246 12.253V18.875C23.3246 22.1 21.7121 24.25 17.9496 24.25H9.34961C5.58711 24.25 3.97461 22.1 3.97461 18.875V12.253C3.97461 11.6617 4.45836 11.178 5.04961 11.178H22.2496Z" fill="#F9F9F9"/>
<path d="M9.8875 16.725C9.608 16.725 9.3285 16.6067 9.12425 16.4132C8.93075 16.209 8.8125 15.9295 8.8125 15.65C8.8125 15.3705 8.93075 15.091 9.12425 14.8867C9.42525 14.5857 9.89825 14.489 10.296 14.661C10.4358 14.7147 10.554 14.79 10.6507 14.8867C10.8442 15.091 10.9625 15.3705 10.9625 15.65C10.9625 15.9295 10.8442 16.209 10.6507 16.4132C10.4465 16.6067 10.167 16.725 9.8875 16.725Z" fill="#F9F9F9"/>
<path d="M13.6512 16.725C13.3717 16.725 13.0922 16.6067 12.8879 16.4132C12.6944 16.209 12.5762 15.9295 12.5762 15.65C12.5762 15.3705 12.6944 15.091 12.8879 14.8867C12.9847 14.79 13.1029 14.7147 13.2427 14.661C13.6404 14.489 14.1134 14.5857 14.4144 14.8867C14.6079 15.091 14.7262 15.3705 14.7262 15.65C14.7262 15.9295 14.6079 16.209 14.4144 16.4132C14.3607 16.4562 14.3069 16.4992 14.2532 16.5422C14.1887 16.5852 14.1242 16.6175 14.0597 16.639C13.9952 16.6713 13.9307 16.6927 13.8662 16.7035C13.7909 16.7142 13.7264 16.725 13.6512 16.725Z" fill="#F9F9F9"/>
<path d="M17.4119 16.725C17.1324 16.725 16.8529 16.6067 16.6487 16.4132C16.4552 16.209 16.3369 15.9295 16.3369 15.65C16.3369 15.3705 16.4552 15.091 16.6487 14.8867C16.7562 14.79 16.8637 14.7147 17.0034 14.6609C17.1969 14.5749 17.4119 14.5535 17.6269 14.5965C17.6914 14.6072 17.7559 14.6287 17.8204 14.6609C17.8849 14.6824 17.9494 14.7147 18.0139 14.7577C18.0677 14.8007 18.1214 14.8437 18.1752 14.8867C18.3687 15.091 18.4869 15.3705 18.4869 15.65C18.4869 15.9295 18.3687 16.209 18.1752 16.4132C18.1214 16.4562 18.0677 16.4992 18.0139 16.5422C17.9494 16.5852 17.8849 16.6175 17.8204 16.639C17.7559 16.6712 17.6914 16.6927 17.6269 16.7035C17.5517 16.7142 17.4764 16.725 17.4119 16.725Z" fill="#F9F9F9"/>
<path d="M9.8875 20.4875C9.74775 20.4875 9.608 20.4552 9.479 20.4015C9.33925 20.3477 9.23175 20.2725 9.12425 20.1757C8.93075 19.9715 8.8125 19.692 8.8125 19.4125C8.8125 19.133 8.93075 18.8535 9.12425 18.6492C9.23175 18.5525 9.33925 18.4772 9.479 18.4235C9.6725 18.3375 9.8875 18.316 10.1025 18.359C10.167 18.3697 10.2315 18.3912 10.296 18.4235C10.3605 18.445 10.425 18.4772 10.4895 18.5202C10.5433 18.5632 10.597 18.6062 10.6507 18.6492C10.8442 18.8535 10.9625 19.133 10.9625 19.4125C10.9625 19.692 10.8442 19.9715 10.6507 20.1757C10.597 20.2187 10.5433 20.2725 10.4895 20.3047C10.425 20.3477 10.3605 20.38 10.296 20.4015C10.2315 20.4337 10.167 20.4552 10.1025 20.466C10.0273 20.4767 9.96275 20.4875 9.8875 20.4875Z" fill="#F9F9F9"/>
<path d="M13.6512 20.4875C13.3717 20.4875 13.0922 20.3692 12.8879 20.1757C12.6944 19.9715 12.5762 19.692 12.5762 19.4125C12.5762 19.133 12.6944 18.8535 12.8879 18.6493C13.2857 18.2515 14.0167 18.2515 14.4144 18.6493C14.6079 18.8535 14.7262 19.133 14.7262 19.4125C14.7262 19.692 14.6079 19.9715 14.4144 20.1757C14.2102 20.3692 13.9307 20.4875 13.6512 20.4875Z" fill="#F9F9F9"/>
<path d="M17.4119 20.4875C17.1324 20.4875 16.8529 20.3692 16.6487 20.1757C16.4552 19.9715 16.3369 19.692 16.3369 19.4125C16.3369 19.133 16.4552 18.8535 16.6487 18.6493C17.0464 18.2515 17.7774 18.2515 18.1752 18.6493C18.3687 18.8535 18.4869 19.133 18.4869 19.4125C18.4869 19.692 18.3687 19.9715 18.1752 20.1757C17.9709 20.3692 17.6914 20.4875 17.4119 20.4875Z" fill="#F9F9F9"/>
</svg>
