<svg width="32" height="32" viewBox="0 0 32 32" fill="none" xmlns="http://www.w3.org/2000/svg">
<path d="M16.0003 2.66669C8.66699 2.66669 2.66699 8.66669 2.66699 16C2.66699 19.0667 3.73366 22 5.73366 24.4L3.06699 27.0667C2.53366 27.6 2.53366 28.4 3.06699 28.9334C3.33366 29.2 3.60033 29.3334 4.00033 29.3334H16.0003C23.3337 29.3334 29.3337 23.3334 29.3337 16C29.3337 8.66669 23.3337 2.66669 16.0003 2.66669ZM17.3337 20H9.33366C8.53366 20 8.00033 19.4667 8.00033 18.6667C8.00033 17.8667 8.53366 17.3334 9.33366 17.3334H17.3337C18.1337 17.3334 18.667 17.8667 18.667 18.6667C18.667 19.4667 18.1337 20 17.3337 20ZM22.667 14.6667H9.33366C8.53366 14.6667 8.00033 14.1334 8.00033 13.3334C8.00033 12.5334 8.53366 12 9.33366 12H22.667C23.467 12 24.0003 12.5334 24.0003 13.3334C24.0003 14.1334 23.467 14.6667 22.667 14.6667Z" fill="#929292"/>
</svg>
