<svg width="43" height="40" viewBox="0 0 43 40" fill="none" xmlns="http://www.w3.org/2000/svg">
<g clip-path="url(#clip0_2233_2123)">
<path d="M31.8614 5H11.1278C9.75303 5 8.4346 5.52678 7.46252 6.46447C6.49044 7.40215 5.94434 8.67392 5.94434 10V30C5.94434 31.3261 6.49044 32.5979 7.46252 33.5355C8.4346 34.4732 9.75303 35 11.1278 35H31.8614C33.2361 35 34.5546 34.4732 35.5267 33.5355C36.4987 32.5979 37.0448 31.3261 37.0448 30V10C37.0448 8.67392 36.4987 7.40215 35.5267 6.46447C34.5546 5.52678 33.2361 5 31.8614 5ZM28.9242 16.0167L21.0281 26.0167C20.8671 26.2184 20.6604 26.3818 20.4238 26.4945C20.1872 26.6072 19.927 26.6661 19.6631 26.6667C19.4007 26.668 19.1414 26.6117 18.9049 26.502C18.6683 26.3922 18.4609 26.232 18.2981 26.0333L14.0823 20.85C13.9428 20.6771 13.8399 20.4794 13.7796 20.2681C13.7192 20.0569 13.7026 19.8362 13.7307 19.6188C13.7588 19.4013 13.831 19.1913 13.9432 19.0008C14.0554 18.8103 14.2054 18.6429 14.3847 18.5083C14.7467 18.2365 15.2058 18.1145 15.6611 18.1692C15.8865 18.1963 16.1042 18.2659 16.3017 18.3742C16.4992 18.4824 16.6727 18.6271 16.8122 18.8L19.6286 22.2667L26.1597 13.9333C26.2981 13.7582 26.4709 13.6112 26.6682 13.5005C26.8656 13.3898 27.0836 13.3177 27.3098 13.2883C27.536 13.2589 27.766 13.2728 27.9867 13.3291C28.2073 13.3854 28.4144 13.4832 28.5959 13.6167C28.7774 13.7502 28.9299 13.9169 29.0446 14.1072C29.1593 14.2976 29.2341 14.5079 29.2646 14.7261C29.295 14.9443 29.2807 15.1662 29.2223 15.379C29.1639 15.5919 29.0626 15.7916 28.9242 15.9667V16.0167Z" fill="#D8225D"/>
</g>
<defs>
<clipPath id="clip0_2233_2123">
<rect width="41.4673" height="40" fill="white" transform="translate(0.760742)"/>
</clipPath>
</defs>
</svg>
