<svg width="24" height="24" viewBox="0 0 24 24" fill="none" xmlns="http://www.w3.org/2000/svg">
<path d="M12.0002 9.00006C11.8686 8.9993 11.7381 9.02452 11.6163 9.07429C11.4944 9.12405 11.3836 9.19738 11.2902 9.29006L7.29019 13.2901C7.10188 13.4784 6.99609 13.7338 6.99609 14.0001C6.99609 14.2664 7.10188 14.5218 7.29019 14.7101C7.47849 14.8984 7.73388 15.0042 8.00019 15.0042C8.26649 15.0042 8.52188 14.8984 8.71019 14.7101L12.0002 11.4101L15.2902 14.7001C15.4815 14.8639 15.7276 14.9495 15.9792 14.9398C16.2309 14.93 16.4697 14.8257 16.6477 14.6476C16.8258 14.4695 16.9302 14.2308 16.9399 13.9791C16.9496 13.7274 16.864 13.4814 16.7002 13.2901L12.7002 9.29006C12.5139 9.10531 12.2625 9.00116 12.0002 9.00006Z" fill="white"/>
</svg>
