<svg width="24" height="24" viewBox="0 0 24 24" fill="none" xmlns="http://www.w3.org/2000/svg">
<path d="M12.0002 8.99994C11.8686 8.99918 11.7381 9.0244 11.6163 9.07417C11.4944 9.12393 11.3836 9.19726 11.2902 9.28994L7.29019 13.2899C7.10188 13.4782 6.99609 13.7336 6.99609 13.9999C6.99609 14.2662 7.10188 14.5216 7.29019 14.7099C7.47849 14.8982 7.73388 15.004 8.00019 15.004C8.26649 15.004 8.52188 14.8982 8.71019 14.7099L12.0002 11.4099L15.2902 14.6999C15.4815 14.8638 15.7276 14.9494 15.9792 14.9396C16.2309 14.9299 16.4697 14.8256 16.6477 14.6475C16.8258 14.4694 16.9302 14.2307 16.9399 13.979C16.9496 13.7273 16.864 13.4812 16.7002 13.2899L12.7002 9.28994C12.5139 9.10519 12.2625 9.00104 12.0002 8.99994Z" fill="white"/>
</svg>
