<svg width="18" height="16" viewBox="0 0 18 16" fill="none" xmlns="http://www.w3.org/2000/svg">
<path d="M3.78809 13.171C3.78809 13.171 2.7334 13.171 2.7334 12.2309C2.7334 11.2907 3.78809 8.4701 9.06152 8.4701C14.335 8.4701 15.3896 11.2907 15.3896 12.2309C15.3896 13.171 14.335 13.171 14.335 13.171H3.78809ZM9.06152 7.52992C9.90068 7.52992 10.7055 7.23275 11.2989 6.70379C11.8922 6.17484 12.2256 5.45741 12.2256 4.70936C12.2256 3.9613 11.8922 3.24388 11.2989 2.71492C10.7055 2.18596 9.90068 1.88879 9.06152 1.88879C8.22236 1.88879 7.41757 2.18596 6.82419 2.71492C6.23082 3.24388 5.89746 3.9613 5.89746 4.70936C5.89746 5.45741 6.23082 6.17484 6.82419 6.70379C7.41757 7.23275 8.22236 7.52992 9.06152 7.52992Z" fill="#D3D2D2"/>
</svg>
