<svg width="18" height="16" viewBox="0 0 18 16" fill="none" xmlns="http://www.w3.org/2000/svg">
<g clip-path="url(#clip0_1059_877)">
<path d="M17.6182 7.59816C17.6182 9.59298 16.7292 11.5061 15.1469 12.9167C13.5645 14.3272 11.4184 15.1197 9.18066 15.1197C6.9429 15.1197 4.79679 14.3272 3.21445 12.9167C1.63211 11.5061 0.743164 9.59298 0.743164 7.59816C0.743164 5.60333 1.63211 3.69021 3.21445 2.27966C4.79679 0.869101 6.9429 0.0766602 9.18066 0.0766602C11.4184 0.0766602 13.5645 0.869101 15.1469 2.27966C16.7292 3.69021 17.6182 5.60333 17.6182 7.59816ZM9.18066 3.36732C9.18066 3.24264 9.1251 3.12307 9.02621 3.03491C8.92731 2.94675 8.79318 2.89722 8.65332 2.89722C8.51346 2.89722 8.37933 2.94675 8.28043 3.03491C8.18154 3.12307 8.12598 3.24264 8.12598 3.36732V8.53834C8.12601 8.6212 8.1506 8.70259 8.19728 8.77424C8.24395 8.8459 8.31105 8.90529 8.39176 8.94639L12.0832 10.8268C12.2043 10.8851 12.3462 10.8989 12.4787 10.8652C12.6111 10.8315 12.7234 10.753 12.7918 10.6464C12.8601 10.5399 12.8789 10.4137 12.8443 10.2949C12.8096 10.1761 12.7242 10.0741 12.6063 10.0107L9.18066 8.26569V3.36732Z" fill="#D3D2D2"/>
</g>
<defs>
<clipPath id="clip0_1059_877">
<rect x="0.743164" y="0.0771484" width="16.875" height="15.043" rx="7.5215" fill="white"/>
</clipPath>
</defs>
</svg>
