<svg width="18" height="16" viewBox="0 0 18 16" fill="none" xmlns="http://www.w3.org/2000/svg">
<ellipse cx="9.05469" cy="7.59865" rx="8.4375" ry="7.5215" fill="#D3D2D2"/>
<g clip-path="url(#clip0_1059_867)">
<path fill-rule="evenodd" clip-rule="evenodd" d="M3.99023 5.9063C3.99023 5.60708 4.12358 5.32011 4.36093 5.10853C4.59828 4.89694 4.92019 4.77808 5.25586 4.77808H10.002C10.3089 4.77804 10.6054 4.87747 10.8363 5.05784C11.0672 5.2382 11.2166 5.48721 11.2568 5.7585L13.2249 4.9789C13.3212 4.94064 13.4267 4.92444 13.5319 4.93179C13.637 4.93913 13.7384 4.96979 13.8269 5.02096C13.9154 5.07214 13.9881 5.14221 14.0384 5.22481C14.0888 5.30741 14.1152 5.39992 14.1152 5.49393V9.70334C14.1151 9.79728 14.0887 9.88971 14.0384 9.97224C13.9881 10.0548 13.9154 10.1248 13.8271 10.176C13.7387 10.2271 13.6374 10.2578 13.5323 10.2652C13.4273 10.2726 13.3218 10.2565 13.2255 10.2184L11.2568 9.43877C11.2166 9.71006 11.0672 9.95907 10.8363 10.1394C10.6054 10.3198 10.3089 10.4192 10.002 10.4192H5.25586C4.92019 10.4192 4.59828 10.3003 4.36093 10.0887C4.12358 9.87717 3.99023 9.5902 3.99023 9.29097V5.9063Z" fill="white"/>
</g>
<defs>
<clipPath id="clip0_1059_867">
<rect x="3.99023" y="3.08594" width="10.125" height="9.0258" rx="4.5129" fill="white"/>
</clipPath>
</defs>
</svg>
