<svg width="18" height="16" viewBox="0 0 18 16" fill="none" xmlns="http://www.w3.org/2000/svg">
<g clip-path="url(#clip0_1059_881)">
<path d="M4.95898 0.478883C4.95898 0.354206 4.90342 0.234636 4.80453 0.146476C4.70563 0.0583166 4.5715 0.00878906 4.43164 0.00878906C4.29178 0.00878906 4.15765 0.0583166 4.05875 0.146476C3.95986 0.234636 3.9043 0.354206 3.9043 0.478883V0.948976H2.84961C2.29017 0.948976 1.75364 1.14709 1.35806 1.49972C0.962471 1.85236 0.740234 2.33064 0.740234 2.82935L0.740234 3.76954H17.6152V2.82935C17.6152 2.33064 17.393 1.85236 16.9974 1.49972C16.6018 1.14709 16.0653 0.948976 15.5059 0.948976H14.4512V0.478883C14.4512 0.354206 14.3956 0.234636 14.2967 0.146476C14.1978 0.0583166 14.0637 0.00878906 13.9238 0.00878906C13.784 0.00878906 13.6498 0.0583166 13.5509 0.146476C13.452 0.234636 13.3965 0.354206 13.3965 0.478883V0.948976H4.95898V0.478883ZM17.6152 13.1714V4.70972H0.740234V13.1714C0.740234 13.6701 0.962471 14.1484 1.35806 14.501C1.75364 14.8537 2.29017 15.0518 2.84961 15.0518H15.5059C16.0653 15.0518 16.6018 14.8537 16.9974 14.501C17.393 14.1484 17.6152 13.6701 17.6152 13.1714ZM10.7598 6.5901H11.8145C11.9543 6.5901 12.0884 6.63963 12.1873 6.72779C12.2862 6.81595 12.3418 6.93552 12.3418 7.06019V8.00038C12.3418 8.12506 12.2862 8.24463 12.1873 8.33279C12.0884 8.42095 11.9543 8.47047 11.8145 8.47047H10.7598C10.6199 8.47047 10.4858 8.42095 10.3869 8.33279C10.288 8.24463 10.2324 8.12506 10.2324 8.00038V7.06019C10.2324 6.93552 10.288 6.81595 10.3869 6.72779C10.4858 6.63963 10.6199 6.5901 10.7598 6.5901ZM13.9238 6.5901H14.9785C15.1184 6.5901 15.2525 6.63963 15.3514 6.72779C15.4503 6.81595 15.5059 6.93552 15.5059 7.06019V8.00038C15.5059 8.12506 15.4503 8.24463 15.3514 8.33279C15.2525 8.42095 15.1184 8.47047 14.9785 8.47047H13.9238C13.784 8.47047 13.6498 8.42095 13.5509 8.33279C13.452 8.24463 13.3965 8.12506 13.3965 8.00038V7.06019C13.3965 6.93552 13.452 6.81595 13.5509 6.72779C13.6498 6.63963 13.784 6.5901 13.9238 6.5901ZM2.84961 9.88075C2.84961 9.75608 2.90517 9.63651 3.00406 9.54835C3.10296 9.46019 3.23709 9.41066 3.37695 9.41066H4.43164C4.5715 9.41066 4.70563 9.46019 4.80453 9.54835C4.90342 9.63651 4.95898 9.75608 4.95898 9.88075V10.8209C4.95898 10.9456 4.90342 11.0652 4.80453 11.1533C4.70563 11.2415 4.5715 11.291 4.43164 11.291H3.37695C3.23709 11.291 3.10296 11.2415 3.00406 11.1533C2.90517 11.0652 2.84961 10.9456 2.84961 10.8209V9.88075ZM6.54102 9.41066H7.5957C7.73556 9.41066 7.8697 9.46019 7.96859 9.54835C8.06749 9.63651 8.12305 9.75608 8.12305 9.88075V10.8209C8.12305 10.9456 8.06749 11.0652 7.96859 11.1533C7.8697 11.2415 7.73556 11.291 7.5957 11.291H6.54102C6.40116 11.291 6.26702 11.2415 6.16813 11.1533C6.06923 11.0652 6.01367 10.9456 6.01367 10.8209V9.88075C6.01367 9.75608 6.06923 9.63651 6.16813 9.54835C6.26702 9.46019 6.40116 9.41066 6.54102 9.41066Z" fill="#D3D2D2"/>
</g>
<defs>
<clipPath id="clip0_1059_881">
<rect x="0.740234" y="0.00878906" width="16.875" height="15.043" rx="7.5215" fill="white"/>
</clipPath>
</defs>
</svg>
