<svg width="20" height="21" viewBox="0 0 20 21" fill="none" xmlns="http://www.w3.org/2000/svg">
<path d="M19.7815 10.7374C19.7815 13.3606 18.7394 15.8763 16.8845 17.7312C15.0297 19.5861 12.5139 20.6281 9.89073 20.6281C7.26755 20.6281 4.7518 19.5861 2.89693 17.7312C1.04206 15.8763 0 13.3606 0 10.7374C0 8.11423 1.04206 5.59848 2.89693 3.74361C4.7518 1.88874 7.26755 0.84668 9.89073 0.84668C12.5139 0.84668 15.0297 1.88874 16.8845 3.74361C18.7394 5.59848 19.7815 8.11423 19.7815 10.7374ZM9.89073 5.17388C9.89073 5.00993 9.82561 4.85269 9.70968 4.73676C9.59375 4.62083 9.43651 4.55571 9.27256 4.55571C9.10861 4.55571 8.95138 4.62083 8.83545 4.73676C8.71952 4.85269 8.65439 5.00993 8.65439 5.17388V11.9738C8.65443 12.0827 8.68326 12.1897 8.73798 12.284C8.79269 12.3782 8.87134 12.4563 8.96595 12.5103L13.2931 14.983C13.4352 15.0598 13.6015 15.0779 13.7568 15.0336C13.912 14.9893 14.0437 14.886 14.1238 14.7459C14.2039 14.6057 14.226 14.4398 14.1853 14.2836C14.1447 14.1274 14.0446 13.9932 13.9064 13.9099L9.89073 11.6152V5.17388Z" fill="#929292"/>
</svg>
