<svg width="24" height="24" viewBox="0 0 24 24" fill="none" xmlns="http://www.w3.org/2000/svg">
<path d="M12 11.5H11.3333C11.3333 11.6768 11.4036 11.8464 11.5286 11.9714L12 11.5ZM12 20.1667C7.21353 20.1667 3.33333 16.2865 3.33333 11.5H2C2 17.0228 6.47715 21.5 12 21.5V20.1667ZM20.6667 11.5C20.6667 16.2865 16.7865 20.1667 12 20.1667V21.5C17.5228 21.5 22 17.0228 22 11.5H20.6667ZM12 2.83333C16.7865 2.83333 20.6667 6.71353 20.6667 11.5H22C22 5.97715 17.5228 1.5 12 1.5V2.83333ZM12 1.5C6.47715 1.5 2 5.97715 2 11.5H3.33333C3.33333 6.71353 7.21353 2.83333 12 2.83333V1.5ZM11.3333 5.5V11.5H12.6667V5.5H11.3333ZM11.5286 11.9714L15.5285 15.9715L16.4715 15.0285L12.4714 11.0286L11.5286 11.9714Z" fill="#41246D"/>
</svg>
