<svg width="15" height="15" viewBox="0 0 15 15" fill="none" xmlns="http://www.w3.org/2000/svg">
<g clip-path="url(#clip0_2661_4993)">
<g clip-path="url(#clip1_2661_4993)">
<path d="M7.5 0.25C9.35652 0.25 11.137 0.987498 12.4497 2.30025C13.7625 3.61301 14.5 5.39348 14.5 7.25C14.5 9.10652 13.7625 10.887 12.4497 12.1997C11.137 13.5125 9.35652 14.25 7.5 14.25C5.64348 14.25 3.86301 13.5125 2.55025 12.1997C1.2375 10.887 0.5 9.10652 0.5 7.25C0.5 5.39348 1.2375 3.61301 2.55025 2.30025C3.86301 0.987498 5.64348 0.25 7.5 0.25ZM6.84375 3.53125V7.25C6.84375 7.46875 6.95312 7.67383 7.13633 7.79688L9.76133 9.54688C10.0621 9.74922 10.4695 9.66719 10.6719 9.36367C10.8742 9.06016 10.7922 8.65547 10.4887 8.45312L8.15625 6.9V3.53125C8.15625 3.16758 7.86367 2.875 7.5 2.875C7.13633 2.875 6.84375 3.16758 6.84375 3.53125Z" fill="#3B82F6"/>
</g>
</g>
<defs>
<clipPath id="clip0_2661_4993">
<rect width="14" height="14" fill="white" transform="translate(0.5 0.25)"/>
</clipPath>
<clipPath id="clip1_2661_4993">
<path d="M0.5 0.25H14.5V14.25H0.5V0.25Z" fill="white"/>
</clipPath>
</defs>
</svg>
