<svg width="65" height="65" viewBox="0 0 65 65" fill="none" xmlns="http://www.w3.org/2000/svg">
<path d="M0 10.7365C0 4.80689 4.8069 0 10.7365 0H53.6824C59.612 0 64.4189 4.8069 64.4189 10.7365V53.6824C64.4189 59.612 59.612 64.4189 53.6824 64.4189H10.7365C4.80689 64.4189 0 59.612 0 53.6824V10.7365Z" fill="#EC4899" fill-opacity="0.1"/>
<g clip-path="url(#clip0_2778_2156)">
<path d="M24.8264 20.1309C25.7162 20.1309 26.5696 20.4843 27.1988 21.1136C27.828 21.7428 28.1815 22.5962 28.1815 23.486C28.1815 24.3759 27.828 25.2292 27.1988 25.8585C26.5696 26.4877 25.7162 26.8412 24.8264 26.8412C23.9365 26.8412 23.0831 26.4877 22.4539 25.8585C21.8247 25.2292 21.4712 24.3759 21.4712 23.486C21.4712 22.5962 21.8247 21.7428 22.4539 21.1136C23.0831 20.4843 23.9365 20.1309 24.8264 20.1309ZM40.2601 20.1309C41.1499 20.1309 42.0033 20.4843 42.6325 21.1136C43.2617 21.7428 43.6152 22.5962 43.6152 23.486C43.6152 24.3759 43.2617 25.2292 42.6325 25.8585C42.0033 26.4877 41.1499 26.8412 40.2601 26.8412C39.3702 26.8412 38.5168 26.4877 37.8876 25.8585C37.2584 25.2292 36.9049 24.3759 36.9049 23.486C36.9049 22.5962 37.2584 21.7428 37.8876 21.1136C38.5168 20.4843 39.3702 20.1309 40.2601 20.1309ZM18.7871 32.6582C18.7871 30.1879 20.7918 28.1832 23.262 28.1832H25.0529C25.7197 28.1832 26.353 28.33 26.9234 28.59C26.8688 28.892 26.8437 29.2065 26.8437 29.5253C26.8437 31.1274 27.5483 32.5659 28.6596 33.5515C28.6513 33.5515 28.6429 33.5515 28.6303 33.5515H19.6804C19.1897 33.5515 18.7871 33.1488 18.7871 32.6582ZM35.7851 33.5515C35.7768 33.5515 35.7684 33.5515 35.7558 33.5515C36.8714 32.5659 37.5718 31.1274 37.5718 29.5253C37.5718 29.2065 37.5424 28.8962 37.4921 28.59C38.0625 28.3258 38.6957 28.1832 39.3626 28.1832H41.1534C43.6236 28.1832 45.6283 30.1879 45.6283 32.6582C45.6283 33.153 45.2257 33.5515 44.735 33.5515H35.7851ZM28.1815 29.5253C28.1815 28.4575 28.6057 27.4334 29.3608 26.6783C30.1158 25.9233 31.1399 25.4991 32.2077 25.4991C33.2755 25.4991 34.2996 25.9233 35.0547 26.6783C35.8097 27.4334 36.2339 28.4575 36.2339 29.5253C36.2339 30.5931 35.8097 31.6172 35.0547 32.3722C34.2996 33.1273 33.2755 33.5515 32.2077 33.5515C31.1399 33.5515 30.1158 33.1273 29.3608 32.3722C28.6057 31.6172 28.1815 30.5931 28.1815 29.5253ZM24.1554 40.484C24.1554 37.3973 26.6591 34.8935 29.7459 34.8935H34.6696C37.7563 34.8935 40.2601 37.3973 40.2601 40.484C40.2601 41.1006 39.761 41.6038 39.1403 41.6038H25.2751C24.6586 41.6038 24.1554 41.1048 24.1554 40.484Z" fill="#EC4899"/>
</g>
<defs>
<clipPath id="clip0_2778_2156">
<path d="M18.7871 20.1309H45.6283V41.6038H18.7871V20.1309Z" fill="white"/>
</clipPath>
</defs>
</svg>
