<svg width="65" height="65" viewBox="0 0 65 65" fill="none" xmlns="http://www.w3.org/2000/svg">
<path d="M0 10.7365C0 4.80689 4.8069 0 10.7365 0H53.6824C59.612 0 64.4189 4.8069 64.4189 10.7365V53.6824C64.4189 59.612 59.612 64.4189 53.6824 64.4189H10.7365C4.80689 64.4189 0 59.612 0 53.6824V10.7365Z" fill="#DCFCE7"/>
<g clip-path="url(#clip0_2778_2168)">
<path d="M24.1568 22.8147C24.1568 22.0724 23.557 21.4727 22.8147 21.4727C22.0724 21.4727 21.4727 22.0724 21.4727 22.8147V36.9064C21.4727 38.7601 22.9741 40.2615 24.8278 40.2615H41.6036C42.3459 40.2615 42.9456 39.6618 42.9456 38.9194C42.9456 38.1771 42.3459 37.5774 41.6036 37.5774H24.8278C24.4587 37.5774 24.1568 37.2754 24.1568 36.9064V22.8147ZM41.2093 26.4467C41.7336 25.9224 41.7336 25.0711 41.2093 24.5468C40.6851 24.0226 39.8337 24.0226 39.3095 24.5468L34.8933 28.9672L32.4859 26.5599C31.9617 26.0357 31.1103 26.0357 30.5861 26.5599L25.8889 31.2571C25.3646 31.7814 25.3646 32.6327 25.8889 33.157C26.4131 33.6812 27.2645 33.6812 27.7887 33.157L31.5381 29.4118L33.9454 31.8191C34.4697 32.3433 35.321 32.3433 35.8453 31.8191L41.2135 26.4509L41.2093 26.4467Z" fill="#16A34A"/>
</g>
<defs>
<clipPath id="clip0_2778_2168">
<path d="M21.4727 20.1309H42.9456V41.6038H21.4727V20.1309Z" fill="white"/>
</clipPath>
</defs>
</svg>
