<svg width="32" height="32" viewBox="0 0 32 32" fill="none" xmlns="http://www.w3.org/2000/svg">
<path fill-rule="evenodd" clip-rule="evenodd" d="M8 3C5.79086 3 4 4.79086 4 7V24C4 26.2091 5.79086 28 8 28H25C27.2091 28 29 26.2091 29 24V7C29 4.79086 27.2091 3 25 3H8ZM24.5354 19.1395C23.8871 17.6503 22.6923 16.721 20.9311 16.3736C20.6669 16.3227 20.3777 16.4055 20.1542 16.5913L18.604 17.8861C18.3007 18.1384 17.8901 18.1916 17.5826 18.0131C16.0665 17.132 14.868 15.9335 13.9869 14.4174C13.8084 14.1099 13.8616 13.6993 14.115 13.3971L15.4088 11.8458C15.5945 11.6223 15.6773 11.3331 15.6264 11.0689C15.279 9.30766 14.3497 8.11291 12.8605 7.4646C12.6203 7.36081 12.3298 7.38279 12.0805 7.52546C11.2882 7.97825 10.5256 8.4856 9.79978 9.04713C9.5208 9.26174 9.36847 9.60053 9.40549 9.92527C9.74119 12.8679 11.1729 15.9019 13.6355 18.3645C16.0981 20.8271 19.1322 22.2588 22.0747 22.5945C22.3995 22.6315 22.7383 22.4792 22.9529 22.2002C23.5144 21.4744 24.0218 20.7118 24.4745 19.9195C24.6172 19.6703 24.6392 19.3797 24.5354 19.1395Z" fill="#929292"/>
</svg>
