<svg width="32" height="32" viewBox="0 0 32 32" fill="none" xmlns="http://www.w3.org/2000/svg">
<path d="M28.2671 24.1333C27.3337 24 26.4004 23.8667 25.3337 23.8667C22.0004 23.8667 18.8004 24.8 16.0004 26.6667C13.2004 24.9333 10.0004 23.8667 6.66705 23.8667C5.73372 23.8667 4.66705 24 3.73372 24.1333C3.06705 24.2667 2.53372 24.9333 2.66705 25.7333C2.80039 26.5333 3.46705 26.9333 4.26705 26.8C5.06705 26.6667 5.86705 26.5333 6.66705 26.5333C9.73372 26.5333 12.6671 27.4667 15.2004 29.3333C15.6004 29.7333 16.2671 29.7333 16.8004 29.3333C20.0004 27.0667 24.0004 26.1333 27.7337 26.8C28.4004 26.9333 29.2004 26.4 29.3337 25.7333C29.4671 24.9333 28.9337 24.2667 28.2671 24.1333ZM28.2671 2.79999C27.3337 2.66666 26.4004 2.53333 25.3337 2.53333C22.0004 2.53333 18.8004 3.46666 16.0004 5.33332C13.2004 3.46666 10.0004 2.53333 6.66705 2.53333C5.73372 2.53333 4.66705 2.66666 3.73372 2.79999C3.20039 2.79999 2.66705 3.46666 2.66705 3.99999V20C2.66705 20.8 3.20039 21.3333 4.00039 21.3333C4.13372 21.3333 4.13372 21.3333 4.26705 21.3333C5.06705 21.2 5.86705 21.0667 6.66705 21.0667C9.73372 21.0667 12.6671 22 15.2004 23.8667C15.6004 24.2667 16.2671 24.2667 16.8004 23.8667C20.0004 21.6 24.0004 20.6667 27.7337 21.3333C28.4004 21.4667 29.2004 20.9333 29.3337 20.2667C29.3337 20.1333 29.3337 20.1333 29.3337 20V3.99999C29.3337 3.46666 28.8004 2.79999 28.2671 2.79999Z" fill="#929292"/>
</svg>
