<svg width="329" height="276" viewBox="0 0 329 276" fill="none" xmlns="http://www.w3.org/2000/svg">
<mask id="mask0_2233_2131" style="mask-type:alpha" maskUnits="userSpaceOnUse" x="0" y="0" width="329" height="276">
<rect x="0.692383" width="327.592" height="276" rx="16" fill="#EBB43F"/>
</mask>
<g mask="url(#mask0_2233_2131)">
<rect x="0.692383" width="327.592" height="276" rx="16" fill="#F57879"/>
<g opacity="0.25" clip-path="url(#clip0_2233_2131)">
<path d="M304.959 110.709C295.214 110.709 285.715 113.667 277.809 119.163C269.902 124.66 263.989 132.417 260.908 141.336C257.826 150.255 257.731 159.882 260.637 168.856C263.543 177.829 269.302 185.693 277.099 191.334V227.167C277.099 231.919 279.055 236.476 282.539 239.836C286.022 243.196 290.746 245.084 295.672 245.084H314.246C319.172 245.084 323.897 243.196 327.38 239.836C330.863 236.476 332.82 231.919 332.82 227.167V191.334C340.617 185.693 346.376 177.829 349.282 168.856C352.188 159.882 352.093 150.255 349.011 141.336C345.929 132.417 340.017 124.66 332.11 119.163C324.204 113.667 314.705 110.709 304.959 110.709ZM304.959 101.75C307.422 101.75 309.785 100.807 311.526 99.1265C313.268 97.4465 314.246 95.1679 314.246 92.792V74.8753C314.246 72.4994 313.268 70.2208 311.526 68.5408C309.785 66.8608 307.422 65.917 304.959 65.917C302.496 65.917 300.134 66.8608 298.393 68.5408C296.651 70.2208 295.672 72.4994 295.672 74.8753V92.792C295.672 95.1679 296.651 97.4465 298.393 99.1265C300.134 100.807 302.496 101.75 304.959 101.75ZM388.542 146.542H369.968C367.505 146.542 365.143 147.486 363.401 149.166C361.66 150.846 360.681 153.124 360.681 155.5C360.681 157.876 361.66 160.155 363.401 161.835C365.143 163.515 367.505 164.459 369.968 164.459H388.542C391.005 164.459 393.367 163.515 395.109 161.835C396.851 160.155 397.829 157.876 397.829 155.5C397.829 153.124 396.851 150.846 395.109 149.166C393.367 147.486 391.005 146.542 388.542 146.542ZM239.951 146.542H221.377C218.914 146.542 216.552 147.486 214.81 149.166C213.068 150.846 212.09 153.124 212.09 155.5C212.09 157.876 213.068 160.155 214.81 161.835C216.552 163.515 218.914 164.459 221.377 164.459H239.951C242.414 164.459 244.776 163.515 246.518 161.835C248.259 160.155 249.238 157.876 249.238 155.5C249.238 153.124 248.259 150.846 246.518 149.166C244.776 147.486 242.414 146.542 239.951 146.542ZM264.654 105.513L251.281 92.792C249.47 91.1407 247.054 90.2508 244.564 90.318C242.073 90.3852 239.712 91.404 238 93.1503C236.289 94.8966 235.366 97.2273 235.436 99.6297C235.505 102.032 236.562 104.309 238.372 105.961L251.745 118.413C252.643 119.249 253.705 119.902 254.87 120.333C256.035 120.764 257.278 120.964 258.525 120.921C259.776 120.917 261.013 120.668 262.162 120.191C263.311 119.714 264.348 119.018 265.211 118.144C266.869 116.396 267.741 114.085 267.637 111.717C267.532 109.35 266.46 107.119 264.654 105.513ZM371.733 93.2399C369.993 91.5714 367.639 90.6349 365.185 90.6349C362.732 90.6349 360.378 91.5714 358.638 93.2399L345.265 105.513C343.535 107.191 342.564 109.462 342.564 111.828C342.564 114.195 343.535 116.466 345.265 118.144C346.128 119.018 347.165 119.714 348.314 120.191C349.463 120.668 350.7 120.917 351.951 120.921C354.343 120.912 356.638 120.014 358.359 118.413L371.733 105.961C372.603 105.128 373.294 104.137 373.765 103.045C374.237 101.954 374.48 100.783 374.48 99.6003C374.48 98.4177 374.237 97.2468 373.765 96.1552C373.294 95.0635 372.603 94.0727 371.733 93.2399Z" fill="white"/>
</g>
</g>
<defs>
<clipPath id="clip0_2233_2131">
<rect width="222.887" height="215" fill="white" transform="translate(193.516 48)"/>
</clipPath>
</defs>
</svg>
