<svg width="328" height="276" viewBox="0 0 328 276" fill="none" xmlns="http://www.w3.org/2000/svg">
<mask id="mask0_2233_2111" style="mask-type:alpha" maskUnits="userSpaceOnUse" x="0" y="0" width="328" height="276">
<rect width="327.592" height="276" rx="16" fill="#4CBC9A"/>
</mask>
<g mask="url(#mask0_2233_2111)">
<path d="M0 0H311.592C320.429 0 327.592 7.16344 327.592 16V260C327.592 268.837 320.429 276 311.592 276H16C7.16346 276 0 268.837 0 260V0Z" fill="#D8225D"/>
<g opacity="0.25" clip-path="url(#clip0_2233_2111)">
<path d="M326.815 74.875H215.372C207.982 74.875 200.896 77.7065 195.671 82.7465C190.446 87.7865 187.511 94.6223 187.511 101.75V209.25C187.511 216.378 190.446 223.213 195.671 228.253C200.896 233.294 207.982 236.125 215.372 236.125H326.815C334.204 236.125 341.291 233.294 346.516 228.253C351.741 223.213 354.676 216.378 354.676 209.25V101.75C354.676 94.6223 351.741 87.7865 346.516 82.7465C341.291 77.7065 334.204 74.875 326.815 74.875ZM311.027 134.09L268.586 187.84C267.721 188.924 266.61 189.802 265.338 190.408C264.066 191.013 262.667 191.33 261.249 191.333C259.839 191.341 258.445 191.038 257.174 190.448C255.902 189.858 254.787 188.997 253.912 187.929L231.252 160.069C230.502 159.139 229.949 158.077 229.625 156.941C229.301 155.806 229.212 154.62 229.363 153.451C229.513 152.282 229.902 151.153 230.505 150.129C231.108 149.105 231.914 148.206 232.878 147.482C234.823 146.021 237.291 145.365 239.738 145.659C240.95 145.805 242.12 146.179 243.182 146.761C244.243 147.343 245.176 148.121 245.926 149.05L261.063 167.683L296.168 122.892C296.912 121.951 297.841 121.16 298.902 120.565C299.962 119.97 301.134 119.583 302.35 119.425C303.566 119.267 304.802 119.341 305.988 119.644C307.174 119.947 308.287 120.472 309.263 121.19C310.238 121.907 311.058 122.803 311.675 123.826C312.291 124.849 312.693 125.98 312.857 127.153C313.021 128.326 312.944 129.518 312.63 130.662C312.316 131.806 311.771 132.88 311.027 133.821V134.09Z" fill="white"/>
</g>
</g>
<defs>
<clipPath id="clip0_2233_2111">
<rect width="222.887" height="215" fill="white" transform="translate(159.649 48)"/>
</clipPath>
</defs>
</svg>
