<svg width="32" height="32" viewBox="0 0 32 32" fill="none" xmlns="http://www.w3.org/2000/svg">
<path d="M7.99967 5.33325C6.52691 5.33325 5.33301 6.52716 5.33301 7.99992V11.9999C5.33301 13.4727 6.52691 14.6666 7.99967 14.6666H11.9997C13.4725 14.6666 14.6663 13.4727 14.6663 11.9999V7.99992C14.6663 6.52716 13.4725 5.33325 11.9997 5.33325H7.99967ZM19.9997 5.33325C18.5269 5.33325 17.333 6.52716 17.333 7.99992V11.9999C17.333 13.4727 18.5269 14.6666 19.9997 14.6666H23.9997C25.4725 14.6666 26.6663 13.4727 26.6663 11.9999V7.99992C26.6663 6.52716 25.4725 5.33325 23.9997 5.33325H19.9997ZM5.33301 19.9999C5.33301 18.5271 6.52691 17.3333 7.99967 17.3333H11.9997C13.4725 17.3333 14.6663 18.5271 14.6663 19.9999V23.9999C14.6663 25.4727 13.4725 26.6666 11.9997 26.6666H7.99967C6.52691 26.6666 5.33301 25.4727 5.33301 23.9999V19.9999ZM19.9997 17.3333C18.5269 17.3333 17.333 18.5271 17.333 19.9999V23.9999C17.333 25.4727 18.5269 26.6666 19.9997 26.6666H23.9997C25.4725 26.6666 26.6663 25.4727 26.6663 23.9999V19.9999C26.6663 18.5271 25.4725 17.3333 23.9997 17.3333H19.9997Z" fill="#929292"/>
</svg>
