<svg width="14" height="15" viewBox="0 0 14 15" fill="none" xmlns="http://www.w3.org/2000/svg">
<path d="M0 2.5C0 1.53477 0.784766 0.75 1.75 0.75H6.125V4.25C6.125 4.73398 6.51602 5.125 7 5.125H10.5V9.0625H4.8125C3.84727 9.0625 3.0625 9.84727 3.0625 10.8125V14.75H1.75C0.784766 14.75 0 13.9652 0 13V2.5ZM10.5 4.25H7V0.75L10.5 4.25ZM4.8125 10.375H5.6875C6.53242 10.375 7.21875 11.0613 7.21875 11.9062C7.21875 12.7512 6.53242 13.4375 5.6875 13.4375H5.25V14.3125C5.25 14.5531 5.05313 14.75 4.8125 14.75C4.57187 14.75 4.375 14.5531 4.375 14.3125V10.8125C4.375 10.5719 4.57187 10.375 4.8125 10.375ZM5.6875 12.5625C6.05117 12.5625 6.34375 12.2699 6.34375 11.9062C6.34375 11.5426 6.05117 11.25 5.6875 11.25H5.25V12.5625H5.6875ZM8.3125 10.375H9.1875C9.91211 10.375 10.5 10.9629 10.5 11.6875V13.4375C10.5 14.1621 9.91211 14.75 9.1875 14.75H8.3125C8.07187 14.75 7.875 14.5531 7.875 14.3125V10.8125C7.875 10.5719 8.07187 10.375 8.3125 10.375ZM9.1875 13.875C9.42813 13.875 9.625 13.6781 9.625 13.4375V11.6875C9.625 11.4469 9.42813 11.25 9.1875 11.25H8.75V13.875H9.1875ZM11.375 10.8125C11.375 10.5719 11.5719 10.375 11.8125 10.375H13.125C13.3656 10.375 13.5625 10.5719 13.5625 10.8125C13.5625 11.0531 13.3656 11.25 13.125 11.25H12.25V12.125H13.125C13.3656 12.125 13.5625 12.3219 13.5625 12.5625C13.5625 12.8031 13.3656 13 13.125 13H12.25V14.3125C12.25 14.5531 12.0531 14.75 11.8125 14.75C11.5719 14.75 11.375 14.5531 11.375 14.3125V10.8125Z" fill="white"/>
</svg>
