<svg width="20" height="20" viewBox="0 0 20 20" fill="none" xmlns="http://www.w3.org/2000/svg">
<g clip-path="url(#clip0_1868_1860)">
<path d="M15.546 0.775162L5.38603 10.9352C4.99798 11.3211 4.69035 11.7802 4.48093 12.2859C4.27152 12.7915 4.16449 13.3337 4.16603 13.881V15.0002C4.16603 15.2212 4.25383 15.4331 4.41011 15.5894C4.56639 15.7457 4.77835 15.8335 4.99937 15.8335H6.11853C6.66583 15.835 7.20801 15.728 7.71366 15.5186C8.21932 15.3092 8.67841 15.0015 9.06437 14.6135L19.2244 4.4535C19.7114 3.9653 19.9849 3.30389 19.9849 2.61433C19.9849 1.92477 19.7114 1.26335 19.2244 0.775162C18.7291 0.30174 18.0703 0.0375366 17.3852 0.0375366C16.7001 0.0375366 16.0413 0.30174 15.546 0.775162ZM18.046 3.27516L7.88603 13.4352C7.41614 13.9022 6.78104 14.1651 6.11853 14.1668H5.8327V13.881C5.83444 13.2185 6.09734 12.5834 6.56437 12.1135L16.7244 1.9535C16.9024 1.78346 17.139 1.68857 17.3852 1.68857C17.6314 1.68857 17.868 1.78346 18.046 1.9535C18.221 2.12892 18.3192 2.36657 18.3192 2.61433C18.3192 2.86209 18.221 3.09973 18.046 3.27516Z" fill="black"/>
<path d="M19.1667 7.4825C18.9457 7.4825 18.7337 7.5703 18.5774 7.72658C18.4211 7.88286 18.3333 8.09482 18.3333 8.31583V12.5H15C14.337 12.5 13.7011 12.7634 13.2322 13.2322C12.7634 13.7011 12.5 14.337 12.5 15V18.3333H4.16667C3.50363 18.3333 2.86774 18.0699 2.3989 17.6011C1.93006 17.1323 1.66667 16.4964 1.66667 15.8333V4.16667C1.66667 3.50363 1.93006 2.86774 2.3989 2.3989C2.86774 1.93006 3.50363 1.66667 4.16667 1.66667H11.7017C11.9227 1.66667 12.1346 1.57887 12.2909 1.42259C12.4472 1.26631 12.535 1.05435 12.535 0.833333C12.535 0.61232 12.4472 0.400358 12.2909 0.244078C12.1346 0.0877974 11.9227 0 11.7017 0L4.16667 0C3.062 0.00132321 2.00296 0.440735 1.22185 1.22185C0.440735 2.00297 0.00132321 3.062 0 4.16667L0 15.8333C0.00132321 16.938 0.440735 17.997 1.22185 18.7782C2.00296 19.5593 3.062 19.9987 4.16667 20H13.6192C14.1666 20.0016 14.7089 19.8945 15.2147 19.6851C15.7205 19.4757 16.1797 19.1681 16.5658 18.78L18.7792 16.565C19.1673 16.1791 19.475 15.72 19.6846 15.2143C19.8941 14.7087 20.0013 14.1665 20 13.6192V8.31583C20 8.09482 19.9122 7.88286 19.7559 7.72658C19.5996 7.5703 19.3877 7.4825 19.1667 7.4825ZM15.3875 17.6017C15.0525 17.9358 14.6289 18.1672 14.1667 18.2683V15C14.1667 14.779 14.2545 14.567 14.4107 14.4107C14.567 14.2545 14.779 14.1667 15 14.1667H18.2708C18.1677 14.6279 17.9367 15.0508 17.6042 15.3867L15.3875 17.6017Z" fill="black"/>
</g>
<defs>
<clipPath id="clip0_1868_1860">
<rect width="20" height="20" fill="white"/>
</clipPath>
</defs>
</svg>
