<svg width="25" height="25" viewBox="0 0 25 25" fill="none" xmlns="http://www.w3.org/2000/svg">
<path d="M21 0C23.2091 0 25 1.79086 25 4V21C25 23.2091 23.2091 25 21 25H4C1.79086 25 0 23.2091 0 21V4C2.57706e-07 1.79086 1.79086 0 4 0H21ZM12 16.25C11.3787 16.25 10.875 16.7537 10.875 17.375C10.875 17.9963 11.3787 18.5 12 18.5C12.6213 18.5 13.125 17.9963 13.125 17.375C13.125 16.7537 12.6213 16.25 12 16.25ZM12 7.25C10.0264 7.25 8.25 8.67049 8.25 10.625V11C8.25 11.4142 8.58579 11.75 9 11.75C9.41421 11.75 9.75 11.4142 9.75 11V10.625C9.75 9.68076 10.6605 8.75 12 8.75C13.3395 8.75 14.25 9.68076 14.25 10.625C14.25 11.5692 13.3395 12.5 12 12.5C11.5858 12.5 11.25 12.8358 11.25 13.25V14C11.25 14.4142 11.5858 14.75 12 14.75C12.4142 14.75 12.75 14.4142 12.75 14V13.9307C14.402 13.6245 15.75 12.3275 15.75 10.625C15.75 8.67049 13.9736 7.25 12 7.25Z" fill="#929292"/>
</svg>
