<svg width="10" height="10" viewBox="0 0 10 10" fill="none" xmlns="http://www.w3.org/2000/svg">
<path d="M0.466966 3.24672C0.642922 3.24672 0.785495 3.1041 0.785495 2.92819V1.57003L2.83703 3.62119C2.89925 3.68337 2.98075 3.71446 3.06225 3.71446C3.1438 3.71446 3.22534 3.68337 3.28752 3.62115C3.41191 3.49675 3.41191 3.29505 3.28748 3.1707L1.23585 1.11949H2.59427C2.77018 1.11949 2.9128 0.976875 2.9128 0.800958C2.9128 0.625041 2.77023 0.482422 2.59427 0.482422H0.466966C0.291011 0.482422 0.148438 0.625041 0.148438 0.800958V2.92823C0.148438 3.1041 0.291011 3.24672 0.466966 3.24672Z" fill="white"/>
<path d="M8.97593 6.86419C8.79998 6.86419 8.6574 7.00681 8.6574 7.18273V8.54092L6.54271 6.42618C6.41827 6.30178 6.21662 6.30178 6.09223 6.42618C5.96783 6.55058 5.96783 6.75228 6.09223 6.87663L8.20688 8.99133H6.8488C6.67284 8.99133 6.53027 9.13395 6.53027 9.30987C6.53027 9.48578 6.67284 9.6284 6.8488 9.6284H8.97598C9.15193 9.6284 9.2945 9.48578 9.2945 9.30987V7.18273C9.29446 7.00681 9.15185 6.86419 8.97593 6.86419Z" fill="white"/>
<path d="M2.90019 6.42618L0.785708 8.54088V7.18273C0.785708 7.00681 0.643134 6.86419 0.467179 6.86419C0.291223 6.86419 0.14865 7.00681 0.14865 7.18273V9.30995C0.14865 9.48587 0.291223 9.62849 0.467179 9.62849H2.59427C2.77018 9.62849 2.9128 9.48587 2.9128 9.30995C2.9128 9.13404 2.77023 8.99142 2.59427 8.99142H1.23615L3.35067 6.87663C3.47507 6.75223 3.47507 6.55054 3.35063 6.42614C3.22632 6.30178 3.02463 6.30178 2.90019 6.42618Z" fill="white"/>
<path d="M8.97593 0.482422H6.84876C6.6728 0.482422 6.53023 0.625041 6.53023 0.800958C6.53023 0.976875 6.6728 1.11949 6.84876 1.11949H8.20692L6.15568 3.17091C6.03128 3.29531 6.03128 3.49701 6.15572 3.62141C6.2179 3.68358 6.29944 3.71467 6.38094 3.71467C6.46244 3.71467 6.54399 3.68354 6.60621 3.62136L8.65745 1.56995V2.92819C8.65745 3.1041 8.80002 3.24672 8.97598 3.24672C9.15193 3.24672 9.29451 3.1041 9.29451 2.92819V0.800958C9.29446 0.624999 9.15185 0.482422 8.97593 0.482422Z" fill="white"/>
</svg>
