<svg width="13" height="15" viewBox="0 0 13 15" fill="none" xmlns="http://www.w3.org/2000/svg">
<g clip-path="url(#clip0_2670_7244)">
<g clip-path="url(#clip1_2670_7244)">
<path d="M2.625 0.110352C1.17578 0.110352 0 1.28613 0 2.73535V11.4854C0 12.9346 1.17578 14.1104 2.625 14.1104H10.5H11.375C11.859 14.1104 12.25 13.7193 12.25 13.2354C12.25 12.7514 11.859 12.3604 11.375 12.3604V10.6104C11.859 10.6104 12.25 10.2193 12.25 9.73535V0.985352C12.25 0.501367 11.859 0.110352 11.375 0.110352H10.5H2.625ZM2.625 10.6104H9.625V12.3604H2.625C2.14102 12.3604 1.75 11.9693 1.75 11.4854C1.75 11.0014 2.14102 10.6104 2.625 10.6104ZM3.5 4.04785C3.5 3.80723 3.69688 3.61035 3.9375 3.61035H9.1875C9.42813 3.61035 9.625 3.80723 9.625 4.04785C9.625 4.28848 9.42813 4.48535 9.1875 4.48535H3.9375C3.69688 4.48535 3.5 4.28848 3.5 4.04785ZM3.9375 5.36035H9.1875C9.42813 5.36035 9.625 5.55723 9.625 5.79785C9.625 6.03848 9.42813 6.23535 9.1875 6.23535H3.9375C3.69688 6.23535 3.5 6.03848 3.5 5.79785C3.5 5.55723 3.69688 5.36035 3.9375 5.36035Z" fill="#4B5563"/>
</g>
</g>
<defs>
<clipPath id="clip0_2670_7244">
<rect width="12.25" height="14" fill="white" transform="translate(0 0.110352)"/>
</clipPath>
<clipPath id="clip1_2670_7244">
<rect width="12.25" height="14" fill="white" transform="translate(0 0.110352)"/>
</clipPath>
</defs>
</svg>
