<svg width="16" height="17" viewBox="0 0 16 17" fill="none" xmlns="http://www.w3.org/2000/svg">
<path d="M8 9H7.53333C7.53333 9.12377 7.5825 9.24247 7.67002 9.32998L8 9ZM8 15.0667C4.64947 15.0667 1.93333 12.3506 1.93333 9H1C1 12.866 4.134 16 8 16V15.0667ZM14.0667 9C14.0667 12.3506 11.3506 15.0667 8 15.0667V16C11.866 16 15 12.866 15 9H14.0667ZM8 2.93333C11.3506 2.93333 14.0667 5.64947 14.0667 9H15C15 5.134 11.866 2 8 2V2.93333ZM8 2C4.134 2 1 5.134 1 9H1.93333C1.93333 5.64947 4.64947 2.93333 8 2.93333V2ZM7.53333 4.8V9H8.46667V4.8H7.53333ZM7.67002 9.32998L10.47 12.13L11.13 11.47L8.32998 8.67002L7.67002 9.32998Z" fill="#2B2D3B"/>
</svg>
