<svg width="16" height="17" viewBox="0 0 16 17" fill="none" xmlns="http://www.w3.org/2000/svg">
<path d="M12.3971 7.85858H3.49447C2.79206 7.85858 2.22266 8.42799 2.22266 9.13039V13.5817C2.22266 14.2841 2.79206 14.8535 3.49447 14.8535H12.3971C13.0995 14.8535 13.6689 14.2841 13.6689 13.5817V9.13039C13.6689 8.42799 13.0995 7.85858 12.3971 7.85858Z" stroke="#2B2D3B" stroke-width="1.27181" stroke-linecap="round" stroke-linejoin="round"/>
<path d="M4.76562 7.85858V5.31496C4.76563 4.4717 5.10061 3.66297 5.69689 3.0667C6.29316 2.47042 7.10189 2.13544 7.94515 2.13544C8.78841 2.13544 9.59713 2.47042 10.1934 3.0667C10.7897 3.66297 11.1247 4.4717 11.1247 5.31496V7.85858" stroke="#2B2D3B" stroke-width="1.27181" stroke-linecap="round" stroke-linejoin="round"/>
</svg>
