<svg width="16" height="17" viewBox="0 0 16 17" fill="none" xmlns="http://www.w3.org/2000/svg">
<g clip-path="url(#clip0_1407_1884)">
<path d="M13.875 11.1378H9.625C9.5403 11.1378 9.46624 11.0638 9.46624 10.9791C9.46624 10.8944 9.5403 10.8203 9.625 10.8203H13.875C13.9597 10.8203 14.0338 10.8944 14.0338 10.9791C14.0338 11.0638 13.9597 11.1378 13.875 11.1378Z" fill="black" stroke="#2B2D3B" stroke-width="0.744973"/>
<path d="M13.875 13.9713H9.625C9.5403 13.9713 9.46624 13.8972 9.46624 13.8125C9.46624 13.7278 9.5403 13.6537 9.625 13.6537H13.875C13.9597 13.6537 14.0338 13.7278 14.0338 13.8125C14.0338 13.8972 13.9597 13.9713 13.875 13.9713Z" fill="black" stroke="#2B2D3B" stroke-width="0.744973"/>
<path d="M13.0088 6.93033V6.93032H13.0057H10.144C9.61816 6.93032 9.37788 6.83325 9.26327 6.73183C9.16439 6.64432 9.06445 6.46742 9.06445 6.02782V2.81906C9.06445 2.38404 9.16391 2.20599 9.264 2.11706C9.37917 2.01473 9.61994 1.91656 10.144 1.91656H13.0057C13.5298 1.91656 13.7706 2.01473 13.8857 2.11706C13.9858 2.20599 14.0853 2.38404 14.0853 2.81906V6.0349C14.0853 6.47029 13.9857 6.64758 13.8865 6.73537C13.7724 6.83633 13.5327 6.93362 13.0088 6.93033Z" stroke="#2B2D3B"/>
<path d="M4.85846 6.93033V6.93032H4.85531H1.99365C1.46777 6.93032 1.22748 6.83325 1.11288 6.73183C1.014 6.64432 0.914062 6.46742 0.914062 6.02782V2.81906C0.914062 2.38404 1.01352 2.20599 1.11361 2.11706C1.22878 2.01473 1.46955 1.91656 1.99365 1.91656H4.85531C5.37941 1.91656 5.62018 2.01473 5.73535 2.11706C5.83544 2.20599 5.9349 2.38404 5.9349 2.81906V6.0349C5.9349 6.47029 5.83527 6.64758 5.73608 6.73537C5.622 6.83633 5.38227 6.93362 4.85846 6.93033Z" stroke="#2B2D3B"/>
<path d="M5.9349 11.1421V14.0038C5.9349 14.5168 5.82869 14.7475 5.71389 14.8623C5.5991 14.9771 5.36836 15.0833 4.85531 15.0833H1.99365C1.4806 15.0833 1.24986 14.9771 1.13506 14.8623C1.02027 14.7475 0.914062 14.5168 0.914062 14.0038V11.1421C0.914062 10.629 1.02027 10.3983 1.13506 10.2835C1.24986 10.1687 1.4806 10.0625 1.99365 10.0625H4.85531C5.36836 10.0625 5.5991 10.1687 5.71389 10.2835C5.82869 10.3983 5.9349 10.629 5.9349 11.1421Z" stroke="#2B2D3B"/>
</g>
<defs>
<clipPath id="clip0_1407_1884">
<rect width="15.2617" height="15.2617" fill="white" transform="translate(0.314453 0.814026)"/>
</clipPath>
</defs>
</svg>
