<svg width="16" height="17" viewBox="0 0 16 17" fill="none" xmlns="http://www.w3.org/2000/svg">
<g clip-path="url(#clip0_1407_2020)">
<path d="M7.94498 14.826C11.457 14.826 14.304 11.979 14.304 8.46696C14.304 4.95495 11.457 2.10791 7.94498 2.10791C4.43298 2.10791 1.58594 4.95495 1.58594 8.46696C1.58594 11.979 4.43298 14.826 7.94498 14.826Z" stroke="#2B2D3B" stroke-width="1.27181" stroke-linecap="round" stroke-linejoin="round"/>
<path d="M6.09375 6.5592C6.24325 6.13421 6.53834 5.77583 6.92676 5.54756C7.31517 5.31929 7.77184 5.23584 8.21588 5.31201C8.65992 5.38817 9.06267 5.61903 9.35281 5.96369C9.64295 6.30836 9.80174 6.74458 9.80107 7.19511C9.80107 8.46691 7.89336 9.10282 7.89336 9.10282" stroke="#2B2D3B" stroke-width="1.27181" stroke-linecap="round" stroke-linejoin="round"/>
<path d="M7.94531 11.6464H7.95167" stroke="#2B2D3B" stroke-width="1.27181" stroke-linecap="round" stroke-linejoin="round"/>
</g>
<defs>
<clipPath id="clip0_1407_2020">
<rect width="15.2617" height="15.2617" fill="white" transform="translate(0.314453 0.83606)"/>
</clipPath>
</defs>
</svg>
