<svg width="20" height="20" viewBox="0 0 20 20" fill="none" xmlns="http://www.w3.org/2000/svg">
<path d="M10 20C15.5228 20 20 15.5228 20 10C20 4.47715 15.5228 0 10 0C4.47715 0 0 4.47715 0 10C0 15.5228 4.47715 20 10 20Z" fill="url(#paint0_linear_2725_2150)"/>
<path d="M10.0168 9.49258L15.0613 6.42383C14.8502 6.24192 14.5806 6.14208 14.302 6.14258H5.69961C5.56847 6.14247 5.43825 6.16453 5.31445 6.20781L10.0168 9.49258Z" fill="white"/>
<path d="M10.2219 10.3648C10.1511 10.408 10.0694 10.4297 9.98652 10.4271C9.90368 10.4246 9.82339 10.3979 9.75547 10.3504L4.65391 6.78711C4.57298 6.94874 4.53097 7.12705 4.53125 7.30781V12.6922C4.53125 13.0018 4.65426 13.2988 4.87323 13.5178C5.09219 13.7368 5.38917 13.8598 5.69883 13.8598H14.3012C14.6108 13.8598 14.9078 13.7368 15.1268 13.5178C15.3457 13.2988 15.4688 13.0018 15.4688 12.6922V7.30781C15.4687 7.26435 15.4662 7.22093 15.4613 7.17773L10.2219 10.3648Z" fill="white"/>
<defs>
<linearGradient id="paint0_linear_2725_2150" x1="0.5" y1="9.25" x2="20" y2="9.5" gradientUnits="userSpaceOnUse">
<stop stop-color="#B72088"/>
<stop offset="0.5" stop-color="#C81C5F"/>
<stop offset="1" stop-color="#EB170F"/>
</linearGradient>
</defs>
</svg>
