<svg width="50" height="50" viewBox="0 0 50 50" fill="none" xmlns="http://www.w3.org/2000/svg">
<g opacity="0.5">
<path d="M25 0C38.8071 0 50 11.1929 50 25C50 38.8071 38.8071 50 25 50C11.1929 50 0 38.8071 0 25C0 11.1929 11.1929 0 25 0Z" fill="#03BF61" fill-opacity="0.2"/>
<path d="M25 0C38.8071 0 50 11.1929 50 25C50 38.8071 38.8071 50 25 50C11.1929 50 0 38.8071 0 25C0 11.1929 11.1929 0 25 0Z" stroke="#E5E7EB"/>
<path d="M26.8538 13.8438C26.6054 13.3281 26.0804 13 25.5038 13C24.9273 13 24.4069 13.3281 24.1538 13.8438L21.1398 20.0453L14.4085 21.0391C13.846 21.1234 13.3773 21.5172 13.2038 22.0562C13.0304 22.5953 13.171 23.1906 13.5741 23.5891L18.4585 28.4219L17.3054 35.2516C17.2116 35.8141 17.446 36.3859 17.9101 36.7188C18.3741 37.0516 18.9882 37.0937 19.4944 36.8266L25.5085 33.6156L31.5226 36.8266C32.0288 37.0937 32.6429 37.0562 33.1069 36.7188C33.571 36.3813 33.8054 35.8141 33.7116 35.2516L32.5538 28.4219L37.4382 23.5891C37.8413 23.1906 37.9866 22.5953 37.8085 22.0562C37.6304 21.5172 37.1663 21.1234 36.6038 21.0391L29.8679 20.0453L26.8538 13.8438Z" fill="#03BF61"/>
</g>
</svg>
