<svg width="25" height="25" viewBox="0 0 25 25" fill="none" xmlns="http://www.w3.org/2000/svg">
<path d="M21 0C23.2091 0 25 1.79086 25 4V21C25 23.2091 23.2091 25 21 25H4C1.79086 25 0 23.2091 0 21V4C2.57706e-07 1.79086 1.79086 0 4 0H21ZM12 10.75C11.3096 10.75 10.75 11.3096 10.75 12C10.75 12.6047 11.1795 13.1088 11.75 13.2246V18C11.75 18.5967 11.9872 19.1689 12.4092 19.5908C12.8311 20.0128 13.4033 20.25 14 20.25C14.6904 20.25 15.25 19.6904 15.25 19C15.25 18.3952 14.8206 17.8902 14.25 17.7744V13C14.25 12.4779 14.0683 11.9746 13.7402 11.5742L13.5908 11.4092L13.4258 11.2598C13.0254 10.9317 12.5221 10.75 12 10.75ZM12.5 6C11.6716 6 11 6.67157 11 7.5C11 8.32843 11.6716 9 12.5 9C13.3284 9 14 8.32843 14 7.5C14 6.67157 13.3284 6 12.5 6Z" fill="#929292"/>
</svg>
