<svg width="32" height="21" viewBox="0 0 32 21" fill="none" xmlns="http://www.w3.org/2000/svg">
<path d="M4.50785 2.625C3.98202 2.625 3.55179 3.01875 3.55179 3.5V4.70859L13.8594 12.4523C15.0963 13.382 16.871 13.382 18.1079 12.4523L28.4095 4.70859V3.5C28.4095 3.01875 27.9792 2.625 27.4534 2.625H4.50785ZM3.55179 8.10469V17.5C3.55179 17.9813 3.98202 18.375 4.50785 18.375H27.4534C27.9792 18.375 28.4095 17.9813 28.4095 17.5V8.10469L19.9244 14.4812C17.6298 16.2039 14.3254 16.2039 12.0369 14.4812L3.55179 8.10469ZM0.683594 3.5C0.683594 1.56953 2.39853 0 4.50785 0H27.4534C29.5627 0 31.2777 1.56953 31.2777 3.5V17.5C31.2777 19.4305 29.5627 21 27.4534 21H4.50785C2.39853 21 0.683594 19.4305 0.683594 17.5V3.5Z" fill="white"/>
<path d="M4.50785 2.625C3.98202 2.625 3.55179 3.01875 3.55179 3.5V4.70859L13.8594 12.4523C15.0963 13.382 16.871 13.382 18.1079 12.4523L28.4095 4.70859V3.5C28.4095 3.01875 27.9792 2.625 27.4534 2.625H4.50785ZM3.55179 8.10469V17.5C3.55179 17.9813 3.98202 18.375 4.50785 18.375H27.4534C27.9792 18.375 28.4095 17.9813 28.4095 17.5V8.10469L19.9244 14.4812C17.6298 16.2039 14.3254 16.2039 12.0369 14.4812L3.55179 8.10469ZM0.683594 3.5C0.683594 1.56953 2.39853 0 4.50785 0H27.4534C29.5627 0 31.2777 1.56953 31.2777 3.5V17.5C31.2777 19.4305 29.5627 21 27.4534 21H4.50785C2.39853 21 0.683594 19.4305 0.683594 17.5V3.5Z" fill="url(#paint0_linear_2401_5478)"/>
<defs>
<linearGradient id="paint0_linear_2401_5478" x1="4.06293" y1="16.7562" x2="15.8154" y2="-3.44499" gradientUnits="userSpaceOnUse">
<stop stop-color="#B72088"/>
<stop offset="0.17" stop-color="#B81F83"/>
<stop offset="0.35" stop-color="#BE1E75"/>
<stop offset="0.55" stop-color="#C81C5F"/>
<stop offset="0.75" stop-color="#D61A3F"/>
<stop offset="0.96" stop-color="#E71717"/>
<stop offset="1" stop-color="#EB170F"/>
</linearGradient>
</defs>
</svg>
