<svg width="65" height="65" viewBox="0 0 65 65" fill="none" xmlns="http://www.w3.org/2000/svg">
<path d="M0 10.7365C0 4.80689 4.8069 0 10.7365 0H53.6824C59.612 0 64.4189 4.8069 64.4189 10.7365V53.6824C64.4189 59.612 59.612 64.4189 53.6824 64.4189H10.7365C4.80689 64.4189 0 59.612 0 53.6824V10.7365Z" fill="#F97316" fill-opacity="0.1"/>
<g clip-path="url(#clip0_2778_2150)">
<path d="M32.0136 20.1527C32.1436 20.1275 32.2778 20.1275 32.4079 20.1527L40.7957 21.8302C41.2655 21.9225 41.6052 22.3377 41.6052 22.8158C41.6052 23.2939 41.2655 23.7091 40.7957 23.8014L37.579 24.4473V26.842C37.579 29.8071 35.1759 32.2102 32.2107 32.2102C29.2456 32.2102 26.8425 29.8071 26.8425 26.842V24.4473L24.8294 24.0446V26.7749L25.4879 30.0629C25.5256 30.2601 25.4753 30.4656 25.3495 30.6207C25.2236 30.7759 25.0307 30.8682 24.8294 30.8682H23.4874C23.286 30.8682 23.0973 30.7801 22.9673 30.6207C22.8373 30.4614 22.787 30.2601 22.8289 30.0629L23.4874 26.7749V23.7636C23.0889 23.6252 22.8163 23.2478 22.8163 22.8158C22.8163 22.3377 23.156 21.9225 23.6258 21.8302L32.0136 20.1527ZM27.5093 33.8752C27.9497 33.7326 28.4236 33.892 28.7424 34.2317L31.7201 37.3981C31.9843 37.6791 32.433 37.6791 32.6972 37.3981L35.6749 34.2317C35.9937 33.892 36.4676 33.7326 36.908 33.8752C39.634 34.7518 41.6052 37.3017 41.6052 40.3171C41.6052 41.0301 41.0264 41.6047 40.3176 41.6047H24.1039C23.3951 41.6047 22.8163 41.0259 22.8163 40.3171C22.8163 37.3017 24.7875 34.7518 27.5093 33.8752Z" fill="#F97316"/>
</g>
<defs>
<clipPath id="clip0_2778_2150">
<path d="M22.8164 20.1309H41.6053V41.6038H22.8164V20.1309Z" fill="white"/>
</clipPath>
</defs>
</svg>
