<svg width="20" height="16" viewBox="0 0 20 16" fill="none" xmlns="http://www.w3.org/2000/svg">
<g clip-path="url(#clip0_2861_2452)">
<g clip-path="url(#clip1_2861_2452)">
<path d="M18.1184 8.36559C19.884 6.59997 19.884 3.74059 18.1184 1.97497C16.5559 0.412466 14.0934 0.209341 12.2965 1.49372L12.2465 1.52809C11.7965 1.84997 11.6934 2.47497 12.0152 2.92184C12.3371 3.36872 12.9621 3.47497 13.409 3.15309L13.459 3.11872C14.4621 2.40309 15.834 2.51559 16.7027 3.38747C17.6871 4.37184 17.6871 5.96559 16.7027 6.94997L13.1965 10.4625C12.2121 11.4468 10.6184 11.4468 9.63398 10.4625C8.76211 9.59059 8.64961 8.21872 9.36523 7.21872L9.39961 7.16872C9.72148 6.71872 9.61523 6.09372 9.16836 5.77497C8.72148 5.45622 8.09336 5.55934 7.77461 6.00622L7.74023 6.05622C6.45273 7.84997 6.65586 10.3125 8.21836 11.875C9.98398 13.6406 12.8434 13.6406 14.609 11.875L18.1184 8.36559ZM1.88086 7.63434C0.115234 9.39997 0.115234 12.2593 1.88086 14.025C3.44336 15.5875 5.90586 15.7906 7.70273 14.5062L7.75273 14.4718C8.20273 14.15 8.30586 13.525 7.98398 13.0781C7.66211 12.6312 7.03711 12.525 6.59023 12.8468L6.54023 12.8812C5.53711 13.5968 4.16523 13.4843 3.29648 12.6125C2.31211 11.625 2.31211 10.0312 3.29648 9.04684L6.80273 5.53747C7.78711 4.55309 9.38086 4.55309 10.3652 5.53747C11.2371 6.40934 11.3496 7.78122 10.634 8.78434L10.5996 8.83434C10.2777 9.28434 10.384 9.90934 10.8309 10.2281C11.2777 10.5468 11.9059 10.4437 12.2246 9.99684L12.259 9.94684C13.5465 8.14997 13.3434 5.68747 11.7809 4.12497C10.0152 2.35934 7.15586 2.35934 5.39023 4.12497L1.88086 7.63434Z" fill="#6B7280"/>
</g>
</g>
<defs>
<clipPath id="clip0_2861_2452">
<rect width="20" height="16" fill="white"/>
</clipPath>
<clipPath id="clip1_2861_2452">
<rect width="20" height="16" fill="white"/>
</clipPath>
</defs>
</svg>
