<svg width="201" height="173" viewBox="0 0 201 173" fill="none" xmlns="http://www.w3.org/2000/svg">
<g clip-path="url(#clip0_2233_2549)">
<path d="M46.0341 146.681H33.1339C31.7968 146.681 30.7129 147.75 30.7129 149.07C30.7129 150.389 31.7968 151.459 33.1339 151.459H46.0341C47.3712 151.459 48.4551 150.389 48.4551 149.07C48.4551 147.75 47.3712 146.681 46.0341 146.681Z" fill="black"/>
<path d="M16.9469 118.013H2.3859C1.07599 118.013 0 119.066 0 120.373V149.11C0 150.406 1.0643 151.47 2.3859 151.47H16.9469C18.2568 151.47 19.3328 150.418 19.3328 149.11V149.041C19.3328 147.745 18.2685 146.681 16.9469 146.681H4.81857V137.125H14.5259C15.8358 137.125 16.9118 136.072 16.9118 134.765C16.9118 133.458 15.8475 132.405 14.5259 132.405H4.81857V122.78H16.9469C18.2568 122.78 19.3328 121.727 19.3328 120.42V120.35C19.3328 119.055 18.2685 117.99 16.9469 117.99V118.013ZM32.3616 118.013C31.0283 118.013 29.9406 119.078 29.9406 120.408V149.076C29.9406 150.394 31.0166 151.47 32.3616 151.47C33.7066 151.47 34.7826 150.406 34.7826 149.076V120.408C34.7826 119.089 33.7066 118.013 32.3616 118.013ZM73.2961 118.013H58.7351C57.4252 118.013 56.3492 119.066 56.3492 120.373V149.11C56.3492 150.406 57.4135 151.47 58.7351 151.47H73.2961C74.606 151.47 75.682 150.418 75.682 149.11V149.041C75.682 147.745 74.6177 146.681 73.2961 146.681H61.1795V137.125H70.8868C72.1967 137.125 73.2727 136.072 73.2727 134.765C73.2727 133.458 72.2084 132.405 70.8868 132.405H61.1795V122.78H73.2961C74.606 122.78 75.682 121.727 75.682 120.42V120.35C75.682 119.055 74.6177 117.99 73.2961 117.99V118.013ZM112.149 118.013C111.19 118.013 110.313 118.569 109.927 119.436L107.19 125.429H107.166L99.962 141.128C99.7164 141.672 98.9328 141.672 98.6872 141.128L91.4827 125.429H91.4593L88.7226 119.436C88.3249 118.569 87.4594 118.013 86.5004 118.013C84.711 118.013 83.5297 119.853 84.2782 121.449L97.9971 150.626C98.5118 151.725 100.102 151.725 100.629 150.626L114.348 121.449C115.096 119.841 113.915 118.013 112.137 118.013H112.149Z" fill="black"/>
<path d="M171.69 118.014H153.89C152.58 118.014 151.516 119.066 151.516 120.362C151.516 121.658 152.58 122.711 153.89 122.711H160.381C160.381 122.711 160.381 122.734 160.381 122.757V149.122C160.381 150.418 161.445 151.471 162.755 151.471H162.837C164.147 151.471 165.211 150.418 165.211 149.122V122.757C165.211 122.757 165.211 122.734 165.211 122.711H171.702C173.012 122.711 174.076 121.658 174.076 120.362C174.076 119.066 173.012 118.014 171.702 118.014H171.69Z" fill="black"/>
<path d="M198.626 122.791C199.935 122.791 201.011 121.739 201.011 120.431V120.362C201.011 119.066 199.947 118.002 198.626 118.002H184.065C182.755 118.002 181.679 119.055 181.679 120.362V120.431C181.679 120.593 181.69 120.755 181.726 120.906C181.702 121.056 181.679 121.218 181.679 121.38V148.104C181.679 148.266 181.702 148.416 181.726 148.567C181.69 148.717 181.679 148.868 181.679 149.03V149.11C181.679 150.406 182.743 151.471 184.065 151.471H198.626C199.935 151.471 201.011 150.418 201.011 149.11V149.041C201.011 147.745 199.947 146.681 198.626 146.681H186.509V137.125H196.216C197.526 137.125 198.602 136.072 198.602 134.765C198.602 133.458 197.538 132.405 196.216 132.405H186.509V122.78H198.626V122.791Z" fill="black"/>
<path d="M137.376 46.0439C137.446 45.8125 137.54 45.5927 137.68 45.3613C137.949 44.9101 138.335 44.4474 138.861 43.9962C139.013 43.8574 139.177 43.7417 139.341 43.6144C140.136 42.9781 141.002 42.4228 141.738 41.7287C142.042 41.451 142.276 41.1618 142.475 40.8842C142.604 40.6875 142.709 40.514 142.791 40.3404L142.814 40.3057C142.896 40.1438 142.955 39.9702 142.99 39.8083C142.99 39.7851 142.99 39.762 143.002 39.7273C143.037 39.5769 143.048 39.4149 143.048 39.2645C143.048 39.2183 143.048 39.1836 143.037 39.1373C143.025 38.9985 143.013 38.8596 142.966 38.7208C142.943 38.663 142.92 38.5936 142.896 38.5357C142.849 38.42 142.803 38.2928 142.744 38.1771C142.697 38.0845 142.616 37.9804 142.557 37.8879C142.499 37.7953 142.44 37.7028 142.37 37.6218C142.218 37.4367 142.042 37.24 141.832 37.0433C141.294 36.5459 140.744 36.06 140.171 35.5972C139.727 35.2386 139.271 34.8915 138.815 34.556C138.335 34.209 137.844 33.8735 137.341 33.5496C136.768 33.1909 136.241 32.8091 135.715 32.4158C135.551 32.3001 135.399 32.1729 135.247 32.0456C134.885 31.7564 134.534 31.4556 134.195 31.1548C134.043 31.016 133.891 30.8772 133.75 30.7383C133.364 30.3681 132.99 29.9748 132.639 29.5814C132.581 29.512 132.511 29.4542 132.452 29.3848C132.054 28.922 131.692 28.4477 131.341 27.9618C131.224 27.7883 131.107 27.6148 130.99 27.4412C130.756 27.0942 130.534 26.7471 130.324 26.3885C130.207 26.1918 130.09 25.9951 129.984 25.7984C129.762 25.3935 129.563 24.9886 129.365 24.5606C129.294 24.4102 129.224 24.2714 129.154 24.121C128.604 22.8715 128.16 21.5527 127.809 20.1644C127.446 18.7299 127.06 17.2954 126.651 15.8608C125.283 11.0945 123.166 6.73305 119.236 3.52849L119.189 3.49378C116.406 1.23786 112.921 0 109.318 0H92.9445C91.4241 0 90.1844 1.22629 90.1844 2.73024C90.1844 4.23418 91.4241 5.46048 92.9445 5.46048H112.745C114.359 5.46048 115.739 6.61736 115.996 8.20229V8.28327C116.336 10.2615 114.792 12.0547 112.757 12.0547H74.8047C73.2843 12.0547 72.0445 13.281 72.0445 14.7849C72.0445 16.2889 73.2843 17.5152 74.8047 17.5152H112.804C114.815 17.5152 116.359 19.2852 116.055 21.2519V21.3445C115.798 22.9294 114.418 24.0978 112.792 24.0978H58.349C56.8286 24.0978 55.5889 25.3241 55.5889 26.8281C55.5889 28.332 56.8286 29.5583 58.349 29.5583H108.125C109.236 29.5583 110.16 30.0789 110.745 30.8424C110.909 31.0623 111.049 31.2936 111.166 31.5481C111.225 31.6754 111.271 31.8027 111.307 31.9299C111.529 32.7282 111.459 33.6074 110.991 34.4288L110.967 34.4635L110.932 34.5098C110.348 35.5163 109.26 36.141 108.09 36.141H85.9856C84.4652 36.141 83.2255 37.3673 83.2255 38.8712C83.2255 39.0447 83.2489 39.2067 83.2723 39.3687C83.2723 39.4265 83.2957 39.4843 83.3191 39.5306C83.3424 39.6347 83.3775 39.7273 83.4126 39.8314C83.436 39.9008 83.4594 39.9587 83.4945 40.0281C83.5296 40.1091 83.5764 40.1785 83.6114 40.2479C83.6582 40.3173 83.6933 40.3867 83.7401 40.4561C83.7635 40.4908 83.7869 40.514 83.8103 40.5371C84.0442 40.8379 84.3366 41.0808 84.6757 41.2659H84.6991C84.9447 41.4048 85.2137 41.5089 85.4944 41.5552C85.6465 41.5899 85.7985 41.6014 85.9623 41.6014H96.6637C97.038 41.6014 97.3888 41.6593 97.7163 41.7634C99.9618 42.4922 100.827 45.477 98.9209 47.247C98.9209 47.247 98.9092 47.2586 98.8975 47.2702L98.8274 47.3396C98.3713 47.7561 97.8099 48.0221 97.2134 48.1378C97.0146 48.1725 96.804 48.1957 96.6052 48.1957H67.1207C65.6003 48.1957 64.3605 49.422 64.3605 50.9259C64.3605 51.111 64.3839 51.2961 64.419 51.4812C64.6763 52.7191 65.7874 53.6561 67.1207 53.6561H86.2546C86.7459 53.6561 87.2137 53.7603 87.623 53.9454C88.4417 54.304 89.0499 54.9866 89.3657 55.7848C89.4709 56.0509 89.5411 56.3285 89.5645 56.6178C89.6464 57.335 89.4826 58.087 89.0265 58.7696L88.9797 58.839C88.7224 59.2207 88.3949 59.5215 88.0207 59.7645C87.5061 60.0884 86.9096 60.2735 86.2897 60.2735H74.8164C73.296 60.2735 72.0562 61.4998 72.0562 63.0037C72.0562 64.5077 73.296 65.734 74.8164 65.734H80.3133C80.3133 65.734 80.3835 65.734 80.4069 65.734H80.4536C81.2723 65.7687 82.0092 66.1042 82.5472 66.6016C82.6407 66.6826 82.7226 66.7752 82.7928 66.8677L82.8161 66.8909C82.8863 66.9718 82.9565 67.0644 83.0267 67.1569C83.0267 67.1685 83.0501 67.1917 83.0618 67.2032C83.1202 67.2842 83.1787 67.3768 83.2255 67.4693C83.2372 67.4924 83.2489 67.5271 83.2606 67.5503C83.3074 67.6313 83.3424 67.7122 83.3775 67.8048C83.3892 67.8395 83.4009 67.8858 83.4126 67.9205C83.436 68.0015 83.4711 68.0709 83.4828 68.1519C83.4945 68.1981 83.5062 68.256 83.5179 68.3023C83.5296 68.3717 83.553 68.4411 83.5647 68.5221C83.5647 68.5799 83.5647 68.6493 83.5764 68.7072C83.5881 68.765 83.5881 68.8344 83.5881 68.8923C83.5881 68.9617 83.5881 69.0427 83.5881 69.1121C83.5881 69.1699 83.5881 69.2162 83.5881 69.274C83.5881 69.3666 83.5647 69.4591 83.5413 69.5517C83.5413 69.5864 83.5413 69.6327 83.5179 69.6674C83.4828 69.7946 83.4477 69.9335 83.4009 70.0607V70.0954L83.3658 70.1417C83.0734 70.9515 82.477 71.5878 81.7285 71.958C81.5764 72.0274 81.4244 72.0968 81.2606 72.1431C80.9449 72.2472 80.6057 72.2935 80.2548 72.2935H63.3313C61.8109 72.2935 60.5712 73.5198 60.5712 75.0237C60.5712 76.5277 61.8109 77.754 63.3313 77.754H77.9625C78.8981 77.754 79.7285 78.1357 80.325 78.7373C80.9215 79.3389 81.2723 80.1834 81.2489 81.1089V81.1899C81.2256 81.7684 81.0501 82.3005 80.7694 82.7633C80.6759 82.9137 80.5823 83.0409 80.477 83.1682C79.8689 83.8739 78.98 84.3366 77.9742 84.3366H74.8164C73.296 84.3366 72.0562 85.5629 72.0562 87.0669C72.0562 87.252 72.0796 87.4371 72.1147 87.6222C72.372 88.86 73.4831 89.7971 74.8164 89.7971C75.3427 89.7971 75.8573 89.8318 76.3719 89.9128C77.1321 90.0285 77.8806 90.2136 78.5824 90.4912C79.0502 90.6648 79.5063 90.8846 79.9507 91.1275C80.3952 91.3705 80.8162 91.6481 81.2139 91.9489C81.4127 92.0993 81.6115 92.2613 81.7986 92.4232C82.1729 92.7587 82.5238 93.1174 82.8512 93.4991C83.015 93.6958 83.167 93.8925 83.3191 94.0891C83.7635 94.7023 84.1494 95.3733 84.4652 96.079C84.664 96.5302 84.8512 96.9698 85.05 97.3978C86.0792 99.6769 87.085 101.644 87.5178 102.072C87.5762 101.898 87.6464 101.736 87.6932 101.574C87.7517 101.412 87.7985 101.262 87.8452 101.111C88.0675 100.371 88.3131 99.6537 88.5821 98.948C90.43 94.0313 93.1901 90.0401 96.6988 86.8471C98.2075 85.4704 99.8449 84.2556 101.623 83.1566C102.511 82.6013 103.447 82.1039 104.406 81.618C106.617 80.5074 108.979 79.5471 111.494 78.7605C113.482 78.1357 115.505 77.7424 117.552 77.4763C117.727 77.4532 117.903 77.4301 118.09 77.4069C120.148 77.164 122.23 77.0599 124.312 77.0251H124.394C125.844 77.002 127.294 77.002 128.745 77.0136C128.745 77.0136 128.815 77.0136 128.862 77.0136C131.236 77.0136 133.704 76.6549 135.961 75.9608C138.078 75.313 139.259 73.7859 139.399 71.8655C139.446 71.2292 139.376 70.535 139.2 69.8293C138.92 68.7303 138.405 67.6775 137.879 66.6479C137.762 66.4165 137.633 66.1852 137.516 65.9538C137.47 65.8728 137.446 65.8034 137.399 65.7224C137.271 65.4679 137.165 65.2481 137.072 65.0283C137.072 65.0051 137.06 64.982 137.048 64.9704C136.967 64.7738 136.896 64.5887 136.85 64.4151C136.85 64.392 136.85 64.3689 136.838 64.3457C136.791 64.1838 136.756 64.0218 136.744 63.8714C136.744 63.8483 136.744 63.8367 136.744 63.8136C136.744 63.6632 136.744 63.5128 136.768 63.3739C136.768 63.3624 136.768 63.3508 136.779 63.3392C136.815 63.2004 136.861 63.05 136.932 62.9112V62.8881C137.025 62.7492 137.119 62.5988 137.236 62.4484C137.247 62.4369 137.271 62.4137 137.282 62.4022C137.399 62.2633 137.54 62.1245 137.692 61.9741C137.855 61.8237 138.043 61.6618 138.241 61.4998C138.265 61.4767 138.277 61.4651 138.312 61.442C138.651 61.1759 138.943 60.9214 139.2 60.69C139.224 60.6668 139.247 60.6553 139.259 60.6321C141.142 58.8968 140.896 58.0176 138.592 55.8658C138.779 55.7038 138.967 55.5419 139.154 55.3799C139.528 55.056 139.902 54.7436 140.253 54.4081C141.119 53.5867 141.528 52.9736 141.504 52.3836C141.504 52.2332 141.458 52.0944 141.399 51.944C141.212 51.5043 140.768 51.0532 140.078 50.5326C139.645 50.2086 139.189 49.8963 138.791 49.5261C137.996 48.7972 137.528 48.08 137.364 47.3627C137.271 46.9347 137.271 46.5066 137.399 46.0786L137.376 46.0439Z" fill="url(#paint0_linear_2233_2549)"/>
<path d="M9.09936 161.871H8.83036C8.66662 161.871 8.57306 161.929 8.54967 162.056L7.07602 169.182L5.50882 164.092C5.48543 164.011 5.43864 163.953 5.38017 163.895C5.32169 163.837 5.22812 163.803 5.11117 163.803H4.83048C4.72521 163.803 4.63165 163.837 4.57317 163.895C4.51469 163.953 4.46791 164.023 4.44452 164.092L2.87732 169.182L1.40367 162.056C1.38028 161.929 1.28672 161.871 1.12298 161.871H0.853982C0.783809 161.871 0.725331 161.894 0.678549 161.94C0.631766 161.986 0.59668 162.044 0.59668 162.114C0.59668 162.114 0.59668 162.137 0.59668 162.171C0.59668 162.206 0.59668 162.229 0.620071 162.264L2.35101 170.316C2.37441 170.42 2.42119 170.501 2.46797 170.547C2.52645 170.594 2.59662 170.617 2.70188 170.617H2.88901C2.99427 170.617 3.07614 170.594 3.13462 170.547C3.1931 170.501 3.25157 170.42 3.27496 170.316L4.95913 165.041L6.64329 170.316C6.67837 170.42 6.72516 170.489 6.78363 170.547C6.84211 170.594 6.92398 170.617 7.02924 170.617H7.21637C7.32163 170.617 7.3918 170.594 7.45028 170.547C7.50876 170.501 7.54385 170.42 7.56724 170.316L9.29818 162.264C9.29818 162.264 9.30988 162.195 9.32157 162.171C9.33327 162.148 9.32157 162.125 9.32157 162.114C9.32157 162.044 9.29818 161.986 9.2397 161.94C9.18123 161.894 9.13444 161.871 9.06427 161.871H9.09936ZM17.5669 165.388C17.3564 164.96 17.0406 164.624 16.6313 164.37C16.222 164.127 15.719 163.999 15.1109 163.999C14.5027 163.999 13.9998 164.127 13.5905 164.37C13.1811 164.624 12.8653 164.96 12.6548 165.388C12.4443 165.816 12.3273 166.302 12.3039 166.845C12.3039 166.973 12.2922 167.146 12.2922 167.366C12.2922 167.586 12.2922 167.771 12.3039 167.898C12.3156 168.43 12.4326 168.916 12.6548 169.344C12.8653 169.784 13.1811 170.119 13.5905 170.374C13.9998 170.628 14.5027 170.744 15.1109 170.744C15.719 170.744 16.222 170.617 16.6313 170.374C17.0406 170.119 17.3564 169.784 17.5669 169.344C17.7775 168.916 17.8944 168.43 17.9178 167.898C17.9178 167.771 17.9295 167.597 17.9295 167.366C17.9295 167.135 17.9295 166.961 17.9178 166.845C17.9061 166.302 17.7892 165.816 17.5669 165.388ZM17.1459 167.829C17.1225 168.534 16.9237 169.078 16.5494 169.448C16.1752 169.818 15.6957 170.015 15.1109 170.015C14.5261 170.015 14.0349 169.83 13.6723 169.448C13.2981 169.078 13.0992 168.534 13.0759 167.829C13.0759 167.701 13.0642 167.551 13.0642 167.366C13.0642 167.181 13.0642 167.03 13.0759 166.903C13.0992 166.186 13.2981 165.642 13.6723 165.272C14.0466 164.902 14.5261 164.717 15.1109 164.717C15.6957 164.717 16.1869 164.902 16.5494 165.272C16.9237 165.642 17.1225 166.186 17.1459 166.903C17.1459 167.03 17.1576 167.181 17.1576 167.366C17.1576 167.551 17.1576 167.701 17.1459 167.829ZM29.5081 164.3C29.1456 164.092 28.7479 163.988 28.3035 163.988C27.8123 163.988 27.3795 164.092 27.0053 164.312C26.631 164.532 26.3503 164.809 26.1515 165.168C25.7421 164.381 25.0755 163.988 24.1282 163.988C23.7188 163.988 23.3679 164.057 23.0756 164.208C22.7832 164.358 22.5376 164.555 22.327 164.832V164.393C22.327 164.312 22.3037 164.242 22.2569 164.196C22.2101 164.15 22.1399 164.127 22.058 164.127H21.8475C21.7657 164.127 21.6955 164.15 21.6487 164.196C21.6019 164.242 21.5668 164.312 21.5668 164.393V170.339C21.5668 170.42 21.5902 170.489 21.6487 170.536C21.6955 170.582 21.7657 170.605 21.8475 170.605H22.058C22.1399 170.605 22.2101 170.582 22.2569 170.536C22.3037 170.489 22.327 170.42 22.327 170.339V166.811C22.327 166.267 22.4089 165.85 22.5843 165.538C22.7598 165.237 22.9703 165.017 23.2393 164.89C23.4966 164.763 23.7539 164.705 24.0112 164.705C24.3036 164.705 24.5726 164.763 24.8299 164.89C25.0872 165.017 25.3094 165.226 25.4732 165.538C25.6369 165.839 25.7305 166.267 25.7305 166.822V170.339C25.7305 170.42 25.7538 170.489 25.8006 170.536C25.8474 170.582 25.9176 170.605 25.9995 170.605H26.21C26.2918 170.605 26.362 170.582 26.4088 170.536C26.4556 170.489 26.479 170.42 26.479 170.339V166.822C26.479 166.278 26.5608 165.85 26.7363 165.538C26.9117 165.237 27.1222 165.017 27.3912 164.89C27.6485 164.763 27.9058 164.705 28.1631 164.705C28.4672 164.705 28.7479 164.763 29.0052 164.89C29.2625 165.017 29.473 165.226 29.6368 165.538C29.8005 165.839 29.8824 166.267 29.8824 166.822V170.339C29.8824 170.42 29.9058 170.489 29.9526 170.536C29.9993 170.582 30.0695 170.605 30.1514 170.605H30.3619C30.4438 170.605 30.5139 170.582 30.5607 170.536C30.6075 170.489 30.6426 170.42 30.6426 170.339V166.706C30.6426 166.105 30.5373 165.607 30.3268 165.203C30.1163 164.798 29.8356 164.497 29.4847 164.3H29.5081ZM38.4903 164.381C38.081 164.127 37.5781 163.988 36.9816 163.988C36.4319 163.988 35.9641 164.115 35.5547 164.346C35.1454 164.578 34.8413 164.925 34.6191 165.365C34.3969 165.804 34.2565 166.302 34.2097 166.868C34.2097 166.996 34.198 167.158 34.198 167.366C34.198 167.574 34.198 167.736 34.2097 167.863C34.2799 168.719 34.5489 169.414 35.0284 169.946C35.5079 170.478 36.1512 170.744 36.9699 170.744C37.3675 170.744 37.7184 170.686 38.0459 170.582C38.3617 170.478 38.6424 170.339 38.8646 170.166C39.0868 170.004 39.2622 169.83 39.3792 169.657C39.4961 169.483 39.5663 169.344 39.578 169.228C39.578 169.148 39.5663 169.09 39.5078 169.043C39.4494 168.997 39.3909 168.974 39.309 168.974H39.1102C39.0166 168.974 38.9464 168.974 38.9114 169.009C38.8763 169.043 38.8061 169.09 38.7359 169.205C38.6891 169.275 38.5956 169.367 38.4552 169.495C38.3149 169.622 38.1161 169.738 37.8821 169.853C37.6482 169.969 37.3442 170.015 36.9816 170.015C36.5722 170.015 36.2331 169.911 35.929 169.691C35.6366 169.483 35.4027 169.205 35.2506 168.87C35.0986 168.534 35.005 168.176 34.9816 167.806V167.678H39.4844C39.5663 167.678 39.6365 167.655 39.695 167.597C39.7534 167.551 39.7768 167.482 39.7768 167.401V167.216C39.7768 166.545 39.6716 165.978 39.4377 165.492C39.2154 165.006 38.8997 164.636 38.4786 164.381H38.4903ZM39.0049 166.984H34.9816V166.938C34.9816 166.521 35.0635 166.14 35.2156 165.816C35.3676 165.48 35.6015 165.214 35.8939 165.017C36.198 164.821 36.5489 164.728 36.9699 164.728C37.3909 164.728 37.7535 164.832 38.0576 165.017C38.3617 165.214 38.5956 165.48 38.7476 165.816C38.9114 166.151 38.9932 166.521 38.9932 166.938V166.984H39.0049ZM47.6713 164.37C47.2854 164.127 46.8059 163.999 46.2328 163.999C45.6948 163.999 45.2621 164.092 44.9346 164.277C44.6071 164.462 44.3381 164.694 44.1042 164.994V164.404C44.1042 164.323 44.0808 164.254 44.034 164.208C43.9872 164.161 43.9171 164.138 43.8352 164.138H43.6247C43.5428 164.138 43.4726 164.161 43.4258 164.208C43.3791 164.254 43.344 164.323 43.344 164.404V170.351C43.344 170.432 43.3674 170.501 43.4258 170.547C43.4726 170.594 43.5428 170.617 43.6247 170.617H43.8352C43.9171 170.617 43.9872 170.594 44.034 170.547C44.0808 170.501 44.1042 170.432 44.1042 170.351V166.857C44.1042 166.186 44.2913 165.665 44.6539 165.284C45.0164 164.902 45.5077 164.717 46.1041 164.717C46.7357 164.717 47.2152 164.902 47.5427 165.284C47.8702 165.665 48.0339 166.186 48.0339 166.857V170.351C48.0339 170.432 48.0573 170.501 48.1041 170.547C48.1509 170.594 48.221 170.617 48.3029 170.617H48.5134C48.5953 170.617 48.6655 170.594 48.7122 170.547C48.759 170.501 48.7941 170.432 48.7941 170.351V166.799C48.7941 166.267 48.7006 165.793 48.5134 165.365C48.3263 164.948 48.0339 164.613 47.648 164.37H47.6713ZM63.32 169.876H58.8055V166.568H62.9341C63.0276 166.568 63.0978 166.545 63.1446 166.487C63.1914 166.44 63.2147 166.371 63.2147 166.29V166.105C63.2147 166.012 63.1914 165.943 63.1446 165.897C63.0978 165.85 63.0276 165.827 62.9341 165.827H58.8055V162.634H63.2147C63.3083 162.634 63.3785 162.611 63.4253 162.565C63.472 162.519 63.5071 162.449 63.5071 162.368V162.183C63.5071 162.091 63.4837 162.021 63.4253 161.975C63.3785 161.929 63.3083 161.905 63.2147 161.905H58.2909C58.209 161.905 58.1389 161.929 58.0921 161.975C58.0453 162.021 58.0102 162.102 58.0102 162.183V170.374C58.0102 170.455 58.0336 170.524 58.0921 170.57C58.1389 170.617 58.209 170.64 58.2909 170.64H63.32C63.4136 170.64 63.4837 170.617 63.5305 170.57C63.5773 170.524 63.6007 170.455 63.6007 170.374V170.189C63.6007 170.096 63.5773 170.027 63.5305 169.98C63.4837 169.934 63.4136 169.911 63.32 169.911V169.876ZM75.1793 164.312C74.8167 164.103 74.4191 163.999 73.9747 163.999C73.4835 163.999 73.0507 164.103 72.6765 164.323C72.3022 164.543 72.0215 164.821 71.8227 165.179C71.4133 164.393 70.7467 163.999 69.7994 163.999C69.39 163.999 69.0391 164.069 68.7467 164.219C68.4544 164.37 68.2088 164.566 67.9982 164.844V164.404C67.9982 164.323 67.9748 164.254 67.9281 164.208C67.8813 164.161 67.8111 164.138 67.7292 164.138H67.5187C67.4369 164.138 67.3667 164.161 67.3199 164.208C67.2731 164.254 67.238 164.323 67.238 164.404V170.351C67.238 170.432 67.2614 170.501 67.3199 170.547C67.3667 170.594 67.4369 170.617 67.5187 170.617H67.7292C67.8111 170.617 67.8813 170.594 67.9281 170.547C67.9748 170.501 67.9982 170.432 67.9982 170.351V166.822C67.9982 166.278 68.0801 165.862 68.2555 165.55C68.431 165.249 68.6415 165.029 68.9105 164.902C69.1678 164.774 69.4251 164.717 69.6824 164.717C69.9748 164.717 70.2438 164.774 70.5011 164.902C70.7584 165.029 70.9806 165.237 71.1443 165.55C71.3081 165.85 71.4016 166.278 71.4016 166.834V170.351C71.4016 170.432 71.425 170.501 71.4718 170.547C71.5186 170.594 71.5888 170.617 71.6706 170.617H71.8812C71.963 170.617 72.0332 170.594 72.08 170.547C72.1268 170.501 72.1502 170.432 72.1502 170.351V166.834C72.1502 166.29 72.232 165.862 72.4075 165.55C72.5829 165.249 72.7934 165.029 73.0624 164.902C73.3197 164.774 73.577 164.717 73.8343 164.717C74.1384 164.717 74.4191 164.774 74.6764 164.902C74.9337 165.029 75.1442 165.237 75.308 165.55C75.4717 165.85 75.5536 166.278 75.5536 166.834V170.351C75.5536 170.432 75.577 170.501 75.6237 170.547C75.6705 170.594 75.7407 170.617 75.8226 170.617H76.0331C76.115 170.617 76.1851 170.594 76.2319 170.547C76.2787 170.501 76.3138 170.432 76.3138 170.351V166.718C76.3138 166.116 76.2085 165.619 75.998 165.214C75.7875 164.809 75.5068 164.508 75.1559 164.312H75.1793ZM85.6585 165.897C85.5533 165.55 85.4012 165.226 85.1907 164.948C84.9802 164.67 84.7112 164.439 84.372 164.265C84.0329 164.092 83.6235 164.011 83.1206 164.011C82.6177 164.011 82.1616 164.103 81.8224 164.289C81.4832 164.474 81.2025 164.717 80.992 164.994V164.404C80.992 164.323 80.9686 164.254 80.9218 164.208C80.8751 164.161 80.8049 164.138 80.723 164.138H80.5125C80.4306 164.138 80.3604 164.161 80.3137 164.208C80.2669 164.254 80.2318 164.323 80.2318 164.404V172.734C80.2318 172.815 80.2552 172.884 80.3137 172.93C80.3721 172.977 80.4306 173 80.5125 173H80.723C80.8049 173 80.8751 172.977 80.9218 172.93C80.9686 172.884 80.992 172.815 80.992 172.734V169.772C81.2025 170.05 81.4832 170.281 81.8224 170.478C82.1616 170.675 82.5943 170.767 83.1206 170.767C83.6469 170.767 84.0329 170.686 84.372 170.513C84.7112 170.339 84.9802 170.119 85.1907 169.83C85.4012 169.552 85.5533 169.228 85.6585 168.881C85.7638 168.534 85.8106 168.176 85.8223 167.806C85.8223 167.678 85.834 167.539 85.834 167.389C85.834 167.239 85.834 167.1 85.8223 166.973C85.8223 166.602 85.7638 166.244 85.6585 165.897ZM85.0504 167.736C85.0387 168.141 84.9568 168.511 84.8399 168.858C84.7112 169.205 84.5124 169.495 84.22 169.703C83.9276 169.911 83.5416 170.027 83.0504 170.027C82.5826 170.027 82.2083 169.923 81.9043 169.703C81.6002 169.483 81.378 169.217 81.2376 168.893C81.0973 168.569 81.0154 168.234 81.0037 167.91C81.0037 167.782 80.992 167.62 80.992 167.424C80.992 167.227 80.992 167.065 81.0037 166.938C81.0154 166.602 81.0973 166.255 81.2376 165.92C81.378 165.584 81.5885 165.295 81.8926 165.075C82.185 164.844 82.5709 164.74 83.0504 164.74C83.5299 164.74 83.9393 164.844 84.22 165.064C84.5007 165.284 84.7112 165.561 84.8399 165.908C84.9685 166.255 85.0387 166.637 85.0504 167.03C85.0504 167.262 85.0504 167.493 85.0504 167.736ZM94.4068 165.399C94.1963 164.971 93.8805 164.636 93.4712 164.381C93.0618 164.138 92.5589 164.011 91.9508 164.011C91.3426 164.011 90.8397 164.138 90.4303 164.381C90.021 164.636 89.7052 164.971 89.4947 165.399C89.2842 165.827 89.1672 166.313 89.1438 166.857C89.1438 166.984 89.1321 167.158 89.1321 167.377C89.1321 167.597 89.1321 167.782 89.1438 167.91C89.1555 168.442 89.2725 168.928 89.4947 169.356C89.7052 169.795 90.021 170.131 90.4303 170.385C90.8397 170.64 91.3426 170.756 91.9508 170.756C92.5589 170.756 93.0618 170.628 93.4712 170.385C93.8805 170.131 94.1963 169.795 94.4068 169.356C94.6173 168.928 94.7343 168.442 94.7577 167.91C94.7577 167.782 94.7694 167.609 94.7694 167.377C94.7694 167.146 94.7694 166.973 94.7577 166.857C94.746 166.313 94.629 165.827 94.4068 165.399ZM93.9858 167.84C93.9624 168.546 93.7636 169.09 93.3893 169.46C93.015 169.83 92.5355 170.027 91.9508 170.027C91.366 170.027 90.8748 169.842 90.5122 169.46C90.1379 169.09 89.9391 168.546 89.9157 167.84C89.9157 167.713 89.904 167.563 89.904 167.377C89.904 167.192 89.904 167.042 89.9157 166.915C89.9391 166.197 90.1379 165.654 90.5122 165.284C90.8865 164.913 91.366 164.728 91.9508 164.728C92.5355 164.728 93.0267 164.913 93.3893 165.284C93.7636 165.654 93.9624 166.197 93.9858 166.915C93.9858 167.042 93.9975 167.192 93.9975 167.377C93.9975 167.563 93.9975 167.713 93.9858 167.84ZM106.371 164.127H106.126C106.044 164.127 105.974 164.15 105.927 164.196C105.88 164.242 105.857 164.277 105.845 164.312L104.29 169.506L102.629 164.37C102.629 164.37 102.594 164.265 102.535 164.208C102.477 164.15 102.395 164.127 102.29 164.127H102.032C101.927 164.127 101.845 164.161 101.787 164.208C101.74 164.265 101.705 164.323 101.681 164.37L100.021 169.506L98.4652 164.312C98.4652 164.312 98.4301 164.242 98.3833 164.196C98.3365 164.15 98.2664 164.127 98.1845 164.127H97.9389C97.8687 164.127 97.8102 164.15 97.7634 164.196C97.7167 164.242 97.6933 164.3 97.6933 164.37C97.6933 164.416 97.6933 164.462 97.7167 164.508L99.4944 170.304C99.5412 170.409 99.588 170.489 99.6464 170.547C99.7049 170.594 99.7868 170.617 99.9037 170.617H100.114C100.231 170.617 100.325 170.594 100.395 170.547C100.465 170.501 100.512 170.42 100.547 170.304L102.138 165.376L103.728 170.304C103.763 170.409 103.81 170.489 103.88 170.547C103.95 170.594 104.044 170.617 104.149 170.617H104.36C104.477 170.617 104.57 170.594 104.629 170.547C104.687 170.501 104.734 170.42 104.769 170.304L106.547 164.508C106.547 164.508 106.57 164.416 106.57 164.37C106.57 164.3 106.547 164.242 106.488 164.196C106.442 164.15 106.383 164.127 106.313 164.127H106.371ZM113.845 164.393C113.436 164.138 112.933 163.999 112.336 163.999C111.786 163.999 111.319 164.127 110.909 164.358C110.5 164.589 110.196 164.936 109.974 165.376C109.751 165.816 109.611 166.313 109.564 166.88C109.564 167.007 109.553 167.169 109.553 167.377C109.553 167.586 109.553 167.748 109.564 167.875C109.634 168.731 109.903 169.425 110.383 169.957C110.862 170.489 111.506 170.756 112.324 170.756C112.722 170.756 113.073 170.698 113.4 170.594C113.716 170.489 113.997 170.351 114.219 170.177C114.441 170.015 114.617 169.842 114.734 169.668C114.851 169.495 114.921 169.356 114.933 169.24C114.933 169.159 114.921 169.101 114.862 169.055C114.804 169.009 114.745 168.986 114.664 168.986H114.465C114.371 168.986 114.301 168.986 114.266 169.02C114.231 169.055 114.161 169.101 114.09 169.217C114.044 169.286 113.95 169.379 113.81 169.506C113.669 169.633 113.471 169.749 113.237 169.865C113.003 169.98 112.699 170.027 112.336 170.027C111.927 170.027 111.588 169.923 111.284 169.703C110.991 169.495 110.757 169.217 110.605 168.881C110.453 168.546 110.36 168.187 110.336 167.817V167.69H114.839C114.921 167.69 114.991 167.667 115.049 167.609C115.108 167.563 115.131 167.493 115.131 167.412V167.227C115.131 166.556 115.026 165.989 114.792 165.503C114.57 165.017 114.254 164.647 113.833 164.393H113.845ZM114.359 166.996H110.336V166.949C110.336 166.533 110.418 166.151 110.57 165.827C110.722 165.492 110.956 165.226 111.248 165.029C111.553 164.832 111.903 164.74 112.324 164.74C112.745 164.74 113.108 164.844 113.412 165.029C113.716 165.226 113.95 165.492 114.102 165.827C114.266 166.163 114.348 166.533 114.348 166.949V166.996H114.359ZM121.657 164.138H121.19C120.769 164.138 120.418 164.208 120.125 164.346C119.833 164.485 119.622 164.705 119.47 164.994V164.416C119.47 164.335 119.447 164.265 119.389 164.208C119.33 164.15 119.26 164.127 119.178 164.127H118.979C118.897 164.127 118.827 164.15 118.78 164.208C118.734 164.265 118.699 164.335 118.699 164.416V170.351C118.699 170.432 118.722 170.501 118.78 170.547C118.827 170.594 118.897 170.617 118.979 170.617H119.178C119.26 170.617 119.33 170.594 119.389 170.547C119.447 170.501 119.47 170.432 119.47 170.351V166.475C119.47 165.978 119.622 165.573 119.915 165.284C120.207 164.994 120.605 164.844 121.119 164.844H121.657C121.739 164.844 121.81 164.821 121.856 164.763C121.903 164.717 121.926 164.647 121.926 164.566V164.393C121.926 164.312 121.903 164.242 121.856 164.196C121.81 164.15 121.739 164.127 121.657 164.127V164.138ZM132.955 164.323C132.593 164.115 132.195 164.011 131.751 164.011C131.26 164.011 130.827 164.115 130.453 164.335C130.078 164.555 129.798 164.832 129.599 165.191C129.189 164.404 128.523 164.011 127.575 164.011C127.166 164.011 126.815 164.08 126.523 164.231C126.23 164.381 125.985 164.578 125.774 164.855V164.416C125.774 164.335 125.751 164.265 125.704 164.219C125.657 164.173 125.587 164.15 125.505 164.15H125.295C125.213 164.15 125.143 164.173 125.096 164.219C125.049 164.265 125.014 164.335 125.014 164.416V170.362C125.014 170.443 125.038 170.513 125.096 170.559C125.143 170.605 125.213 170.628 125.295 170.628H125.505C125.587 170.628 125.657 170.605 125.704 170.559C125.751 170.513 125.774 170.443 125.774 170.362V166.834C125.774 166.29 125.856 165.874 126.032 165.561C126.207 165.26 126.418 165.041 126.687 164.913C126.944 164.786 127.201 164.728 127.459 164.728C127.751 164.728 128.02 164.786 128.277 164.913C128.534 165.041 128.757 165.249 128.92 165.561C129.084 165.862 129.178 166.29 129.178 166.845V170.362C129.178 170.443 129.201 170.513 129.248 170.559C129.295 170.605 129.365 170.628 129.447 170.628H129.657C129.739 170.628 129.809 170.605 129.856 170.559C129.903 170.513 129.926 170.443 129.926 170.362V166.845C129.926 166.302 130.008 165.874 130.184 165.561C130.359 165.26 130.57 165.041 130.839 164.913C131.096 164.786 131.353 164.728 131.61 164.728C131.915 164.728 132.195 164.786 132.452 164.913C132.71 165.041 132.92 165.249 133.084 165.561C133.248 165.862 133.33 166.29 133.33 166.845V170.362C133.33 170.443 133.353 170.513 133.4 170.559C133.447 170.605 133.517 170.628 133.599 170.628H133.809C133.891 170.628 133.961 170.605 134.008 170.559C134.055 170.513 134.09 170.443 134.09 170.362V166.73C134.09 166.128 133.985 165.631 133.774 165.226C133.564 164.821 133.283 164.52 132.932 164.323H132.955ZM141.938 164.404C141.528 164.15 141.025 164.011 140.429 164.011C139.879 164.011 139.411 164.138 139.002 164.37C138.593 164.601 138.289 164.948 138.066 165.388C137.844 165.827 137.704 166.325 137.657 166.892C137.657 167.019 137.645 167.181 137.645 167.389C137.645 167.597 137.645 167.759 137.657 167.886C137.727 168.743 137.996 169.437 138.476 169.969C138.955 170.501 139.598 170.767 140.417 170.767C140.815 170.767 141.166 170.709 141.493 170.605C141.809 170.501 142.09 170.362 142.312 170.189C142.534 170.027 142.71 169.853 142.826 169.68C142.943 169.506 143.014 169.367 143.025 169.252C143.025 169.171 143.014 169.113 142.955 169.067C142.897 169.02 142.838 168.997 142.756 168.997H142.557C142.464 168.997 142.394 168.997 142.359 169.032C142.324 169.067 142.253 169.113 142.183 169.228C142.136 169.298 142.043 169.39 141.903 169.518C141.762 169.645 141.563 169.761 141.329 169.876C141.096 169.992 140.791 170.038 140.429 170.038C140.02 170.038 139.68 169.934 139.376 169.714C139.084 169.506 138.85 169.228 138.698 168.893C138.546 168.557 138.452 168.199 138.429 167.829V167.701H142.932C143.014 167.701 143.084 167.678 143.142 167.62C143.201 167.574 143.224 167.505 143.224 167.424V167.239C143.224 166.568 143.119 166.001 142.885 165.515C142.663 165.029 142.347 164.659 141.926 164.404H141.938ZM142.452 167.007H138.429V166.961C138.429 166.545 138.511 166.163 138.663 165.839C138.815 165.503 139.049 165.237 139.341 165.041C139.645 164.844 139.996 164.751 140.417 164.751C140.838 164.751 141.201 164.855 141.505 165.041C141.809 165.237 142.043 165.503 142.195 165.839C142.359 166.174 142.441 166.545 142.441 166.961V167.007H142.452ZM151.119 164.393C150.733 164.15 150.253 164.023 149.68 164.023C149.142 164.023 148.709 164.115 148.382 164.3C148.054 164.485 147.785 164.717 147.551 165.017V164.427C147.551 164.346 147.528 164.277 147.481 164.231C147.435 164.184 147.364 164.161 147.282 164.161H147.072C146.99 164.161 146.92 164.184 146.873 164.231C146.826 164.277 146.791 164.346 146.791 164.427V170.374C146.791 170.455 146.815 170.524 146.873 170.57C146.92 170.617 146.99 170.64 147.072 170.64H147.282C147.364 170.64 147.435 170.617 147.481 170.57C147.528 170.524 147.551 170.455 147.551 170.374V166.88C147.551 166.209 147.739 165.688 148.101 165.307C148.464 164.925 148.955 164.74 149.551 164.74C150.183 164.74 150.663 164.925 150.99 165.307C151.317 165.688 151.481 166.209 151.481 166.88V170.374C151.481 170.455 151.505 170.524 151.551 170.57C151.598 170.617 151.668 170.64 151.75 170.64H151.961C152.043 170.64 152.113 170.617 152.16 170.57C152.206 170.524 152.241 170.455 152.241 170.374V166.822C152.241 166.29 152.148 165.816 151.961 165.388C151.774 164.971 151.481 164.636 151.095 164.393H151.119ZM159.001 169.923H158.323C157.949 169.923 157.68 169.795 157.54 169.552C157.387 169.298 157.317 168.951 157.317 168.511V164.879H158.885C158.966 164.879 159.037 164.855 159.083 164.798C159.13 164.751 159.153 164.682 159.153 164.601V164.427C159.153 164.346 159.13 164.277 159.083 164.231C159.037 164.184 158.966 164.161 158.885 164.161H157.317V162.056C157.317 161.975 157.294 161.905 157.235 161.859C157.189 161.813 157.118 161.778 157.037 161.778H156.826C156.744 161.778 156.674 161.801 156.627 161.859C156.58 161.905 156.557 161.975 156.557 162.056V164.161H155.575C155.493 164.161 155.423 164.184 155.376 164.231C155.329 164.277 155.294 164.346 155.294 164.427V164.601C155.294 164.682 155.317 164.751 155.376 164.798C155.423 164.844 155.493 164.879 155.575 164.879H156.557V168.569C156.557 168.962 156.604 169.309 156.709 169.633C156.814 169.946 156.99 170.2 157.235 170.385C157.493 170.57 157.832 170.663 158.276 170.663H159.025C159.107 170.663 159.177 170.64 159.224 170.594C159.27 170.547 159.294 170.478 159.294 170.397V170.223C159.294 170.142 159.27 170.073 159.224 170.027C159.177 169.98 159.107 169.957 159.025 169.957L159.001 169.923ZM168.253 161.767H167.773C167.691 161.767 167.621 161.79 167.574 161.848C167.528 161.905 167.504 161.975 167.504 162.056V162.53C167.504 162.611 167.528 162.681 167.574 162.727C167.621 162.773 167.691 162.808 167.773 162.808H168.253C168.335 162.808 168.405 162.785 168.463 162.727C168.522 162.681 168.545 162.611 168.545 162.53V162.056C168.545 161.975 168.522 161.905 168.463 161.848C168.405 161.79 168.335 161.767 168.253 161.767ZM168.124 164.138H167.913C167.832 164.138 167.761 164.161 167.715 164.208C167.668 164.254 167.633 164.323 167.633 164.404V170.351C167.633 170.432 167.656 170.501 167.715 170.547C167.761 170.594 167.832 170.617 167.913 170.617H168.124C168.206 170.617 168.276 170.594 168.323 170.547C168.37 170.501 168.393 170.432 168.393 170.351V164.404C168.393 164.323 168.37 164.254 168.323 164.208C168.276 164.161 168.206 164.138 168.124 164.138ZM176.673 164.381C176.287 164.138 175.808 164.011 175.235 164.011C174.697 164.011 174.264 164.103 173.937 164.289C173.609 164.474 173.34 164.705 173.106 165.006V164.416C173.106 164.335 173.083 164.265 173.036 164.219C172.989 164.173 172.919 164.15 172.837 164.15H172.627C172.545 164.15 172.475 164.173 172.428 164.219C172.381 164.265 172.346 164.335 172.346 164.416V170.362C172.346 170.443 172.369 170.513 172.428 170.559C172.475 170.605 172.545 170.628 172.627 170.628H172.837C172.919 170.628 172.989 170.605 173.036 170.559C173.083 170.513 173.106 170.443 173.106 170.362V166.868C173.106 166.197 173.293 165.677 173.656 165.295C174.019 164.913 174.51 164.728 175.106 164.728C175.738 164.728 176.217 164.913 176.545 165.295C176.872 165.677 177.036 166.197 177.036 166.868V170.362C177.036 170.443 177.059 170.513 177.106 170.559C177.153 170.605 177.223 170.628 177.305 170.628H177.516C177.597 170.628 177.668 170.605 177.714 170.559C177.761 170.513 177.796 170.443 177.796 170.362V166.811C177.796 166.278 177.703 165.804 177.516 165.376C177.328 164.96 177.036 164.624 176.65 164.381H176.673ZM190.521 162.137C190.486 162.056 190.439 161.998 190.392 161.952C190.334 161.905 190.264 161.894 190.158 161.894H189.726C189.62 161.894 189.55 161.917 189.492 161.952C189.433 161.998 189.398 162.056 189.363 162.137L186.17 170.247C186.17 170.247 186.147 170.339 186.147 170.385C186.147 170.455 186.17 170.513 186.217 170.559C186.264 170.605 186.322 170.628 186.392 170.628H186.65C186.732 170.628 186.802 170.605 186.849 170.559C186.895 170.513 186.919 170.478 186.93 170.443L187.714 168.442H192.193L192.977 170.443C192.977 170.443 193.024 170.513 193.071 170.559C193.117 170.605 193.176 170.628 193.258 170.628H193.515C193.585 170.628 193.644 170.605 193.691 170.559C193.737 170.513 193.761 170.455 193.761 170.385C193.761 170.339 193.761 170.293 193.737 170.247L190.544 162.137H190.521ZM188.006 167.701L189.936 162.773L191.866 167.701H187.995H188.006ZM197.854 161.963C197.854 161.963 197.737 161.894 197.655 161.894H197.41C197.328 161.894 197.258 161.917 197.211 161.963C197.164 162.01 197.129 162.079 197.129 162.16V170.362C197.129 170.443 197.152 170.513 197.211 170.559C197.258 170.605 197.328 170.628 197.41 170.628H197.655C197.737 170.628 197.807 170.605 197.854 170.559C197.901 170.513 197.924 170.443 197.924 170.362V162.16C197.924 162.079 197.901 162.01 197.854 161.963Z" fill="black"/>
<path d="M148.686 148.243L134.429 117.794C133.879 116.614 132.184 116.614 131.634 117.794L117.295 148.336C116.547 149.921 117.728 151.748 119.494 151.748C120.441 151.748 121.307 151.193 121.704 150.337L132.184 127.5C132.523 126.771 133.575 126.771 133.903 127.5L144.277 150.233C144.674 151.089 145.528 151.644 146.487 151.644C148.253 151.644 149.435 149.828 148.686 148.243ZM132.991 110.633C135.704 110.633 137.903 108.458 137.903 105.774C137.903 103.09 135.704 100.915 132.991 100.915C130.277 100.915 128.078 103.09 128.078 105.774C128.078 108.458 130.277 110.633 132.991 110.633Z" fill="url(#paint1_linear_2233_2549)"/>
</g>
<defs>
<linearGradient id="paint0_linear_2233_2549" x1="65.2494" y1="81.4444" x2="130.956" y2="15.0176" gradientUnits="userSpaceOnUse">
<stop stop-color="#B72088"/>
<stop offset="0.17" stop-color="#B81F83"/>
<stop offset="0.35" stop-color="#BE1E75"/>
<stop offset="0.55" stop-color="#C81C5F"/>
<stop offset="0.75" stop-color="#D61A3F"/>
<stop offset="0.96" stop-color="#E71717"/>
<stop offset="1" stop-color="#EB170F"/>
</linearGradient>
<linearGradient id="paint1_linear_2233_2549" x1="117.061" y1="126.343" x2="148.908" y2="126.343" gradientUnits="userSpaceOnUse">
<stop stop-color="#B72088"/>
<stop offset="0.17" stop-color="#B81F83"/>
<stop offset="0.35" stop-color="#BE1E75"/>
<stop offset="0.55" stop-color="#C81C5F"/>
<stop offset="0.75" stop-color="#D61A3F"/>
<stop offset="0.96" stop-color="#E71717"/>
<stop offset="1" stop-color="#EB170F"/>
</linearGradient>
<clipPath id="clip0_2233_2549">
<rect width="201" height="173" fill="white"/>
</clipPath>
</defs>
</svg>
