<svg width="17" height="16" viewBox="0 0 17 16" fill="none" xmlns="http://www.w3.org/2000/svg">
<g clip-path="url(#clip0_2670_7308)">
<path d="M15.9531 0.999786C15.9531 0.596662 15.7094 0.231037 15.3344 0.0747866C14.9594 -0.0814634 14.5312 0.00603655 14.2437 0.290412L12.8813 1.65604C11.3813 3.15604 9.34688 3.99979 7.225 3.99979H6.95312H5.95312H2.95312C1.85 3.99979 0.953125 4.89666 0.953125 5.99979V8.99979C0.953125 10.1029 1.85 10.9998 2.95312 10.9998V14.9998C2.95312 15.5529 3.4 15.9998 3.95312 15.9998H5.95312C6.50625 15.9998 6.95312 15.5529 6.95312 14.9998V10.9998H7.225C9.34688 10.9998 11.3813 11.8435 12.8813 13.3435L14.2437 14.706C14.5312 14.9935 14.9594 15.0779 15.3344 14.9217C15.7094 14.7654 15.9531 14.4029 15.9531 13.9967V9.38729C16.5344 9.11229 16.9531 8.37166 16.9531 7.49979C16.9531 6.62791 16.5344 5.88729 15.9531 5.61229V0.999786ZM13.9531 3.39666V7.49979V11.6029C12.1156 9.93104 9.71875 8.99979 7.225 8.99979H6.95312V5.99979H7.225C9.71875 5.99979 12.1156 5.06854 13.9531 3.39666Z" fill="#7E22CE"/>
</g>
<defs>
<clipPath id="clip0_2670_7308">
<path d="M0.953125 0H16.9531V16H0.953125V0Z" fill="white"/>
</clipPath>
</defs>
</svg>
