<svg width="17" height="16" viewBox="0 0 17 16" fill="none" xmlns="http://www.w3.org/2000/svg">
<g clip-path="url(#clip0_2670_7292)">
<path d="M14.9094 0.67832C14.225 -0.0060547 13.1187 -0.0060547 12.4344 0.67832L11.4937 1.61582L14.5531 4.6752L15.4937 3.73457C16.1781 3.0502 16.1781 1.94395 15.4937 1.25957L14.9094 0.67832ZM5.55937 7.55332C5.36875 7.74395 5.22187 7.97832 5.1375 8.2377L4.2125 11.0127C4.12188 11.2814 4.19375 11.5783 4.39375 11.7814C4.59375 11.9846 4.89062 12.0533 5.1625 11.9627L7.9375 11.0377C8.19375 10.9533 8.42812 10.8064 8.62187 10.6158L13.85 5.38457L10.7875 2.32207L5.55937 7.55332ZM3.17188 2.0002C1.51562 2.0002 0.171875 3.34395 0.171875 5.0002V13.0002C0.171875 14.6564 1.51562 16.0002 3.17188 16.0002H11.1719C12.8281 16.0002 14.1719 14.6564 14.1719 13.0002V10.0002C14.1719 9.44707 13.725 9.0002 13.1719 9.0002C12.6187 9.0002 12.1719 9.44707 12.1719 10.0002V13.0002C12.1719 13.5533 11.725 14.0002 11.1719 14.0002H3.17188C2.61875 14.0002 2.17188 13.5533 2.17188 13.0002V5.0002C2.17188 4.44707 2.61875 4.0002 3.17188 4.0002H6.17188C6.725 4.0002 7.17188 3.55332 7.17188 3.0002C7.17188 2.44707 6.725 2.0002 6.17188 2.0002H3.17188Z" fill="#1D4ED8"/>
</g>
<defs>
<clipPath id="clip0_2670_7292">
<path d="M0.171875 0H16.1719V16H0.171875V0Z" fill="white"/>
</clipPath>
</defs>
</svg>
