<svg width="17" height="16" viewBox="0 0 17 16" fill="none" xmlns="http://www.w3.org/2000/svg">
<g clip-path="url(#clip0_2670_7257)">
<path d="M8.03125 16C10.153 16 12.1878 15.1571 13.6881 13.6569C15.1884 12.1566 16.0312 10.1217 16.0312 8C16.0312 5.87827 15.1884 3.84344 13.6881 2.34315C12.1878 0.842855 10.153 0 8.03125 0C5.90952 0 3.87469 0.842855 2.3744 2.34315C0.874105 3.84344 0.03125 5.87827 0.03125 8C0.03125 10.1217 0.874105 12.1566 2.3744 13.6569C3.87469 15.1571 5.90952 16 8.03125 16ZM5.3375 5.16563C5.58437 4.46875 6.24688 4 6.9875 4H8.80937C9.9 4 10.7812 4.88438 10.7812 5.97188C10.7812 6.67813 10.4031 7.33125 9.79062 7.68437L8.78125 8.2625C8.775 8.66875 8.44063 9 8.03125 9C7.61562 9 7.28125 8.66562 7.28125 8.25V7.82812C7.28125 7.55937 7.425 7.3125 7.65938 7.17812L9.04375 6.38438C9.19063 6.3 9.28125 6.14375 9.28125 5.975C9.28125 5.7125 9.06875 5.50313 8.80937 5.50313H6.9875C6.88125 5.50313 6.7875 5.56875 6.75313 5.66875L6.74062 5.70625C6.60313 6.09688 6.17188 6.3 5.78438 6.1625C5.39688 6.025 5.19063 5.59375 5.32812 5.20625L5.34062 5.16875L5.3375 5.16563ZM7.03125 11C7.03125 10.7348 7.13661 10.4804 7.32414 10.2929C7.51168 10.1054 7.76603 10 8.03125 10C8.29647 10 8.55082 10.1054 8.73836 10.2929C8.92589 10.4804 9.03125 10.7348 9.03125 11C9.03125 11.2652 8.92589 11.5196 8.73836 11.7071C8.55082 11.8946 8.29647 12 8.03125 12C7.76603 12 7.51168 11.8946 7.32414 11.7071C7.13661 11.5196 7.03125 11.2652 7.03125 11Z" fill="#C2410C"/>
</g>
<defs>
<clipPath id="clip0_2670_7257">
<path d="M0.03125 0H16.0312V16H0.03125V0Z" fill="white"/>
</clipPath>
</defs>
</svg>
