<svg width="32" height="32" viewBox="0 0 32 32" fill="none" xmlns="http://www.w3.org/2000/svg">
<circle cx="16" cy="16" r="16" fill="white"/>
<path d="M19.3337 13.9999V12.6666C19.3337 10.7999 17.867 9.33325 16.0003 9.33325C14.1337 9.33325 12.667 10.7999 12.667 12.6666V13.9999C11.5337 13.9999 10.667 14.8666 10.667 15.9999V20.6666C10.667 21.7999 11.5337 22.6666 12.667 22.6666H19.3337C20.467 22.6666 21.3337 21.7999 21.3337 20.6666V15.9999C21.3337 14.8666 20.467 13.9999 19.3337 13.9999ZM14.0003 12.6666C14.0003 11.5333 14.867 10.6666 16.0003 10.6666C17.1337 10.6666 18.0003 11.5333 18.0003 12.6666V13.9999H14.0003V12.6666ZM16.667 19.3333C16.667 19.7333 16.4003 19.9999 16.0003 19.9999C15.6003 19.9999 15.3337 19.7333 15.3337 19.3333V17.3333C15.3337 16.9333 15.6003 16.6666 16.0003 16.6666C16.4003 16.6666 16.667 16.9333 16.667 17.3333V19.3333Z" fill="#374557"/>
</svg>
