<svg width="32" height="32" viewBox="0 0 32 32" fill="none" xmlns="http://www.w3.org/2000/svg">
<circle cx="16" cy="16" r="16" fill="white"/>
<path d="M12 21.0001C11.817 21.0001 11.635 20.9501 11.474 20.8511C11.3292 20.7612 11.2096 20.6359 11.1267 20.487C11.0438 20.3381 11.0002 20.1705 11 20.0001V12.0001C11 11.6531 11.18 11.3311 11.474 11.1491C11.6191 11.0598 11.7846 11.009 11.9548 11.0013C12.125 10.9936 12.2944 11.0293 12.447 11.1051L20.447 15.1051C20.6131 15.1883 20.7528 15.316 20.8504 15.4741C20.948 15.6322 20.9997 15.8143 20.9997 16.0001C20.9997 16.1858 20.948 16.368 20.8504 16.526C20.7528 16.6841 20.6131 16.8119 20.447 16.8951L12.447 20.8951C12.307 20.9651 12.152 21.0001 12 21.0001Z" fill="#D8A500"/>
</svg>
