<svg width="32" height="32" viewBox="0 0 32 32" fill="none" xmlns="http://www.w3.org/2000/svg">
<g clip-path="url(#clip0_1061_1120)">
<path d="M23.3846 4H8.61538C6.07046 4 4 6.07046 4 8.61538V23.3846C4 25.9295 6.07046 28 8.61538 28H23.3846C25.9295 28 28 25.9295 28 23.3846V8.61538C28 6.07046 25.9295 4 23.3846 4ZM16.0028 8.45477C18.0391 8.45477 19.6951 10.1108 19.6951 12.1471C19.6951 14.1834 18.0391 15.8394 16.0028 15.8394C13.9665 15.8394 12.3105 14.1834 12.3105 12.1471C12.3105 10.1108 13.9665 8.45477 16.0028 8.45477ZM21.5385 23.8665H10.4615C9.95108 23.8665 9.53846 23.4529 9.53846 22.9434C9.53846 19.3803 12.4378 16.4818 16 16.4818C19.5622 16.4818 22.4615 19.3803 22.4615 22.9434C22.4615 23.4529 22.0489 23.8665 21.5385 23.8665Z" fill="#929292"/>
</g>
<defs>
<clipPath id="clip0_1061_1120">
<rect width="32" height="32" fill="white"/>
</clipPath>
</defs>
</svg>
