<svg width="17" height="16" viewBox="0 0 17 16" fill="none" xmlns="http://www.w3.org/2000/svg">
<g clip-path="url(#clip0_2663_5497)">
<g clip-path="url(#clip1_2663_5497)">
<path d="M2.90625 2C2.90625 1.44687 2.45938 1 1.90625 1C1.35312 1 0.90625 1.44687 0.90625 2V12.5C0.90625 13.8813 2.025 15 3.40625 15H15.9062C16.4594 15 16.9062 14.5531 16.9062 14C16.9062 13.4469 16.4594 13 15.9062 13H3.40625C3.13125 13 2.90625 12.775 2.90625 12.5V2ZM15.6125 4.70625C16.0031 4.31563 16.0031 3.68125 15.6125 3.29063C15.2219 2.9 14.5875 2.9 14.1969 3.29063L10.9062 6.58437L9.1125 4.79063C8.72188 4.4 8.0875 4.4 7.69688 4.79063L4.19688 8.29062C3.80625 8.68125 3.80625 9.31563 4.19688 9.70625C4.5875 10.0969 5.22188 10.0969 5.6125 9.70625L8.40625 6.91563L10.2 8.70938C10.5906 9.1 11.225 9.1 11.6156 8.70938L15.6156 4.70937L15.6125 4.70625Z" fill="#FF8A65"/>
</g>
</g>
<defs>
<clipPath id="clip0_2663_5497">
<rect width="16" height="16" fill="white" transform="translate(0.90625)"/>
</clipPath>
<clipPath id="clip1_2663_5497">
<path d="M0.90625 0H16.9062V16H0.90625V0Z" fill="white"/>
</clipPath>
</defs>
</svg>
