<svg width="65" height="65" viewBox="0 0 65 65" fill="none" xmlns="http://www.w3.org/2000/svg">
<path d="M0 10.7365C0 4.80689 4.8069 0 10.7365 0H53.6824C59.612 0 64.4189 4.8069 64.4189 10.7365V53.6824C64.4189 59.612 59.612 64.4189 53.6824 64.4189H10.7365C4.80689 64.4189 0 59.612 0 53.6824V10.7365Z" fill="#8B5CF6" fill-opacity="0.1"/>
<g clip-path="url(#clip0_2778_2162)">
<path d="M32.2111 41.6038C35.0586 41.6038 37.7895 40.4727 39.8029 38.4592C41.8164 36.4457 42.9476 33.7148 42.9476 30.8673C42.9476 28.0199 41.8164 25.289 39.8029 23.2755C37.7895 21.262 35.0586 20.1309 32.2111 20.1309C29.3636 20.1309 26.6327 21.262 24.6193 23.2755C22.6058 25.289 21.4746 28.0199 21.4746 30.8673C21.4746 33.7148 22.6058 36.4457 24.6193 38.4592C26.6327 40.4727 29.3636 41.6038 32.2111 41.6038ZM28.5959 27.0634C28.9272 26.1282 29.8164 25.4991 30.8103 25.4991H33.2554C34.7191 25.4991 35.9018 26.686 35.9018 28.1455C35.9018 29.0933 35.3943 29.9698 34.5723 30.4438L33.2176 31.2196C33.2093 31.7648 32.7605 32.2094 32.2111 32.2094C31.6533 32.2094 31.2045 31.7607 31.2045 31.2029V30.6367C31.2045 30.276 31.3975 29.9447 31.712 29.7643L33.5699 28.6991C33.767 28.5858 33.8887 28.3761 33.8887 28.1497C33.8887 27.7974 33.6035 27.5164 33.2554 27.5164H30.8103C30.6677 27.5164 30.5419 27.6045 30.4958 27.7387L30.479 27.789C30.2945 28.3132 29.7157 28.5858 29.1957 28.4013C28.6756 28.2168 28.3988 27.638 28.5833 27.118L28.6001 27.0676L28.5959 27.0634ZM30.869 34.8935C30.869 34.5376 31.0104 34.1962 31.2621 33.9445C31.5138 33.6929 31.8552 33.5515 32.2111 33.5515C32.567 33.5515 32.9084 33.6929 33.1601 33.9445C33.4118 34.1962 33.5532 34.5376 33.5532 34.8935C33.5532 35.2495 33.4118 35.5908 33.1601 35.8425C32.9084 36.0942 32.567 36.2356 32.2111 36.2356C31.8552 36.2356 31.5138 36.0942 31.2621 35.8425C31.0104 35.5908 30.869 35.2495 30.869 34.8935Z" fill="#8B5CF6"/>
</g>
<defs>
<clipPath id="clip0_2778_2162">
<path d="M21.4746 20.1309H42.9476V41.6038H21.4746V20.1309Z" fill="white"/>
</clipPath>
</defs>
</svg>
