<svg width="128" height="128" viewBox="0 0 128 128" fill="none" xmlns="http://www.w3.org/2000/svg">
<path d="M64 0C99.3462 0 128 28.6538 128 64C128 99.3462 99.3462 128 64 128C28.6538 128 0 99.3462 0 64C0 28.6538 28.6538 0 64 0Z" fill="url(#paint0_linear_2694_2149)"/>
<path d="M64 0C99.3462 0 128 28.6538 128 64C128 99.3462 99.3462 128 64 128C28.6538 128 0 99.3462 0 64C0 28.6538 28.6538 0 64 0Z" fill="#D8225D"/>
<path d="M64 0C99.3462 0 128 28.6538 128 64C128 99.3462 99.3462 128 64 128C28.6538 128 0 99.3462 0 64C0 28.6538 28.6538 0 64 0Z" stroke="#E5E7EB"/>
<path d="M42.1438 78.7757L56.2696 62.9776L44.3833 48.9274C43.2636 47.5642 42.4166 46.3989 41.8424 45.4314C41.2969 44.442 41.0241 43.4965 41.0241 42.595C41.0241 41.6715 41.5553 40.847 42.6176 40.1214C43.7086 39.3738 45.0293 39 46.5797 39C48.3597 39 49.7379 39.4068 50.714 40.2203C51.7189 41.0119 53.097 42.496 54.8484 44.6728L64.323 56.4142L74.4436 44.6728C75.2762 43.6834 75.9796 42.8369 76.5538 42.1332C77.1568 41.4296 77.731 40.847 78.2765 40.3852C78.822 39.9235 79.4249 39.5827 80.0853 39.3628C80.7743 39.1209 81.5639 39 82.4539 39C84.0617 39 85.3681 39.3738 86.373 40.1214C87.4065 40.847 87.9233 41.7155 87.9233 42.7269C87.9233 44.2001 86.818 46.201 84.6072 48.7296L72.1611 62.9776L85.5547 78.7757C86.7606 80.1609 87.6362 81.3153 88.1817 82.2388C88.7272 83.1403 89 83.9978 89 84.8113C89 85.5809 88.756 86.2845 88.2679 86.9222C87.7798 87.5598 87.0907 88.0655 86.2007 88.4393C85.3106 88.8131 84.3058 89 83.186 89C81.9802 89 80.961 88.8021 80.1283 88.4063C79.2957 88.0325 78.621 87.5598 78.1042 86.9881C77.5874 86.4165 76.6256 85.3061 75.2188 83.657L64.1077 70.2665L52.3075 84.0528C51.3887 85.1522 50.7284 85.9217 50.3264 86.3615C49.9532 86.8012 49.4938 87.23 48.9483 87.6478C48.4028 88.0655 47.7568 88.3953 47.0103 88.6372C46.2639 88.8791 45.3882 89 44.3833 89C42.8329 89 41.5409 88.6372 40.5073 87.9116C39.5024 87.186 39 86.1306 39 84.7454C39 83.1183 40.0479 81.1284 42.1438 78.7757Z" fill="white"/>
<defs>
<linearGradient id="paint0_linear_2694_2149" x1="0" y1="64" x2="128" y2="64" gradientUnits="userSpaceOnUse">
<stop stop-color="#10B981"/>
<stop offset="1" stop-color="#16A34A"/>
</linearGradient>
</defs>
</svg>
