<svg width="9" height="12" viewBox="0 0 9 12" fill="none" xmlns="http://www.w3.org/2000/svg">
<path d="M1.92857 5.33333H7.07143V4H1.92857V5.33333ZM7.71429 6V10H9V6H7.71429ZM7.07143 10.6667H1.92857V12H7.07143V10.6667ZM1.28571 10V6H0V10H1.28571ZM1.92857 10.6667C1.57353 10.6667 1.28571 10.3681 1.28571 10H0C0 11.1045 0.863447 12 1.92857 12V10.6667ZM7.71429 10C7.71429 10.3681 7.42647 10.6667 7.07143 10.6667V12C8.13651 12 9 11.1045 9 10H7.71429ZM7.07143 5.33333C7.42647 5.33333 7.71429 5.63181 7.71429 6H9C9 4.89543 8.13651 4 7.07143 4V5.33333ZM1.92857 4C0.863447 4 0 4.89543 0 6H1.28571C1.28571 5.63181 1.57353 5.33333 1.92857 5.33333V4ZM2.57143 4.66667V3.33333H1.28571V4.66667H2.57143ZM6.42857 3.33333V4.66667H7.71429V3.33333H6.42857ZM4.5 1.33333C5.56512 1.33333 6.42857 2.22876 6.42857 3.33333H7.71429C7.71429 1.49239 6.2752 0 4.5 0V1.33333ZM2.57143 3.33333C2.57143 2.22876 3.43488 1.33333 4.5 1.33333V0C2.7248 0 1.28571 1.49239 1.28571 3.33333H2.57143Z" fill="#FC6B57"/>
</svg>
