<svg width="25" height="25" viewBox="0 0 25 25" fill="none" xmlns="http://www.w3.org/2000/svg">
<path d="M21 0C23.2091 0 25 1.79086 25 4V21C25 23.2091 23.2091 25 21 25H4C1.79086 25 0 23.2091 0 21V4C2.57706e-07 1.79086 1.79086 0 4 0H21ZM14.9248 4.89453C14.6458 4.71516 14.3067 4.65308 13.9824 4.72266V4.72363L8.2832 5.83789C8.23431 5.84529 8.18714 5.86289 8.14551 5.88965C8.10363 5.91662 8.06808 5.95236 8.04102 5.99414L5.80371 9.22266C5.76334 9.2657 5.73198 9.31671 5.71387 9.37305C5.69384 9.43544 5.68948 9.50193 5.70117 9.56641L5.70215 9.56836L7.4043 18.1982V18.1992C7.4728 18.5262 7.66867 18.8133 7.94824 18.9961C8.22778 19.1787 8.56865 19.2431 8.89551 19.1748L8.89453 19.1738L13.7119 18.2441L13.7129 18.2432C13.762 18.233 13.8091 18.2137 13.8506 18.1855C13.8922 18.1572 13.9284 18.1202 13.9561 18.0781C13.9835 18.0361 14.0023 17.9888 14.0117 17.9395C14.0211 17.8901 14.0209 17.8392 14.0107 17.79C14.0005 17.7408 13.9804 17.6939 13.9521 17.6523C13.9381 17.6317 13.922 17.6122 13.9043 17.5947L13.8457 17.5469C13.8037 17.5194 13.7563 17.5007 13.707 17.4912C13.6824 17.4865 13.6568 17.4842 13.6318 17.4844L13.5566 17.4922L8.74121 18.4238H8.73926C8.67728 18.4364 8.61286 18.4369 8.55078 18.4248C8.48869 18.4126 8.42962 18.3876 8.37695 18.3525C8.32418 18.3173 8.27835 18.2715 8.24316 18.2188C8.22577 18.1926 8.21115 18.1647 8.19922 18.1357L8.17188 18.0449L6.54102 9.79102L8.02832 9.5H8.0293C8.35523 9.43441 8.64242 9.24257 8.82812 8.9668C8.99054 8.72555 9.0636 8.43662 9.03809 8.14941L9.02148 8.02637V8.02539L8.72949 6.53809L14.1387 5.47852H14.1416C14.2027 5.46461 14.2664 5.46283 14.3281 5.47363C14.3898 5.48448 14.4493 5.50714 14.502 5.54102C14.5546 5.57492 14.6003 5.61925 14.6357 5.6709C14.6534 5.69667 14.6685 5.72432 14.6807 5.75293L14.708 5.84277C14.9287 6.96234 15.1498 8.08575 15.3701 9.20898C15.5839 10.2988 15.7966 11.389 16.0107 12.4756C15.3676 12.5838 14.7506 12.8139 14.1953 13.1572L14.1855 13.165C13.868 13.4156 13.617 13.6933 13.4775 14.0205C13.337 14.3501 13.3129 14.7213 13.4326 15.1484L13.4336 15.1494C13.8207 16.4921 14.5158 17.7264 15.4639 18.7529L15.4658 18.7549C15.6331 18.9271 15.8336 19.0637 16.0547 19.1572C16.2759 19.2507 16.5138 19.2988 16.7539 19.2988C16.9942 19.2988 17.2328 19.2508 17.4541 19.1572C17.6752 19.0637 17.8757 18.9271 18.043 18.7549L18.0439 18.7529C19.0082 17.7287 19.7112 16.4868 20.0928 15.1328V15.1318C20.1936 14.763 20.1725 14.3714 20.0322 14.0156C19.8921 13.6602 19.6404 13.3599 19.3154 13.1592H19.3164C18.5599 12.6771 17.6811 12.4229 16.7852 12.4238L16.6475 11.6904L16.8232 11.7266L16.8262 11.7275C16.9463 11.7484 17.0523 11.7194 17.1328 11.6582C17.2116 11.5982 17.2608 11.5104 17.2793 11.4199C17.2977 11.3296 17.2872 11.23 17.2363 11.1455C17.184 11.0587 17.0939 10.9956 16.9736 10.9746H16.9727L16.4707 10.8584L16.249 9.66211L17.5928 9.91309H17.5938C17.7135 9.93403 17.8187 9.90526 17.8975 9.8418C17.9741 9.77991 18.0187 9.69055 18.0332 9.59961C18.0584 9.44102 17.9925 9.25486 17.8145 9.17383L17.7305 9.14551L17.7266 9.14453L16.0791 8.8418L15.6963 6.86426L19.1436 7.53809L19.1465 7.53906C19.2048 7.54858 19.2616 7.56901 19.3115 7.60059C19.3613 7.63215 19.404 7.67413 19.4375 7.72266C19.4711 7.77131 19.495 7.82686 19.5068 7.88477C19.5126 7.91341 19.5156 7.9426 19.5156 7.97168L19.5068 8.05957V8.06055L18.7383 12.0146C18.7188 12.116 18.7403 12.221 18.7979 12.3066C18.8554 12.3921 18.9448 12.4514 19.0459 12.4717C19.1472 12.4918 19.2528 12.4711 19.3389 12.4141C19.4248 12.357 19.485 12.2681 19.5059 12.167V12.166L20.2744 8.22754L20.2734 8.22656C20.3059 8.06775 20.3069 7.90414 20.2754 7.74512C20.2438 7.58562 20.1809 7.43356 20.0898 7.29883C19.9988 7.16411 19.8813 7.04878 19.7451 6.95996C19.6089 6.87117 19.4559 6.81021 19.2959 6.78125H19.2949L15.541 6.04297L15.4727 5.68359L15.4717 5.68066L15.4395 5.56152C15.3503 5.28778 15.169 5.05164 14.9248 4.89453ZM16.2275 19.1143C16.2228 19.1127 16.2176 19.1119 16.2129 19.1104L16.0938 19.0654C16.1375 19.0839 16.1825 19.0995 16.2275 19.1143ZM17.5303 19.0117L17.415 19.0654C17.4649 19.0443 17.5131 19.0198 17.5605 18.9941C17.5503 18.9997 17.5406 19.0064 17.5303 19.0117ZM15.7646 18.8789C15.7296 18.8537 15.6942 18.8286 15.6611 18.8008L15.6465 18.7871C15.6845 18.8194 15.7242 18.8498 15.7646 18.8789ZM16.7598 13.1875C17.4206 13.1852 18.0702 13.3469 18.6514 13.6553L18.9004 13.8027C19.0891 13.9146 19.2359 14.086 19.3164 14.29C19.3768 14.4433 19.3974 14.6087 19.3779 14.7705L19.3457 14.9307L19.3447 14.9316C18.9983 16.1596 18.3642 17.2875 17.4941 18.2207C17.2953 18.4116 17.0295 18.5185 16.7539 18.5186C16.4791 18.5185 16.2152 18.4115 16.0166 18.2217C15.2598 17.4038 14.6829 16.4384 14.3223 15.3877L14.1807 14.9316L14.1797 14.9287L14.1445 14.7705C14.1229 14.6114 14.142 14.448 14.2012 14.2969C14.2802 14.0953 14.4262 13.9267 14.6143 13.8193L14.6182 13.8174C15.2578 13.409 16.0009 13.1903 16.7598 13.1875ZM16.1611 18.4541C16.148 18.4463 16.1339 18.4399 16.1211 18.4316L16.0303 18.3662C16.0717 18.3989 16.116 18.4275 16.1611 18.4541ZM17.5635 18.293C17.5433 18.3123 17.5214 18.3299 17.5 18.3477L17.5625 18.293C17.6277 18.2231 17.6894 18.1501 17.752 18.0781C17.6895 18.1499 17.6286 18.2233 17.5635 18.293ZM15.0371 18.0928L15.1973 18.2949C15.1426 18.2283 15.0888 18.1609 15.0361 18.0928L14.8818 17.8867C14.9324 17.9562 14.9845 18.0247 15.0371 18.0928ZM18.043 14.4648C17.9674 14.4589 17.8902 14.4771 17.8203 14.5225L17.7529 14.5771L17.751 14.5791L16.4824 15.9102L15.915 15.3438C15.8296 15.2584 15.7266 15.2234 15.626 15.2314C15.5282 15.2393 15.4392 15.2872 15.374 15.3525C15.3089 15.4179 15.2617 15.5066 15.2539 15.6045C15.2459 15.7052 15.2801 15.8088 15.3652 15.8945L15.3662 15.8955L16.0127 16.5332C16.0727 16.5945 16.1446 16.6434 16.2236 16.6768C16.303 16.7102 16.3884 16.7275 16.4746 16.7275C16.561 16.7275 16.647 16.7103 16.7266 16.6768C16.8061 16.6432 16.8782 16.594 16.9385 16.5322L18.3037 15.126L18.3027 15.125C18.3877 15.0399 18.4227 14.9382 18.415 14.8379C18.4075 14.7399 18.3602 14.6513 18.2949 14.5859C18.2296 14.5207 18.1409 14.4727 18.043 14.4648ZM17.8242 14.6484L16.4844 16.0547L17.8242 14.6475L17.875 14.6064C17.8575 14.6178 17.8407 14.632 17.8242 14.6484ZM15.3555 15.666L15.3682 15.7207C15.355 15.6851 15.3508 15.6487 15.3535 15.6133V15.6123C15.3521 15.6301 15.3531 15.648 15.3555 15.666ZM15.7422 15.3457L15.7939 15.373C15.7698 15.3573 15.7447 15.3468 15.7197 15.3398C15.7271 15.3418 15.7349 15.343 15.7422 15.3457ZM12.4307 13.1611L8.69238 13.9131C8.5742 13.9351 8.48834 14.001 8.43945 14.0889C8.39189 14.1744 8.38226 14.275 8.40039 14.3652C8.41858 14.4552 8.46649 14.5436 8.54395 14.6035C8.62417 14.6654 8.73034 14.6919 8.84863 14.6641L8.84766 14.6631L12.584 13.9121H12.585C12.6844 13.8916 12.7722 13.8327 12.8281 13.748C12.884 13.6633 12.9041 13.5594 12.8838 13.46C12.8634 13.3604 12.8035 13.2728 12.7188 13.2168C12.6552 13.1749 12.5809 13.153 12.5059 13.1533L12.4307 13.1611ZM14.0537 14.457C14.0552 14.4486 14.0559 14.44 14.0576 14.4316L14.0791 14.3457C14.0683 14.3823 14.0604 14.4196 14.0537 14.457ZM19.3301 14.0918L19.4092 14.2539C19.3871 14.1979 19.3607 14.1439 19.3301 14.0928L19.2256 13.9473C19.2641 13.9925 19.2994 14.0407 19.3301 14.0918ZM8.71191 14.0107C8.66688 14.0189 8.62929 14.0358 8.59863 14.0576L8.55762 14.0938C8.58154 14.0666 8.61237 14.0439 8.65039 14.0283L8.71191 14.0107ZM19.8926 13.9434L19.9395 14.0518C19.9088 13.9741 19.8715 13.8997 19.8301 13.8281C19.8519 13.8659 19.8737 13.9039 19.8926 13.9434ZM14.3975 13.8545C14.4047 13.8482 14.4105 13.8401 14.418 13.834L14.4893 13.7803C14.4567 13.8027 14.4271 13.8287 14.3975 13.8545ZM12.6641 13.2998L12.6904 13.3223C12.6818 13.3149 12.6736 13.3071 12.6641 13.3008C12.6409 13.2855 12.6159 13.2735 12.5898 13.2656C12.6158 13.2735 12.641 13.2846 12.6641 13.2998ZM12.5869 13.2646C12.5623 13.2575 12.5365 13.2541 12.5107 13.2539C12.5365 13.2543 12.5622 13.2575 12.5869 13.2646ZM14.4727 11.1016L8.36621 12.3428L8.2832 12.3672C8.20749 12.3984 8.15018 12.4507 8.11328 12.5156C8.06554 12.5999 8.05594 12.6989 8.07422 12.7881C8.09264 12.8774 8.14034 12.9651 8.2168 13.0254C8.29528 13.0872 8.39902 13.1161 8.5166 13.0947H8.51855L14.6201 11.8535L14.6191 11.8525C14.6686 11.8451 14.7169 11.8285 14.7598 11.8027C14.8042 11.776 14.8427 11.7403 14.873 11.6982C14.9035 11.6559 14.9253 11.6076 14.9365 11.5566C14.9477 11.5057 14.9484 11.4526 14.9385 11.4014C14.9286 11.3503 14.9082 11.3018 14.8789 11.2588C14.8496 11.2158 14.8115 11.1793 14.7676 11.1514C14.7236 11.1235 14.6744 11.104 14.623 11.0957C14.5732 11.0877 14.5217 11.0898 14.4727 11.1016ZM8.43457 13.002L8.38281 12.9961C8.38084 12.9957 8.3789 12.9946 8.37695 12.9941C8.39514 12.9985 8.41436 13.0015 8.43457 13.002ZM16.1299 12.5566C16.0231 12.5723 15.9168 12.5927 15.8115 12.6152C15.9166 12.5927 16.0223 12.5723 16.1289 12.5566L14.8066 5.82227C15.2482 8.06223 15.6883 10.3167 16.1299 12.5566ZM14.4932 11.2002L8.38379 12.4414L14.4922 11.2002C14.5109 11.1955 14.5304 11.1924 14.5498 11.1914C14.5307 11.1923 14.5118 11.1955 14.4932 11.2002ZM14.1465 9.5166V9.51758L8.05371 10.7578C7.93701 10.7796 7.85178 10.8441 7.80273 10.9307C7.75501 11.0151 7.74529 11.1139 7.76367 11.2031C7.7821 11.2923 7.83 11.3792 7.90625 11.4395C7.98468 11.5012 8.08857 11.531 8.20605 11.5098L8.20898 11.5088L14.2998 10.2676L14.3721 10.2451C14.3948 10.2355 14.4169 10.2238 14.4375 10.21C14.4791 10.1818 14.5153 10.1454 14.543 10.1035C14.5707 10.0615 14.5901 10.0142 14.5996 9.96484C14.6091 9.91555 14.6086 9.86463 14.5986 9.81543C14.5885 9.76615 14.5692 9.71843 14.541 9.67676C14.5129 9.63528 14.4763 9.59992 14.4346 9.57227C14.3927 9.54461 14.3452 9.52519 14.2959 9.51562C14.2466 9.50612 14.1956 9.50659 14.1465 9.5166ZM14.6074 11.1943L14.6504 11.2061C14.6364 11.2015 14.622 11.1977 14.6074 11.1953C14.5885 11.1923 14.5689 11.1906 14.5498 11.1914C14.5691 11.1904 14.5885 11.1913 14.6074 11.1943ZM8.07324 10.8564C8.05801 10.8592 8.04381 10.8637 8.03027 10.8682L8.07324 10.8555L14.1729 9.61426L8.07324 10.8564ZM14.2764 9.61328L14.3301 9.62988C14.3129 9.62288 14.2946 9.61779 14.2764 9.61426C14.2583 9.61079 14.24 9.60832 14.2217 9.6084C14.24 9.60825 14.2584 9.60984 14.2764 9.61328ZM8.10742 9.37793L8.00977 9.40137C8.04543 9.39418 8.08068 9.38539 8.11523 9.375C8.11261 9.37579 8.11005 9.37715 8.10742 9.37793ZM5.88672 9.28027L5.83984 9.33691C5.8526 9.31626 5.86819 9.29731 5.88574 9.28027L8.12305 6.05078L5.88672 9.28027ZM8.26953 8.17969C8.28905 8.30714 8.25851 8.43721 8.18457 8.54297C8.10994 8.64963 7.99693 8.72329 7.86914 8.74805V8.74902L6.9541 8.91504L8.08691 7.28711L8.26953 8.17969ZM8.79785 8.82617L8.74512 8.91113C8.76542 8.88097 8.78454 8.8501 8.80176 8.81836L8.79785 8.82617ZM19.1631 7.44043C19.1979 7.44612 19.2319 7.45535 19.2646 7.46777L19.1631 7.44043ZM8.30273 5.93555L8.24902 5.94922C8.266 5.94279 8.28368 5.93801 8.30176 5.93555L14.0029 4.82031L8.30273 5.93555ZM14.3457 5.375C14.3083 5.36844 14.2703 5.36617 14.2324 5.36719L14.1201 5.38086C14.1941 5.36403 14.2709 5.36187 14.3457 5.375Z" fill="#929292"/>
</svg>
