<svg width="15" height="14" viewBox="0 0 15 14" fill="none" xmlns="http://www.w3.org/2000/svg">
<path d="M11.3383 3.9998H9.76641C9.21328 3.9998 8.76641 4.44668 8.76641 4.9998C8.76641 5.55293 9.21328 5.9998 9.76641 5.9998H13.7664C14.3195 5.9998 14.7664 5.55293 14.7664 4.9998V0.999805C14.7664 0.44668 14.3195 -0.000195265 13.7664 -0.000195265C13.2133 -0.000195265 12.7664 0.44668 12.7664 0.999805V2.5998L12.2164 2.0498C9.48203 -0.68457 5.05078 -0.68457 2.31641 2.0498C-0.417969 4.78418 -0.417969 9.21543 2.31641 11.9498C5.05078 14.6842 9.48203 14.6842 12.2164 11.9498C12.607 11.5592 12.607 10.9248 12.2164 10.5342C11.8258 10.1436 11.1914 10.1436 10.8008 10.5342C8.84766 12.4873 5.68203 12.4873 3.72891 10.5342C1.77578 8.58105 1.77578 5.41543 3.72891 3.4623C5.68203 1.50918 8.84766 1.50918 10.8008 3.4623L11.3383 3.9998Z" fill="white"/>
</svg>
