<svg width="24" height="24" viewBox="0 0 24 24" fill="none" xmlns="http://www.w3.org/2000/svg">
<path d="M18.7001 14.1C18.5001 14 18.2001 14 18.0001 14C16.8001 14 15.7001 14.5 14.9001 15.5L9.80011 13.2C10.0001 12.5 10.0001 11.7 9.80011 10.9L14.9001 8.59999C16.3001 10.3 18.8001 10.5 20.5001 9.09999C22.2001 7.69999 22.4001 5.19999 21.0001 3.49999C19.6001 1.79999 17.1001 1.59999 15.4001 2.99999C14.5001 3.69999 14.0001 4.79999 14.0001 5.99999C14.0001 6.19999 14.0001 6.49999 14.1001 6.69999L8.80011 9.09999C7.20011 7.59999 4.70011 7.59999 3.10011 9.19999C1.60011 10.8 1.60011 13.3 3.20011 14.9C4.80011 16.4 7.20011 16.4 8.80011 14.9L14.1001 17.3C13.7001 19.5 15.1001 21.6 17.3001 21.9C19.5001 22.3 21.6001 20.9 21.9001 18.7C22.3001 16.5 20.9001 14.5 18.7001 14.1Z" fill="#A098AE"/>
</svg>
