<svg width="110" height="26" viewBox="0 0 110 26" fill="none" xmlns="http://www.w3.org/2000/svg">
<path d="M38.3911 13.782C38.3911 13.9592 38.3614 14.196 38.3024 14.4918C38.2435 14.7874 38.0878 15.083 37.8365 15.3788C37.5845 15.6753 37.2068 15.9303 36.7044 16.1441C36.2006 16.3585 35.5052 16.4661 34.6173 16.4661C33.729 16.4661 33.0337 16.3587 32.5304 16.1441C32.0273 15.9303 31.6501 15.6751 31.3983 15.3788C31.1465 15.083 30.9913 14.784 30.9318 14.481C30.8729 14.1779 30.843 13.9451 30.843 13.7822V13.2274H32.7078V13.427C32.7078 13.5602 32.7266 13.7044 32.7633 13.8599C32.8 14.015 32.8858 14.1631 33.0185 14.3031C33.1518 14.4439 33.3408 14.5622 33.5852 14.6584C33.829 14.7546 34.1506 14.8026 34.5507 14.8026C34.9794 14.8026 35.32 14.7546 35.5719 14.6584C35.823 14.5622 36.0188 14.4479 36.1602 14.3147C36.3005 14.1815 36.3932 14.0373 36.4372 13.8816C36.4818 13.7266 36.5041 13.5899 36.5041 13.4715V11.0535C36.5041 10.8761 36.4521 10.6657 36.3485 10.4213C36.2448 10.1772 36.0004 9.98889 35.6158 9.85567C35.5272 9.82599 35.4161 9.7893 35.2827 9.74479C35.1494 9.70076 35.031 9.65608 34.9278 9.61157L33.2629 9.05732C33.2034 9.02748 33.1593 9.01264 33.1301 9.01264C32.286 8.7617 31.694 8.3997 31.3541 7.92601C31.0129 7.45298 30.8428 6.94961 30.8428 6.41771V2.71249C30.8428 2.55008 30.8727 2.31723 30.9316 2.01362C30.9912 1.71114 31.1462 1.41192 31.3981 1.11564C31.6499 0.820016 32.0272 0.564827 32.5303 0.350403C33.0333 0.135979 33.7288 0.0290119 34.6171 0.0290119C35.505 0.0290119 36.2003 0.135816 36.7042 0.350403C37.2066 0.564827 37.5844 0.820016 37.8363 1.11564C38.0875 1.41209 38.2433 1.71114 38.3022 2.01362C38.3613 2.31723 38.391 2.55008 38.391 2.71249V3.28972H36.5043V3.04546C36.5043 2.91224 36.4821 2.76875 36.4374 2.61303C36.3933 2.45796 36.3007 2.31348 36.1603 2.18059C36.019 2.04737 35.8232 1.93306 35.5721 1.83621C35.3201 1.74016 34.9796 1.69206 34.5509 1.69206C34.1508 1.69206 33.8292 1.74016 33.5854 1.83621C33.3409 1.93306 33.152 2.05471 33.0187 2.20228C32.886 2.3505 32.8002 2.50198 32.7634 2.65705C32.7267 2.81261 32.708 2.95659 32.708 3.08998V6.0849C32.708 6.27699 32.7634 6.49157 32.8744 6.72834C32.9855 6.96445 33.2332 7.14919 33.6185 7.28258C33.6776 7.31225 33.7518 7.34209 33.8401 7.37128C33.9294 7.40096 34.0181 7.4308 34.1069 7.45999C34.373 7.54918 34.6803 7.65256 35.0284 7.77045C35.3759 7.88883 35.6974 8.00738 35.994 8.12576C36.29 8.19946 36.5412 8.28866 36.7483 8.39171C37.015 8.48042 37.2479 8.61021 37.4476 8.78012C37.6474 8.94987 37.8215 9.14603 37.9698 9.36795C38.2501 9.78196 38.391 10.2408 38.391 10.7437V13.7825L38.3911 13.782Z" fill="#252422"/>
<path d="M42.9531 8.14745C43.1528 8.07375 43.3637 7.99988 43.5856 7.92552C43.8077 7.85182 44.0298 7.77388 44.252 7.69284C44.4739 7.61163 44.6738 7.54054 44.8512 7.48167C44.94 7.45249 45.0287 7.42265 45.1175 7.39297C45.2068 7.36329 45.288 7.33411 45.3618 7.30427C45.7464 7.17104 45.9908 6.9863 46.0945 6.74954C46.1974 6.51326 46.2496 6.29884 46.2496 6.10675V3.06731C46.2496 2.93409 46.2279 2.78995 46.1831 2.63439C46.1385 2.47932 46.0463 2.33533 45.9055 2.20195C45.7648 2.06922 45.569 1.95426 45.3172 1.85822C45.0659 1.76202 44.7254 1.71408 44.2961 1.71408C43.8966 1.71408 43.5748 1.76202 43.3305 1.85822C43.0863 1.95426 42.8978 2.07656 42.7645 2.22413C42.6318 2.37235 42.5465 2.52383 42.5093 2.6789C42.4726 2.83462 42.4536 2.97861 42.4536 3.11199V8.32486C42.5869 8.28034 42.7535 8.22132 42.9533 8.14745H42.9531ZM48.1366 6.30634V6.43907C48.1366 6.97146 47.9625 7.47434 47.6151 7.94721C47.267 8.42139 46.6718 8.78355 45.8277 9.03466C45.7978 9.03466 45.7539 9.04933 45.6948 9.07917C45.4727 9.15288 45.2317 9.23424 44.9731 9.32279C44.7143 9.41133 44.4739 9.49318 44.2518 9.56689C43.985 9.65559 43.7331 9.7443 43.497 9.83284C43.3194 9.87752 43.1489 9.95187 42.9864 10.0548C42.8536 10.1435 42.731 10.2584 42.6201 10.3985C42.5091 10.5392 42.4535 10.7207 42.4535 10.9425V16.3104H40.567V2.73418C40.567 2.57177 40.5962 2.33908 40.6557 2.0353C40.7146 1.73283 40.8737 1.43312 41.133 1.13749C41.3912 0.841704 41.7724 0.586515 42.2761 0.372091C42.7792 0.15783 43.4751 0.050047 44.363 0.050047C45.2508 0.050047 45.9461 0.157667 46.4499 0.372091C46.9524 0.586515 47.3297 0.841704 47.5815 1.13749C47.8333 1.43329 47.9885 1.73283 48.048 2.0353C48.1069 2.33908 48.1368 2.57177 48.1368 2.73418V6.30617L48.1366 6.30634Z" fill="#252422"/>
<path d="M57.1716 16.3107H52.8205C52.3912 16.3107 52.0214 16.2331 51.7106 16.0779C51.3999 15.9223 51.1406 15.7227 50.9338 15.4785C50.7259 15.235 50.5709 14.9648 50.4673 14.6692C50.3637 14.3734 50.3121 14.0853 50.3121 13.8037V2.73451C50.3121 2.45372 50.3635 2.16543 50.4673 1.86898C50.5708 1.57335 50.7259 1.30333 50.9338 1.05906C51.1406 0.815451 51.3999 0.615866 51.7106 0.460306C52.0214 0.305073 52.3912 0.227457 52.8205 0.227457H57.1716V1.78028H53.442C53.0574 1.78028 52.75 1.90991 52.5211 2.16852C52.2908 2.42714 52.1764 2.74168 52.1764 3.11117V7.39215H56.195V9.14521H52.1764V13.4485C52.1764 13.8032 52.2908 14.1102 52.5211 14.3688C52.75 14.6279 53.0573 14.7571 53.442 14.7571H57.1716V16.3107Z" fill="#252422"/>
<path d="M65.0301 3.04497C65.0301 2.91175 65.0079 2.76826 64.9637 2.61254C64.9192 2.45747 64.8263 2.313 64.6855 2.1801C64.5448 2.04688 64.3497 1.93258 64.0972 1.83588C63.8459 1.74033 63.5054 1.69223 63.0767 1.69223C62.6771 1.69223 62.3548 1.74033 62.1105 1.83588C61.8668 1.93258 61.6778 2.05422 61.5445 2.20244C61.4117 2.35001 61.3258 2.50149 61.2893 2.65722C61.2519 2.81229 61.2336 2.95627 61.2336 3.08965V13.4272C61.2336 13.5604 61.2519 13.7039 61.2893 13.8596C61.3258 14.0147 61.4117 14.1626 61.5445 14.3028C61.6778 14.4435 61.8668 14.5619 62.1105 14.6579C62.3548 14.7542 62.6771 14.8021 63.0767 14.8021C63.5054 14.8021 63.8459 14.7542 64.0972 14.6579C64.3497 14.5619 64.5448 14.4474 64.6855 14.3142C64.8263 14.181 64.9192 14.0369 64.9637 13.8818C65.0078 13.7262 65.0301 13.5896 65.0301 13.471V13.2269H66.9168V13.7817C66.9168 13.9589 66.8869 14.1957 66.8285 14.4915C66.7685 14.7877 66.6134 15.0834 66.3615 15.3792C66.1102 15.675 65.7329 15.93 65.2299 16.1444C64.7263 16.3583 64.0308 16.466 63.143 16.466C62.2546 16.466 61.5593 16.3585 61.0561 16.1444C60.553 15.93 60.1717 15.675 59.913 15.3792C59.6537 15.0834 59.4946 14.7838 59.4357 14.4807C59.3762 14.1776 59.3463 13.9447 59.3463 13.7818V2.71282C59.3463 2.55041 59.3762 2.31707 59.4357 2.01394C59.4946 1.71081 59.6537 1.4116 59.913 1.11548C60.1717 0.819691 60.5528 0.564502 61.0561 0.350241C61.5592 0.135817 62.2546 0.0286865 63.143 0.0286865C64.0308 0.0286865 64.7261 0.135654 65.2299 0.350241C65.7329 0.564502 66.1102 0.819691 66.3615 1.11548C66.6133 1.41176 66.7685 1.71081 66.8285 2.01394C66.8869 2.31707 66.9168 2.55041 66.9168 2.71282V3.2894H65.0301V3.04497Z" fill="#252422"/>
<path d="M75.5744 1.80294H72.7333V16.3106H70.8683V1.80294H68.0266V0.227782H75.5744V1.80294Z" fill="#252422"/>
<path d="M79.515 8.14745C79.7147 8.07374 79.9255 7.99988 80.147 7.92552C80.3695 7.85182 80.5916 7.77388 80.8139 7.69284C81.0353 7.61163 81.2357 7.54054 81.4126 7.48167C81.5018 7.45249 81.5906 7.42265 81.6794 7.39297C81.7686 7.36329 81.8492 7.3341 81.9236 7.30426C82.2934 7.17104 82.5339 6.9863 82.6455 6.74953C82.7559 6.51326 82.812 6.30634 82.812 6.12844V3.06731C82.812 2.93409 82.7898 2.78995 82.7449 2.63439C82.7004 2.47932 82.6077 2.33533 82.4674 2.20195C82.3267 2.06922 82.1309 1.95426 81.8791 1.85822C81.6273 1.76201 81.2872 1.71407 80.8579 1.71407C80.4585 1.71407 80.1367 1.76201 79.8924 1.85822C79.6481 1.95426 79.459 2.07656 79.3263 2.22413C79.1937 2.37235 79.1077 2.52383 79.0711 2.6789C79.0338 2.83462 79.0155 2.97861 79.0155 3.11199V8.32486C79.1483 8.28034 79.3147 8.22131 79.5151 8.14745H79.515ZM83.5881 16.3106L81.1908 9.43383C81.0278 9.49335 80.8801 9.54879 80.7468 9.60031C80.614 9.65233 80.495 9.69293 80.3919 9.72212L80.0588 9.833C79.8813 9.89252 79.7108 9.96622 79.5483 10.0549C79.4149 10.1293 79.2965 10.2364 79.1933 10.3765C79.0891 10.5177 79.0297 10.691 79.0152 10.8981V16.3107H77.128V2.7345C77.128 2.5721 77.1579 2.33941 77.2168 2.03563C77.2763 1.73315 77.4313 1.43345 77.6833 1.13782C77.9346 0.842029 78.3119 0.58684 78.8154 0.372416C79.318 0.158155 80.014 0.0503724 80.9023 0.0503724C81.7902 0.0503724 82.485 0.157992 82.9887 0.372416C83.4918 0.58684 83.8691 0.842029 84.1215 1.13782C84.3721 1.43361 84.5285 1.73315 84.5874 2.03563C84.6464 2.33941 84.6768 2.5721 84.6768 2.7345V6.43923C84.6768 6.91276 84.5462 7.36346 84.2881 7.7923C84.0288 8.22131 83.5882 8.56162 82.9665 8.81273L85.5862 16.3106H83.5881Z" fill="#252422"/>
<path d="M94.4879 13.5822H94.4662V13.8042C94.4662 13.9814 94.4365 14.2182 94.3774 14.514C94.3178 14.8098 94.1628 15.1059 93.9109 15.401C93.6591 15.6975 93.2818 15.9525 92.7787 16.1669C92.2757 16.3807 91.5802 16.4885 90.6919 16.4885C89.804 16.4885 89.1087 16.3808 88.6055 16.1669C88.1024 15.9525 87.7246 15.6975 87.4733 15.401C87.2215 15.1059 87.0657 14.8062 87.0073 14.5026C86.9479 14.2001 86.918 13.9672 86.918 13.8043V0.227782H88.8052V13.4492C88.8052 13.5824 88.8235 13.7265 88.8607 13.8816C88.8974 14.0373 88.9827 14.1852 89.1154 14.3255C89.2494 14.466 89.4377 14.5846 89.6821 14.6806C89.9259 14.7768 90.2482 14.8248 90.6476 14.8248C91.077 14.8248 91.4169 14.7768 91.6688 14.6806C91.9206 14.5846 92.1157 14.4696 92.2571 14.3364C92.3979 14.2037 92.4901 14.0595 92.5346 13.904C92.5787 13.7489 92.601 13.6121 92.601 13.4937V0.227782H94.4877V13.5824L94.4879 13.5822Z" fill="#252422"/>
<path d="M108.03 16.3107V3.06764C108.03 2.93442 108.008 2.79027 107.963 2.63471C107.919 2.47964 107.826 2.33501 107.686 2.20228C107.545 2.06906 107.349 1.95459 107.097 1.85838C106.846 1.76234 106.505 1.71375 106.076 1.71375C105.662 1.71375 105.333 1.76234 105.089 1.85838C104.845 1.95459 104.66 2.07688 104.534 2.22445C104.408 2.37202 104.326 2.52416 104.289 2.67923C104.253 2.8343 104.234 2.97828 104.234 3.11166V16.3107H102.347V3.06764C102.347 2.93442 102.324 2.79027 102.28 2.63471C102.236 2.47964 102.144 2.33501 102.003 2.20228C101.862 2.06906 101.666 1.95459 101.415 1.85838C101.163 1.76234 100.823 1.71375 100.393 1.71375C99.9938 1.71375 99.672 1.76234 99.4278 1.85838C99.184 1.95459 98.995 2.07688 98.8622 2.22445C98.7284 2.37202 98.6437 2.52416 98.6063 2.67923C98.5698 2.8343 98.5515 2.97828 98.5515 3.11166V16.3107H96.6643V2.73467C96.6643 2.57177 96.694 2.33892 96.7529 2.03579C96.812 1.73266 96.9711 1.43345 97.2297 1.13733C97.4885 0.84154 97.8696 0.586514 98.3735 0.37209C98.8764 0.158155 99.5725 0.0505351 100.46 0.0505351C101.171 0.0505351 101.748 0.120977 102.192 0.261046C102.636 0.401767 102.998 0.575752 103.279 0.782838C103.575 0.575752 103.946 0.401767 104.39 0.261046C104.833 0.120977 105.411 0.0505351 106.121 0.0505351C107.009 0.0505351 107.704 0.157992 108.208 0.37209C108.71 0.586514 109.088 0.84154 109.34 1.13733C109.591 1.43361 109.747 1.73266 109.807 2.03579C109.865 2.33892 109.895 2.57177 109.895 2.73467V16.3107H108.03Z" fill="#252422"/>
<path d="M31.6504 18.9055L35.0492 24.1355H35.0675V18.9055H35.8808V25.355H34.9409L31.5691 20.1793H31.5509V25.355H30.7374V18.9055H31.6504Z" fill="#252422"/>
<path d="M45.977 18.9055V19.6285H42.3797V21.6783H45.7332V22.4013H42.3797V24.6325H46.0044V25.355H41.5211V18.9055H45.977Z" fill="#252422"/>
<path d="M50.6052 19.6282V18.9053H55.7668V19.6282H53.6153V25.3549H52.7562V19.6282H50.6052Z" fill="#252422"/>
<path d="M65.6641 25.3549L64.1907 19.9351H64.1731L62.6809 25.3549H61.7868L60.1322 18.9055H61.0089L62.2744 24.271H62.2923L63.7392 18.9055H64.6698L66.0985 24.271H66.1162L67.4269 18.9055H68.2855L66.5588 25.3549H65.6641Z" fill="#252422"/>
<path d="M73.9713 23.0921C74.0549 23.4084 74.1875 23.6926 74.3685 23.946C74.5495 24.1988 74.7812 24.4019 75.0646 24.5559C75.3479 24.7091 75.6857 24.7858 76.0771 24.7858C76.4686 24.7858 76.8062 24.7091 77.0895 24.5559C77.3723 24.4019 77.6053 24.1989 77.7856 23.946C77.9659 23.6926 78.0987 23.4084 78.1834 23.0921C78.2675 22.7757 78.3099 22.4555 78.3099 22.13C78.3099 21.8052 78.2675 21.4843 78.1834 21.1681C78.0987 20.8518 77.9659 20.5674 77.7856 20.3147C77.6053 20.0619 77.3724 19.8583 77.0895 19.705C76.8062 19.5515 76.4686 19.4744 76.0771 19.4744C75.6857 19.4744 75.3479 19.5515 75.0646 19.705C74.7813 19.8583 74.5495 20.0618 74.3685 20.3147C74.1875 20.5674 74.0549 20.8518 73.9713 21.1681C73.8871 21.4843 73.8442 21.8054 73.8442 22.13C73.8442 22.4556 73.887 22.7757 73.9713 23.0921ZM73.1802 20.8614C73.3096 20.4546 73.5043 20.0949 73.7634 19.7815C74.0222 19.4687 74.3445 19.2187 74.7303 19.0315C75.1158 18.8452 75.5648 18.7519 76.0771 18.7519C76.5894 18.7519 77.0381 18.8452 77.4238 19.0315C77.8096 19.2186 78.1325 19.4687 78.3912 19.7815C78.6504 20.0949 78.8451 20.4546 78.974 20.8614C79.1038 21.2674 79.1685 21.6907 79.1685 22.1299C79.1685 22.5698 79.1038 22.9931 78.974 23.3989C78.8453 23.8058 78.6504 24.1655 78.3912 24.4782C78.1325 24.7918 77.8096 25.04 77.4238 25.2236C77.0382 25.4072 76.5894 25.4992 76.0771 25.4992C75.5648 25.4992 75.116 25.407 74.7303 25.2236C74.3445 25.04 74.0222 24.7918 73.7634 24.4782C73.5041 24.1655 73.3096 23.8058 73.1802 23.3989C73.0505 22.9929 72.9857 22.5696 72.9857 22.1299C72.9857 21.6906 73.0505 21.2673 73.1802 20.8614Z" fill="#252422"/>
<path d="M87.683 21.8321C87.8635 21.8024 88.0224 21.7434 88.1575 21.6558C88.2931 21.5689 88.4018 21.4512 88.4828 21.3035C88.5645 21.1559 88.6053 20.965 88.6053 20.7305C88.6053 20.4048 88.5147 20.1402 88.3339 19.9354C88.1531 19.7306 87.8612 19.6282 87.4572 19.6282H85.3244V21.8773H87.1137C87.3129 21.8773 87.5029 21.8624 87.6832 21.8321H87.683ZM87.5027 18.9053C88.1167 18.9053 88.5976 19.0565 88.9439 19.3572C89.2908 19.6585 89.4636 20.0711 89.4636 20.5948C89.4636 20.986 89.3748 21.3292 89.1975 21.6244C89.0194 21.9197 88.7344 22.121 88.3429 22.2296V22.2479C88.5294 22.2839 88.6817 22.3446 88.799 22.4281C88.917 22.5127 89.0103 22.6133 89.0795 22.7306C89.1488 22.8485 89.1998 22.9794 89.2335 23.1235C89.2668 23.2682 89.2924 23.4187 89.3102 23.5754C89.3217 23.7319 89.3313 23.8917 89.3376 24.054C89.3429 24.2164 89.3582 24.3762 89.3822 24.5327C89.4068 24.6894 89.4406 24.8381 89.4858 24.98C89.531 25.1212 89.5991 25.2466 89.6896 25.3547H88.7314C88.6714 25.2882 88.6308 25.198 88.6095 25.0842C88.5883 24.9692 88.5751 24.8417 88.5687 24.6998C88.5625 24.5586 88.5562 24.4065 88.5505 24.2441C88.5448 24.0817 88.5265 23.922 88.4968 23.7653C88.4728 23.6086 88.4418 23.4599 88.4062 23.3181C88.3697 23.1769 88.3129 23.0533 88.2346 22.9481C88.1556 22.8429 88.0531 22.7581 87.9273 22.6947C87.8002 22.6318 87.6318 22.5996 87.4208 22.5996H85.3241V25.3549H84.465V18.9053H87.5027Z" fill="#252422"/>
<path d="M95.7646 18.9055V22.1212L99.0361 18.9055H100.148L97.4272 21.5068L100.257 25.355H99.1719L96.8399 22.0943L95.7646 23.0968V25.355H94.9054V18.9055H95.7646Z" fill="#252422"/>
<path d="M108.414 19.7865C108.128 19.5788 107.762 19.4747 107.316 19.4747C107.135 19.4747 106.957 19.493 106.783 19.529C106.608 19.5651 106.453 19.6252 106.317 19.7099C106.182 19.7939 106.073 19.9065 105.992 20.0484C105.911 20.1903 105.869 20.3659 105.869 20.5762C105.869 20.7753 105.928 20.9366 106.046 21.0602C106.163 21.1831 106.32 21.2844 106.516 21.3627C106.711 21.4409 106.933 21.5057 107.18 21.5565C107.427 21.6081 107.679 21.6635 107.935 21.7235C108.191 21.7842 108.443 21.8544 108.689 21.9358C108.937 22.0175 109.158 22.1274 109.354 22.2657C109.55 22.4041 109.707 22.5786 109.824 22.7898C109.942 23.0009 110 23.2656 110 23.5848C110 23.9279 109.924 24.2214 109.77 24.465C109.617 24.7086 109.419 24.9076 109.178 25.0615C108.937 25.215 108.666 25.3265 108.369 25.3955C108.07 25.4648 107.774 25.4997 107.478 25.4997C107.116 25.4997 106.775 25.4545 106.452 25.3635C106.13 25.2736 105.847 25.1364 105.602 24.9528C105.359 24.7691 105.166 24.5342 105.024 24.2482C104.882 23.9622 104.812 23.6235 104.812 23.2318H105.625C105.625 23.5035 105.678 23.7362 105.783 23.9323C105.888 24.128 106.027 24.2893 106.199 24.4156C106.371 24.5415 106.571 24.6353 106.8 24.6953C107.029 24.7554 107.264 24.7858 107.505 24.7858C107.698 24.7858 107.892 24.7675 108.088 24.7315C108.284 24.6953 108.46 24.6335 108.617 24.5462C108.774 24.4592 108.9 24.3403 108.997 24.19C109.093 24.0394 109.141 23.8467 109.141 23.6116C109.141 23.3892 109.083 23.2083 108.965 23.0694C108.848 22.9316 108.691 22.8183 108.495 22.7309C108.299 22.6438 108.078 22.573 107.83 22.5186C107.584 22.4643 107.331 22.4087 107.076 22.3516C106.82 22.2944 106.568 22.228 106.321 22.1525C106.074 22.0777 105.852 21.9787 105.657 21.8544C105.461 21.7315 105.304 21.5719 105.187 21.3757C105.069 21.1807 105.011 20.9348 105.011 20.6396C105.011 20.3147 105.077 20.0334 105.209 19.7955C105.342 19.5574 105.518 19.3619 105.738 19.2081C105.958 19.0549 106.208 18.9404 106.488 18.8649C106.769 18.7901 107.057 18.7522 107.352 18.7522C107.683 18.7522 107.991 18.7912 108.274 18.8696C108.557 18.9479 108.806 19.0715 109.02 19.2396C109.233 19.4084 109.403 19.6205 109.526 19.8769C109.649 20.1325 109.717 20.4384 109.729 20.7937H108.915C108.867 20.3298 108.7 19.9941 108.414 19.7865H108.414Z" fill="#252422"/>
<path fill-rule="evenodd" clip-rule="evenodd" d="M25.5716 24.9648V0.590278C25.5716 0.264157 25.3078 0 24.9823 0H0.5894C0.263696 0 0 0.26432 0 0.590278V24.9648C0 25.2903 0.263859 25.5538 0.5894 25.5538H24.9823C25.308 25.5538 25.5716 25.2901 25.5716 24.9648Z" fill="url(#paint0_linear_67_879)"/>
<path d="M21.2616 13.6143H21.5924V21.5858H4.01708V16.5297H14.3064C15.0368 16.5297 15.6321 15.9355 15.6321 15.2045C15.6321 14.473 15.0368 13.8782 14.3064 13.8782H11.5058C9.58554 13.8782 8.02343 12.3173 8.02343 10.3978C8.02343 8.47826 9.58537 6.91631 11.5058 6.91631H17.6302V7.24797H19.2277V5.65161H17.6302V5.98328H11.5058C9.07038 5.98328 7.08989 7.96331 7.08989 10.3978C7.08989 12.8308 9.07022 14.8117 11.5058 14.8117H14.3064C14.5222 14.8117 14.6979 14.9873 14.6979 15.2045C14.6979 15.4207 14.5222 15.5968 14.3064 15.5968H3.08289V22.5185H22.5257V13.6143H22.8589V12.018H21.2614V13.6143H21.2616Z" fill="#F5F5F5"/>
<path d="M3.08311 11.9076H2.75006V13.5039H4.34758V11.9076H4.01681V3.93671H21.5921V8.99223H11.3026C10.5722 8.99223 9.97706 9.58658 9.97706 10.3181C9.97706 11.0489 10.5722 11.6433 11.3026 11.6433H14.1032C16.0235 11.6433 17.5856 13.2041 17.5856 15.1243C17.5856 17.0436 16.0236 18.6056 14.1032 18.6056H7.97878V18.2739H6.37947V19.8703H7.97878V19.5386H14.1032C16.5386 19.5386 18.5191 17.5586 18.5191 15.1243C18.5191 12.6911 16.5388 10.7115 14.1032 10.7115H11.3026C11.0868 10.7115 10.9111 10.5353 10.9111 10.3181C10.9111 10.1014 11.0868 9.92509 11.3026 9.92509H22.5261V3.00385H3.08327V11.9076H3.08311Z" fill="#F5F5F5"/>
<defs>
<linearGradient id="paint0_linear_67_879" x1="4.09137" y1="21.288" x2="22.8129" y2="2.93523" gradientUnits="userSpaceOnUse">
<stop stop-color="#363785"/>
<stop offset="0.145098" stop-color="#2F559F"/>
<stop offset="0.270588" stop-color="#2873B9"/>
<stop offset="0.478431" stop-color="#624E9E"/>
<stop offset="0.670588" stop-color="#9C2883"/>
<stop offset="1" stop-color="#D62056"/>
</linearGradient>
</defs>
</svg>
