<svg width="148" height="59" viewBox="0 0 148 59" fill="none" xmlns="http://www.w3.org/2000/svg">
<path d="M49.1156 5.35352V8H48.2953V0.998047H50.2191C50.9678 0.998047 51.5473 1.18034 51.9574 1.54492C52.3708 1.90951 52.5775 2.42383 52.5775 3.08789C52.5775 3.75195 52.348 4.29557 51.8891 4.71875C51.4333 5.14193 50.8165 5.35352 50.0385 5.35352H49.1156ZM49.1156 1.74023V4.61133H49.975C50.5414 4.61133 50.9727 4.48275 51.2689 4.22559C51.5684 3.96517 51.7182 3.59896 51.7182 3.12695C51.7182 2.20247 51.1713 1.74023 50.0775 1.74023H49.1156ZM55.7121 8.11719C54.9732 8.11719 54.3824 7.88444 53.9396 7.41895C53.5002 6.9502 53.2805 6.33008 53.2805 5.55859C53.2805 4.71875 53.51 4.06283 53.9689 3.59082C54.4279 3.11882 55.048 2.88281 55.8293 2.88281C56.5747 2.88281 57.1558 3.1123 57.5725 3.57129C57.9924 4.03027 58.2023 4.66667 58.2023 5.48047C58.2023 6.27799 57.9761 6.91764 57.5236 7.39941C57.0744 7.87793 56.4706 8.11719 55.7121 8.11719ZM55.7707 3.55664C55.2564 3.55664 54.8495 3.73242 54.55 4.08398C54.2505 4.43229 54.1008 4.91406 54.1008 5.5293C54.1008 6.12174 54.2521 6.58887 54.5549 6.93066C54.8576 7.27246 55.2629 7.44336 55.7707 7.44336C56.2883 7.44336 56.6854 7.27572 56.9621 6.94043C57.2421 6.60514 57.382 6.12826 57.382 5.50977C57.382 4.88477 57.2421 4.40299 56.9621 4.06445C56.6854 3.72591 56.2883 3.55664 55.7707 3.55664ZM65.9805 3L64.4814 8H63.6514L62.6211 4.4209C62.582 4.28418 62.556 4.12956 62.543 3.95703H62.5234C62.5137 4.07422 62.4795 4.22559 62.4209 4.41113L61.3027 8H60.502L58.9883 3H59.8281L60.8633 6.75977C60.8958 6.8737 60.9186 7.02344 60.9316 7.20898H60.9707C60.9805 7.06576 61.0098 6.91276 61.0586 6.75L62.2109 3H62.9434L63.9785 6.76953C64.0111 6.88997 64.0355 7.03971 64.0518 7.21875H64.0908C64.0973 7.0918 64.125 6.94206 64.1738 6.76953L65.1895 3H65.9805ZM71.1268 5.7002H67.5965C67.6095 6.25684 67.7592 6.68652 68.0457 6.98926C68.3322 7.29199 68.726 7.44336 69.2273 7.44336C69.7905 7.44336 70.3081 7.25781 70.7801 6.88672V7.63867C70.3406 7.95768 69.7596 8.11719 69.0369 8.11719C68.3305 8.11719 67.7755 7.89095 67.3719 7.43848C66.9682 6.98275 66.7664 6.3431 66.7664 5.51953C66.7664 4.74154 66.9861 4.1084 67.4256 3.62012C67.8683 3.12858 68.4168 2.88281 69.0711 2.88281C69.7254 2.88281 70.2316 3.0944 70.5896 3.51758C70.9477 3.94076 71.1268 4.52832 71.1268 5.28027V5.7002ZM70.3064 5.02148C70.3032 4.55924 70.1909 4.19954 69.9695 3.94238C69.7514 3.68522 69.4471 3.55664 69.0564 3.55664C68.6788 3.55664 68.3582 3.69173 68.0945 3.96191C67.8309 4.2321 67.6681 4.58529 67.6063 5.02148H70.3064ZM75.15 3.81055C75.01 3.70312 74.8082 3.64941 74.5445 3.64941C74.2027 3.64941 73.9163 3.81055 73.6852 4.13281C73.4573 4.45508 73.3434 4.89453 73.3434 5.45117V8H72.5426V3H73.3434V4.03027H73.3629C73.4768 3.67871 73.651 3.40527 73.8854 3.20996C74.1197 3.01139 74.3818 2.91211 74.6715 2.91211C74.8798 2.91211 75.0393 2.9349 75.15 2.98047V3.81055ZM80.2377 5.7002H76.7074C76.7204 6.25684 76.8702 6.68652 77.1566 6.98926C77.4431 7.29199 77.837 7.44336 78.3383 7.44336C78.9014 7.44336 79.419 7.25781 79.891 6.88672V7.63867C79.4516 7.95768 78.8705 8.11719 78.1479 8.11719C77.4415 8.11719 76.8865 7.89095 76.4828 7.43848C76.0792 6.98275 75.8773 6.3431 75.8773 5.51953C75.8773 4.74154 76.0971 4.1084 76.5365 3.62012C76.9792 3.12858 77.5277 2.88281 78.182 2.88281C78.8363 2.88281 79.3425 3.0944 79.7006 3.51758C80.0587 3.94076 80.2377 4.52832 80.2377 5.28027V5.7002ZM79.4174 5.02148C79.4141 4.55924 79.3018 4.19954 79.0805 3.94238C78.8624 3.68522 78.558 3.55664 78.1674 3.55664C77.7898 3.55664 77.4691 3.69173 77.2055 3.96191C76.9418 4.2321 76.779 4.58529 76.7172 5.02148H79.4174ZM85.9211 8H85.1203V7.15039H85.1008C84.7297 7.79492 84.1568 8.11719 83.382 8.11719C82.7538 8.11719 82.2508 7.89421 81.8732 7.44824C81.4989 6.99902 81.3117 6.38867 81.3117 5.61719C81.3117 4.79036 81.5201 4.12793 81.9367 3.62988C82.3534 3.13184 82.9084 2.88281 83.6018 2.88281C84.2886 2.88281 84.7883 3.15299 85.1008 3.69336H85.1203V0.597656H85.9211V8ZM85.1203 5.73926V5.00195C85.1203 4.59831 84.9869 4.25651 84.7199 3.97656C84.453 3.69661 84.1145 3.55664 83.7043 3.55664C83.216 3.55664 82.8319 3.73568 82.552 4.09375C82.272 4.45182 82.132 4.94661 82.132 5.57812C82.132 6.1543 82.2655 6.61003 82.5324 6.94531C82.8026 7.27734 83.1639 7.44336 83.6164 7.44336C84.0624 7.44336 84.4237 7.28223 84.7004 6.95996C84.9803 6.6377 85.1203 6.23079 85.1203 5.73926ZM91.5066 7.27734H91.4871V8H90.6863V0.597656H91.4871V3.87891H91.5066C91.9005 3.21484 92.4767 2.88281 93.2352 2.88281C93.8764 2.88281 94.3777 3.10742 94.7391 3.55664C95.1036 4.0026 95.2859 4.60156 95.2859 5.35352C95.2859 6.1901 95.0825 6.86068 94.6756 7.36523C94.2687 7.86654 93.712 8.11719 93.0057 8.11719C92.3449 8.11719 91.8452 7.83724 91.5066 7.27734ZM91.4871 5.26074V5.95898C91.4871 6.3724 91.6206 6.72396 91.8875 7.01367C92.1577 7.30013 92.4995 7.44336 92.9129 7.44336C93.3979 7.44336 93.7771 7.25781 94.0506 6.88672C94.3273 6.51562 94.4656 5.99967 94.4656 5.33887C94.4656 4.78223 94.337 4.34603 94.0799 4.03027C93.8227 3.71452 93.4744 3.55664 93.035 3.55664C92.5695 3.55664 92.1951 3.7194 91.9119 4.04492C91.6287 4.36719 91.4871 4.77246 91.4871 5.26074ZM100.745 3L98.4449 8.80078C98.0348 9.83594 97.4586 10.3535 96.7164 10.3535C96.5081 10.3535 96.3339 10.3324 96.1939 10.29V9.57227C96.3665 9.63086 96.5244 9.66016 96.6676 9.66016C97.0712 9.66016 97.374 9.41927 97.5758 8.9375L97.9762 7.99023L96.023 3H96.9117L98.2643 6.84766C98.2805 6.89648 98.3147 7.02344 98.3668 7.22852H98.3961C98.4124 7.15039 98.4449 7.02669 98.4938 6.85742L99.9146 3H100.745Z" fill="black"/>
<path d="M51.9891 43.3372C51.9891 43.573 51.9496 43.8881 51.871 44.2816C51.7926 44.675 51.5855 45.0683 51.2511 45.4619C50.9159 45.8563 50.4133 46.1956 49.7448 46.48C49.0746 46.7653 48.1493 46.9085 46.9679 46.9085C45.786 46.9085 44.8609 46.7655 44.1913 46.48C43.5219 46.1956 43.02 45.8561 42.685 45.4619C42.35 45.0683 42.1435 44.6704 42.0642 44.2673C41.9859 43.864 41.9461 43.5542 41.9461 43.3374V42.5993H44.4273V42.8649C44.4273 43.0422 44.4523 43.2339 44.5011 43.4409C44.55 43.6472 44.6642 43.8442 44.8407 44.0306C45.0181 44.2178 45.2695 44.3753 45.5947 44.5034C45.9191 44.6314 46.347 44.6951 46.8794 44.6951C47.4497 44.6951 47.9028 44.6314 48.2381 44.5034C48.5722 44.3753 48.8327 44.2233 49.0208 44.046C49.2075 43.8688 49.3308 43.677 49.3894 43.4698C49.4487 43.2635 49.4784 43.0816 49.4784 42.9241V39.7069C49.4784 39.4708 49.4092 39.191 49.2713 38.8658C49.1334 38.541 48.8082 38.2904 48.2965 38.1131C48.1786 38.0737 48.0307 38.0248 47.8533 37.9656C47.676 37.907 47.5183 37.8476 47.3811 37.7884L45.1659 37.0509C45.0867 37.0112 45.028 36.9915 44.9892 36.9915C43.8661 36.6576 43.0784 36.1759 42.6261 35.5457C42.1721 34.9163 41.9459 34.2466 41.9459 33.5388V28.609C41.9459 28.3929 41.9856 28.0831 42.064 27.6791C42.1433 27.2766 42.3495 26.8785 42.6847 26.4843C43.0198 26.091 43.5217 25.7514 44.1911 25.4661C44.8604 25.1808 45.7858 25.0385 46.9677 25.0385C48.149 25.0385 49.0742 25.1806 49.7446 25.4661C50.4131 25.7514 50.9157 26.091 51.2509 26.4843C51.5851 26.8787 51.7924 27.2766 51.8708 27.6791C51.9494 28.0831 51.9889 28.3929 51.9889 28.609V29.377H49.4786V29.052C49.4786 28.8747 49.4491 28.6838 49.3896 28.4766C49.331 28.2703 49.2077 28.0781 49.021 27.9012C48.8329 27.724 48.5724 27.5719 48.2383 27.443C47.9031 27.3153 47.4499 27.2513 46.8796 27.2513C46.3472 27.2513 45.9193 27.3153 45.5949 27.443C45.2697 27.5719 45.0183 27.7338 44.8409 27.9301C44.6644 28.1273 44.5502 28.3289 44.5013 28.5352C44.4525 28.7422 44.4275 28.9337 44.4275 29.1112V33.096C44.4275 33.3516 44.5013 33.6371 44.649 33.9521C44.7968 34.2663 45.1264 34.5121 45.639 34.6896C45.7176 34.7291 45.8164 34.7688 45.9338 34.8076C46.0526 34.8471 46.1707 34.8868 46.2888 34.9256C46.6429 35.0443 47.0518 35.1818 47.5149 35.3387C47.9773 35.4962 48.405 35.6539 48.7997 35.8115C49.1936 35.9095 49.5277 36.0282 49.8032 36.1653C50.1582 36.2833 50.468 36.456 50.7338 36.6821C50.9995 36.9079 51.2312 37.1689 51.4285 37.4642C51.8015 38.0151 51.9889 38.6256 51.9889 39.2947V43.3379L51.9891 43.3372Z" fill="#252422"/>
<path d="M58.0589 35.8403C58.3247 35.7422 58.6052 35.644 58.9005 35.545C59.196 35.447 59.4915 35.3433 59.7872 35.2354C60.0824 35.1274 60.3484 35.0328 60.5844 34.9545C60.7025 34.9156 60.8206 34.8759 60.9387 34.8365C61.0575 34.797 61.1656 34.7581 61.2637 34.7184C61.7755 34.5412 62.1007 34.2954 62.2386 33.9803C62.3756 33.666 62.4451 33.3807 62.4451 33.1251V29.0811C62.4451 28.9038 62.4162 28.712 62.3565 28.505C62.2972 28.2987 62.1745 28.1071 61.9872 27.9297C61.8 27.7531 61.5395 27.6001 61.2045 27.4723C60.8701 27.3443 60.417 27.2805 59.8458 27.2805C59.3143 27.2805 58.8861 27.3443 58.5611 27.4723C58.2361 27.6001 57.9853 27.7628 57.808 27.9592C57.6315 28.1564 57.5179 28.3579 57.4684 28.5643C57.4196 28.7715 57.3944 28.963 57.3944 29.1405V36.0764C57.5717 36.0171 57.7934 35.9386 58.0592 35.8403H58.0589ZM64.9558 33.3907V33.5673C64.9558 34.2756 64.7241 34.9447 64.2619 35.5739C63.7988 36.2048 63.0067 36.6867 61.8836 37.0208C61.8439 37.0208 61.7855 37.0403 61.7069 37.08C61.4114 37.1781 61.0907 37.2863 60.7466 37.4041C60.4022 37.5219 60.0824 37.6308 59.7869 37.7289C59.432 37.8469 59.0968 37.965 58.7826 38.0828C58.5464 38.1422 58.3195 38.2411 58.1032 38.378C57.9265 38.4961 57.7635 38.649 57.6158 38.8354C57.4682 39.0226 57.3941 39.2641 57.3941 39.5591V46.7013H54.8841V28.6378C54.8841 28.4217 54.923 28.1121 55.0022 27.7079C55.0806 27.3055 55.2923 26.9067 55.6373 26.5134C55.9807 26.1198 56.4879 25.7803 57.1581 25.495C57.8275 25.2099 58.7535 25.0665 59.9348 25.0665C61.1161 25.0665 62.0412 25.2097 62.7115 25.495C63.3802 25.7803 63.8821 26.1198 64.2171 26.5134C64.5521 26.9069 64.7586 27.3055 64.8379 27.7079C64.9162 28.1121 64.956 28.4217 64.956 28.6378V33.3904L64.9558 33.3907Z" fill="#252422"/>
<path d="M76.9771 46.7018H71.1878C70.6165 46.7018 70.1246 46.5985 69.711 46.392C69.2976 46.185 68.9526 45.9194 68.6775 45.5944C68.4009 45.2705 68.1946 44.911 68.0568 44.5177C67.9189 44.1241 67.8503 43.7408 67.8503 43.3661V28.6382C67.8503 28.2647 67.9187 27.8811 68.0568 27.4866C68.1944 27.0933 68.4009 26.734 68.6775 26.409C68.9526 26.0849 69.2976 25.8193 69.711 25.6124C70.1246 25.4058 70.6165 25.3026 71.1878 25.3026H76.9771V27.3686H72.0147C71.503 27.3686 71.094 27.5411 70.7894 27.8852C70.483 28.2293 70.3308 28.6478 70.3308 29.1394V34.8354H75.6777V37.1679H70.3308V42.8935C70.3308 43.3654 70.483 43.7739 70.7894 44.118C71.094 44.4628 71.5028 44.6346 72.0147 44.6346H76.9771V46.7018Z" fill="#252422"/>
<path d="M87.433 29.0513C87.433 28.8741 87.4035 28.6832 87.3446 28.476C87.2854 28.2696 87.1618 28.0774 86.9745 27.9006C86.7873 27.7233 86.5276 27.5713 86.1918 27.4426C85.8574 27.3155 85.4043 27.2515 84.8339 27.2515C84.3022 27.2515 83.8734 27.3155 83.5484 27.4426C83.2241 27.5713 82.9726 27.7331 82.7953 27.9303C82.6185 28.1267 82.5043 28.3282 82.4557 28.5354C82.406 28.7417 82.3817 28.9333 82.3817 29.1108V42.8651C82.3817 43.0424 82.406 43.2333 82.4557 43.4405C82.5043 43.6468 82.6185 43.8436 82.7953 44.0302C82.9726 44.2174 83.2241 44.3749 83.5484 44.5027C83.8734 44.6307 84.3022 44.6945 84.8339 44.6945C85.4043 44.6945 85.8574 44.6307 86.1918 44.5027C86.5276 44.3749 86.7873 44.2226 86.9745 44.0454C87.1618 43.8681 87.2854 43.6763 87.3446 43.47C87.4033 43.263 87.433 43.0812 87.433 42.9235V42.5987H89.9433V43.3368C89.9433 43.5726 89.9035 43.8876 89.8258 44.2812C89.7459 44.6754 89.5396 45.0687 89.2044 45.4623C88.8701 45.8559 88.3681 46.1952 87.6987 46.4805C87.0287 46.7651 86.1034 46.9083 84.9221 46.9083C83.7401 46.9083 82.815 46.7653 82.1454 46.4805C81.4761 46.1952 80.9687 45.8559 80.6246 45.4623C80.2796 45.0687 80.0679 44.6702 79.9895 44.2669C79.9103 43.8636 79.8705 43.5537 79.8705 43.337V28.6094C79.8705 28.3933 79.9103 28.0828 79.9895 27.6795C80.0679 27.2762 80.2796 26.8781 80.6246 26.4841C80.9687 26.0905 81.4759 25.751 82.1454 25.4659C82.8148 25.1806 83.7401 25.0381 84.9221 25.0381C86.1034 25.0381 87.0285 25.1804 87.6987 25.4659C88.3681 25.751 88.8701 26.0905 89.2044 26.4841C89.5394 26.8783 89.7459 27.2762 89.8258 27.6795C89.9035 28.0828 89.9433 28.3933 89.9433 28.6094V29.3765H87.433V29.0513Z" fill="#252422"/>
<path d="M101.462 27.3988H97.6822V46.7015H95.2009V27.3988H91.4198V25.303H101.462V27.3988Z" fill="#252422"/>
<path d="M106.705 35.8403C106.971 35.7422 107.252 35.644 107.546 35.545C107.842 35.447 108.138 35.3433 108.434 35.2354C108.728 35.1274 108.995 35.0328 109.23 34.9545C109.349 34.9156 109.467 34.8759 109.585 34.8365C109.704 34.797 109.811 34.7581 109.91 34.7184C110.402 34.5412 110.722 34.2954 110.871 33.9803C111.018 33.666 111.092 33.3907 111.092 33.154V29.0811C111.092 28.9038 111.063 28.712 111.003 28.505C110.944 28.2987 110.82 28.1071 110.634 27.9297C110.447 27.7531 110.186 27.6001 109.851 27.4723C109.516 27.3443 109.064 27.2805 108.492 27.2805C107.961 27.2805 107.533 27.3443 107.208 27.4723C106.883 27.6001 106.631 27.7628 106.454 27.9592C106.278 28.1564 106.164 28.3579 106.115 28.5643C106.065 28.7715 106.041 28.963 106.041 29.1405V36.0764C106.218 36.0171 106.439 35.9386 106.706 35.8403H106.705ZM112.125 46.7015L108.935 37.5519C108.718 37.6311 108.522 37.7048 108.344 37.7734C108.168 37.8426 108.009 37.8966 107.872 37.9355L107.429 38.083C107.193 38.1622 106.966 38.2602 106.75 38.3783C106.572 38.4772 106.415 38.6197 106.278 38.8061C106.139 38.994 106.06 39.2246 106.04 39.5001V46.7018H103.53V28.6382C103.53 28.4222 103.569 28.1126 103.648 27.7084C103.727 27.3059 103.933 26.9072 104.268 26.5138C104.603 26.1203 105.105 25.7807 105.775 25.4954C106.443 25.2103 107.369 25.0669 108.551 25.0669C109.733 25.0669 110.657 25.2101 111.327 25.4954C111.997 25.7807 112.499 26.1203 112.835 26.5138C113.168 26.9074 113.376 27.3059 113.454 27.7084C113.533 28.1126 113.573 28.4222 113.573 28.6382V33.5675C113.573 34.1975 113.4 34.7972 113.056 35.3678C112.711 35.9386 112.125 36.3914 111.298 36.7255L114.783 46.7015H112.125Z" fill="#252422"/>
<path d="M126.627 43.0714H126.598V43.3667C126.598 43.6026 126.559 43.9176 126.48 44.3111C126.401 44.7047 126.195 45.0987 125.86 45.4914C125.525 45.8858 125.023 46.2251 124.353 46.5104C123.684 46.7948 122.759 46.9382 121.577 46.9382C120.395 46.9382 119.47 46.7951 118.801 46.5104C118.131 46.2251 117.629 45.8858 117.294 45.4914C116.959 45.0987 116.752 44.6999 116.674 44.2959C116.595 43.8935 116.555 43.5837 116.555 43.3669V25.303H119.066V42.8944C119.066 43.0717 119.091 43.2634 119.14 43.4698C119.189 43.677 119.303 43.8737 119.479 44.0603C119.657 44.2473 119.908 44.4051 120.233 44.5329C120.557 44.6609 120.986 44.7246 121.518 44.7246C122.089 44.7246 122.541 44.6609 122.876 44.5329C123.211 44.4051 123.471 44.2521 123.659 44.0749C123.847 43.8983 123.969 43.7065 124.028 43.4995C124.087 43.2932 124.117 43.1111 124.117 42.9536V25.303H126.627V43.0717L126.627 43.0714Z" fill="#252422"/>
<path d="M144.645 46.7018V29.0815C144.645 28.9042 144.616 28.7124 144.556 28.5055C144.498 28.2991 144.375 28.1067 144.188 27.9301C144.001 27.7529 143.739 27.6005 143.404 27.4725C143.069 27.3448 142.617 27.2801 142.046 27.2801C141.495 27.2801 141.057 27.3448 140.732 27.4725C140.407 27.6005 140.161 27.7633 139.994 27.9596C139.826 28.156 139.717 28.3584 139.669 28.5647C139.62 28.771 139.595 28.9626 139.595 29.1401V46.7018H137.084V29.0815C137.084 28.9042 137.054 28.7124 136.995 28.5055C136.936 28.2991 136.813 28.1067 136.626 27.9301C136.439 27.7529 136.178 27.6005 135.844 27.4725C135.509 27.3448 135.056 27.2801 134.485 27.2801C133.953 27.2801 133.525 27.3448 133.2 27.4725C132.876 27.6005 132.624 27.7633 132.447 27.9596C132.269 28.156 132.157 28.3584 132.107 28.5647C132.058 28.771 132.034 28.9626 132.034 29.1401V46.7018H129.523V28.6385C129.523 28.4217 129.563 28.1119 129.641 27.7086C129.72 27.3053 129.931 26.9072 130.275 26.5132C130.62 26.1196 131.127 25.7803 131.797 25.495C132.466 25.2103 133.393 25.0672 134.574 25.0672C135.519 25.0672 136.287 25.1609 136.877 25.3472C137.468 25.5345 137.951 25.766 138.324 26.0415C138.718 25.766 139.211 25.5345 139.802 25.3472C140.392 25.1609 141.161 25.0672 142.106 25.0672C143.287 25.0672 144.212 25.2101 144.882 25.495C145.551 25.7803 146.054 26.1196 146.388 26.5132C146.723 26.9074 146.929 27.3053 147.009 27.7086C147.087 28.1119 147.127 28.4217 147.127 28.6385V46.7018H144.645Z" fill="#252422"/>
<path d="M43.0204 50.1542L47.5427 57.1128H47.567V50.1542H48.6491V58.7354H47.3985L42.9123 51.849H42.888V58.7354H41.8057V50.1542H43.0204Z" fill="#252422"/>
<path d="M62.0823 50.1542V51.1162H57.296V53.8435H61.7579V54.8055H57.296V57.7741H62.1187V58.7354H56.1536V50.1542H62.0823Z" fill="#252422"/>
<path d="M68.2402 51.1157V50.154H75.1079V51.1157H72.2453V58.7352H71.1022V51.1157H68.2402Z" fill="#252422"/>
<path d="M88.2765 58.7352L86.3162 51.524H86.2927L84.3072 58.7352H83.1177L80.9161 50.1542H82.0827L83.7664 57.2931H83.7903L85.7154 50.1542H86.9536L88.8544 57.2931H88.8781L90.622 50.1542H91.7644L89.4669 58.7352H88.2765Z" fill="#252422"/>
<path d="M99.3295 55.7245C99.4406 56.1454 99.6172 56.5236 99.8579 56.8607C100.099 57.197 100.407 57.4673 100.784 57.6721C101.161 57.8761 101.61 57.978 102.131 57.978C102.652 57.978 103.101 57.8761 103.478 57.6721C103.855 57.4673 104.165 57.1972 104.404 56.8607C104.644 56.5236 104.821 56.1454 104.934 55.7245C105.046 55.3036 105.102 54.8775 105.102 54.4445C105.102 54.0123 105.046 53.5853 104.934 53.1647C104.821 52.7438 104.644 52.3654 104.404 52.0291C104.165 51.6928 103.855 51.4219 103.478 51.2179C103.101 51.0138 102.652 50.9111 102.131 50.9111C101.61 50.9111 101.161 51.0138 100.784 51.2179C100.407 51.4219 100.099 51.6926 99.8579 52.0291C99.6172 52.3654 99.4406 52.7438 99.3295 53.1647C99.2174 53.5853 99.1603 54.0125 99.1603 54.4445C99.1603 54.8777 99.2172 55.3036 99.3295 55.7245ZM98.2769 52.7566C98.4491 52.2153 98.7081 51.7367 99.0529 51.3197C99.3972 50.9035 99.826 50.571 100.339 50.3219C100.852 50.0739 101.45 49.9498 102.131 49.9498C102.813 49.9498 103.41 50.0739 103.923 50.3219C104.436 50.5707 104.866 50.9035 105.21 51.3197C105.555 51.7367 105.814 52.2153 105.986 52.7566C106.158 53.2968 106.245 53.86 106.245 54.4443C106.245 55.0296 106.158 55.5928 105.986 56.1328C105.814 56.6741 105.555 57.1527 105.21 57.5689C104.866 57.9861 104.436 58.3163 103.923 58.5606C103.41 58.8049 102.813 58.9272 102.131 58.9272C101.45 58.9272 100.853 58.8046 100.339 58.5606C99.826 58.3163 99.3972 57.9861 99.0529 57.5689C98.7079 57.1527 98.4491 56.6741 98.2769 56.1328C98.1043 55.5926 98.0181 55.0294 98.0181 54.4443C98.0181 53.8598 98.1043 53.2966 98.2769 52.7566Z" fill="#252422"/>
<path d="M117.573 54.0481C117.813 54.0086 118.025 53.9301 118.205 53.8136C118.385 53.6979 118.53 53.5413 118.637 53.3447C118.746 53.1484 118.8 52.8943 118.8 52.5823C118.8 52.1491 118.68 51.797 118.439 51.5245C118.199 51.252 117.81 51.1157 117.273 51.1157H114.435V54.1082H116.816C117.081 54.1082 117.334 54.0885 117.573 54.0481H117.573ZM117.333 50.154C118.15 50.154 118.79 50.3551 119.251 50.7551C119.712 51.1561 119.942 51.705 119.942 52.4018C119.942 52.9223 119.824 53.379 119.588 53.7717C119.351 54.1646 118.972 54.4325 118.451 54.577V54.6013C118.699 54.6493 118.902 54.73 119.058 54.8411C119.215 54.9537 119.339 55.0875 119.431 55.2435C119.524 55.4004 119.591 55.5746 119.636 55.7664C119.681 55.9588 119.715 56.1591 119.738 56.3676C119.754 56.5758 119.766 56.7885 119.775 57.0043C119.782 57.2204 119.802 57.433 119.834 57.6413C119.867 57.8498 119.912 58.0477 119.972 58.2364C120.032 58.4243 120.123 58.5912 120.243 58.735H118.968C118.888 58.6465 118.834 58.5265 118.806 58.3751C118.778 58.2221 118.76 58.0525 118.752 57.8637C118.743 57.6758 118.735 57.4734 118.727 57.2573C118.72 57.0412 118.696 56.8288 118.656 56.6203C118.624 56.4118 118.583 56.214 118.535 56.0252C118.487 55.8373 118.411 55.6729 118.307 55.5329C118.202 55.393 118.066 55.2802 117.898 55.1958C117.729 55.1121 117.505 55.0693 117.224 55.0693H114.435V58.7352H113.292V50.154H117.333Z" fill="#252422"/>
<path d="M128.326 50.1542V54.4328L132.679 50.1542H134.158L130.538 53.6153L134.303 58.7354H132.86L129.757 54.397L128.326 55.7308V58.7354H127.183V50.1542H128.326Z" fill="#252422"/>
<path d="M145.157 51.3264C144.776 51.05 144.289 50.9116 143.695 50.9116C143.455 50.9116 143.218 50.9359 142.986 50.9838C142.753 51.0318 142.547 51.1118 142.366 51.2244C142.186 51.3362 142.041 51.4861 141.934 51.6748C141.826 51.8636 141.771 52.0972 141.771 52.3771C141.771 52.642 141.849 52.8566 142.005 53.021C142.161 53.1846 142.37 53.3193 142.631 53.4235C142.891 53.5276 143.186 53.6138 143.515 53.6814C143.843 53.75 144.179 53.8238 144.519 53.9036C144.86 53.9843 145.195 54.0778 145.523 54.1861C145.852 54.2948 146.147 54.441 146.407 54.625C146.667 54.8092 146.877 55.0413 147.032 55.3223C147.189 55.6032 147.267 55.9554 147.267 56.3802C147.267 56.8366 147.165 57.2272 146.961 57.5513C146.756 57.8754 146.493 58.1401 146.172 58.3449C145.852 58.5491 145.492 58.6975 145.096 58.7892C144.699 58.8814 144.304 58.9279 143.911 58.9279C143.43 58.9279 142.975 58.8678 142.546 58.7467C142.118 58.6272 141.741 58.4445 141.415 58.2002C141.091 57.9559 140.834 57.6433 140.646 57.2627C140.457 56.8822 140.364 56.4316 140.364 55.9104H141.446C141.446 56.2719 141.516 56.5815 141.656 56.8425C141.796 57.1028 141.981 57.3174 142.209 57.4855C142.438 57.653 142.704 57.7778 143.009 57.8576C143.314 57.9377 143.626 57.978 143.947 57.978C144.204 57.978 144.462 57.9537 144.723 57.9058C144.983 57.8576 145.218 57.7754 145.426 57.6593C145.635 57.5435 145.803 57.3853 145.932 57.1853C146.06 56.985 146.124 56.7286 146.124 56.4157C146.124 56.1198 146.046 55.8792 145.889 55.6944C145.733 55.511 145.525 55.3602 145.264 55.244C145.004 55.1281 144.709 55.0339 144.38 54.9615C144.052 54.8892 143.716 54.8153 143.376 54.7393C143.035 54.6632 142.7 54.5749 142.372 54.4744C142.043 54.3748 141.748 54.2431 141.488 54.0778C141.227 53.9142 141.018 53.7018 140.863 53.4408C140.706 53.1814 140.628 52.8542 140.628 52.4615C140.628 52.0291 140.716 51.6549 140.892 51.3383C141.069 51.0216 141.303 50.7614 141.596 50.5568C141.888 50.3529 142.221 50.2006 142.594 50.1002C142.967 50.0006 143.35 49.9502 143.744 49.9502C144.184 49.9502 144.594 50.0021 144.97 50.1064C145.347 50.2106 145.678 50.375 145.963 50.5987C146.247 50.8233 146.472 51.1055 146.635 51.4466C146.8 51.7868 146.89 52.1938 146.906 52.6665H145.824C145.76 52.0493 145.537 51.6026 145.157 51.3264H145.157Z" fill="#252422"/>
<path fill-rule="evenodd" clip-rule="evenodd" d="M34.9329 58.2164V25.7854C34.9329 25.3515 34.5819 25 34.1487 25H1.69339C1.26003 25 0.90918 25.3517 0.90918 25.7854V58.2164C0.90918 58.6494 1.26025 59 1.69339 59H34.1487C34.5821 59 34.9329 58.6492 34.9329 58.2164Z" fill="url(#paint0_linear_2375_2110)"/>
<path d="M29.198 43.1141H29.6381V53.7204H6.25371V46.9931H19.944C20.9158 46.9931 21.7078 46.2025 21.7078 45.2299C21.7078 44.2566 20.9158 43.4652 19.944 43.4652H16.2177C13.6627 43.4652 11.5843 41.3885 11.5843 38.8345C11.5843 36.2805 13.6625 34.2022 16.2177 34.2022H24.3663V34.6435H26.4919V32.5195H24.3663V32.9608H16.2177C12.9773 32.9608 10.3422 35.5953 10.3422 38.8345C10.3422 42.0717 12.977 44.7072 16.2177 44.7072H19.944C20.231 44.7072 20.4648 44.9409 20.4648 45.2299C20.4648 45.5176 20.231 45.7519 19.944 45.7519H5.01074V54.9614H30.8799V43.1141H31.3233V40.9901H29.1978V43.1141H29.198Z" fill="#F5F5F5"/>
<path d="M5.01149 40.8437H4.56836V42.9677H6.69389V40.8437H6.25381V30.2383H29.6382V36.9648H15.9477C14.9759 36.9648 14.1841 37.7556 14.1841 38.7288C14.1841 39.7012 14.9759 40.492 15.9477 40.492H19.674C22.229 40.492 24.3074 42.5687 24.3074 45.1236C24.3074 47.6774 22.2292 49.7556 19.674 49.7556H11.5253V49.3143H9.39738V51.4383H11.5253V50.997H19.674C22.9144 50.997 25.5495 48.3625 25.5495 45.1236C25.5495 41.8862 22.9146 39.2523 19.674 39.2523H15.9477C15.6607 39.2523 15.4268 39.0178 15.4268 38.7288C15.4268 38.4405 15.6607 38.206 15.9477 38.206H30.8809V28.9971H5.0117V40.8437H5.01149Z" fill="#F5F5F5"/>
<defs>
<linearGradient id="paint0_linear_2375_2110" x1="6.35285" y1="53.3242" x2="31.2623" y2="28.9054" gradientUnits="userSpaceOnUse">
<stop stop-color="#363785"/>
<stop offset="0.145098" stop-color="#2F559F"/>
<stop offset="0.270588" stop-color="#2873B9"/>
<stop offset="0.478431" stop-color="#624E9E"/>
<stop offset="0.670588" stop-color="#9C2883"/>
<stop offset="1" stop-color="#D62056"/>
</linearGradient>
</defs>
</svg>
