<svg width="328" height="276" viewBox="0 0 328 276" fill="none" xmlns="http://www.w3.org/2000/svg">
<mask id="mask0_2233_2151" style="mask-type:alpha" maskUnits="userSpaceOnUse" x="0" y="0" width="328" height="276">
<rect x="0.385742" width="327.592" height="276" rx="16" fill="#374557"/>
</mask>
<g mask="url(#mask0_2233_2151)">
<rect x="0.385742" width="327.592" height="276" rx="16" fill="#41246D"/>
<g opacity="0.25" clip-path="url(#clip0_2233_2151)">
<path d="M327.334 95.0312H243.752C240.058 95.0353 236.518 96.4524 233.906 98.9715C231.295 101.491 229.826 104.906 229.821 108.469V236.125C229.821 237.36 230.174 238.57 230.84 239.624C231.507 240.678 232.462 241.534 233.6 242.099C234.738 242.664 236.015 242.916 237.291 242.826C238.568 242.737 239.794 242.31 240.835 241.592L285.537 210.788L330.252 241.592C331.293 242.31 332.519 242.737 333.795 242.826C335.072 242.916 336.349 242.664 337.487 242.099C338.625 241.534 339.579 240.678 340.246 239.624C340.912 238.57 341.265 237.359 341.265 236.125V108.469C341.261 104.906 339.792 101.491 337.18 98.9715C334.568 96.4524 331.028 95.0353 327.334 95.0312Z" fill="white"/>
<path d="M355.195 68.1562H264.647C262.8 68.1562 261.028 68.8641 259.722 70.1241C258.415 71.3841 257.682 73.0931 257.682 74.875C257.682 76.6569 258.415 78.3659 259.722 79.6259C261.028 80.8859 262.8 81.5938 264.647 81.5938H355.195V209.25C355.195 211.032 355.929 212.741 357.235 214.001C358.541 215.261 360.313 215.969 362.16 215.969C364.007 215.969 365.779 215.261 367.085 214.001C368.391 212.741 369.125 211.032 369.125 209.25V81.5938C369.121 78.0312 367.652 74.6156 365.04 72.0965C362.429 69.5774 358.888 68.1603 355.195 68.1562Z" fill="white"/>
</g>
</g>
<defs>
<clipPath id="clip0_2233_2151">
<rect width="222.887" height="215" fill="white" transform="translate(188.024 48)"/>
</clipPath>
</defs>
</svg>
