<svg width="126" height="96" viewBox="0 0 126 96" fill="none" xmlns="http://www.w3.org/2000/svg">
<path fill-rule="evenodd" clip-rule="evenodd" d="M29.0769 0C12.9683 0 0 9.88058 0 22.1538V73.8462C0 86.1194 12.9683 96 29.0769 96H96.9231C113.032 96 126 86.1194 126 73.8462V22.1538C126 9.88058 113.032 0 96.9231 0H29.0769ZM45.9533 25.8462C46.5283 25.8304 47.0921 25.9711 47.5434 26.2428L81.4665 46.5505C82.6965 47.2896 82.6965 48.7104 81.4665 49.4495C70.1612 56.2178 58.8487 62.9821 47.5434 69.75C45.9506 70.7119 43.6045 69.8419 43.6154 68.2933V27.6923C43.6146 26.6977 44.6486 25.8855 45.9533 25.8462Z" fill="white"/>
</svg>
