<svg width="70" height="42" viewBox="0 0 70 42" fill="none" xmlns="http://www.w3.org/2000/svg">
<path fill-rule="evenodd" clip-rule="evenodd" d="M16.1538 0C7.20462 0 0 4.32275 0 9.69231V32.3077C0 37.6772 7.20462 42 16.1538 42H53.8462C62.7954 42 70 37.6772 70 32.3077V9.69231C70 4.32275 62.7954 0 53.8462 0H16.1538ZM25.5296 11.3077C25.8491 11.3008 26.1623 11.3624 26.413 11.4812L45.2592 20.3658C45.9425 20.6892 45.9425 21.3108 45.2592 21.6342C38.9785 24.5953 32.6937 27.5547 26.413 30.5156C25.5281 30.9365 24.2247 30.5558 24.2308 29.8783V12.1154C24.2303 11.6802 24.8048 11.3249 25.5296 11.3077Z" fill="white"/>
</svg>
