<svg width="32" height="32" viewBox="0 0 32 32" fill="none" xmlns="http://www.w3.org/2000/svg">
<g clip-path="url(#clip0_1061_1106)">
<path fill-rule="evenodd" clip-rule="evenodd" d="M9.5451 20.3542C9.5451 20.6118 9.3362 20.8209 9.07842 20.8209C8.82048 20.8209 8.61174 20.6118 8.61174 20.3542V18.4876C8.61174 18.2299 8.82053 18.0209 9.07842 18.0209C9.33625 18.0209 9.5451 18.2299 9.5451 18.4876V20.3542ZM9.5451 25.0208C9.5451 25.2785 9.3362 25.4875 9.07842 25.4875C8.82048 25.4875 8.61174 25.2785 8.61174 25.0208V23.1541C8.61174 22.8965 8.82053 22.6875 9.07842 22.6875C9.33625 22.6875 9.5451 22.8965 9.5451 23.1541V25.0208ZM13.7222 11.1164C13.564 11.3195 13.2705 11.3561 13.0674 11.1977C12.8641 11.0392 12.8276 10.7459 12.9861 10.5427L14.1331 9.07017C14.2917 8.86705 14.585 8.83045 14.7883 8.98896C14.9914 9.14741 15.028 9.44072 14.8693 9.64396L13.7222 11.1164ZM26.7057 12.4414L17.984 5.64628L16.5904 7.43507C16.4318 7.63842 16.1387 7.67486 15.9352 7.5164C15.7321 7.358 15.6955 7.06469 15.8541 6.86151L17.2477 5.07254L13.9632 2.51367C12.9007 1.68586 11.3542 1.87789 10.5263 2.9405L9.11844 4.74756C10.6752 5.96044 10.9538 8.20554 9.74088 9.76212C8.52806 11.3188 6.28285 11.5975 4.72633 10.3848L3.31834 12.1921C3.17597 12.3749 3.06359 12.5722 2.9808 12.7776C3.42517 12.5622 3.92307 12.4414 4.44804 12.4414H26.7057ZM4.44798 13.3746H8.61169V15.6877C8.61169 15.9454 8.82048 16.1543 9.07837 16.1543C9.3362 16.1543 9.54504 15.9454 9.54504 15.6877V13.3746H27.5513C28.8983 13.3746 30.0003 14.4766 30.0003 15.8236V18.1144C28.027 18.1144 26.4272 19.7142 26.4272 21.6876C26.4272 23.6608 28.027 25.2606 30.0003 25.2606V27.5517C30.0003 28.8985 28.8983 30.0004 27.5513 30.0004H9.5451V27.821C9.5451 27.5633 9.3362 27.3543 9.07842 27.3543C8.82048 27.3543 8.61174 27.5633 8.61174 27.821V30.0004H4.44798C3.10092 30.0004 1.99902 28.8985 1.99902 27.5517V25.2606C3.97228 25.2606 5.57213 23.6608 5.57213 21.6876C5.57213 19.7142 3.97228 18.1144 1.99902 18.1144V15.8236C1.99902 14.4766 3.10092 13.3746 4.44798 13.3746Z" fill="#929292"/>
</g>
<defs>
<clipPath id="clip0_1061_1106">
<rect width="32" height="32" fill="white"/>
</clipPath>
</defs>
</svg>
