<svg width="56" height="56" viewBox="0 0 56 56" fill="none" xmlns="http://www.w3.org/2000/svg">
<rect x="4" y="4" width="48" height="48" rx="24" fill="#FEF0C7"/>
<rect x="4" y="4" width="48" height="48" rx="24" stroke="#FFFAEB" stroke-width="8"/>
<path d="M18.2577 33.3069L26.4613 19.8589C26.7845 19.3291 27.3741 19 28 19C28.6259 19 29.2155 19.3291 29.5387 19.8589L37.7424 33.3069C38.0764 33.8545 38.0863 34.5406 37.7682 35.0973C37.45 35.6541 36.8506 36 36.2037 36H19.7963C19.1495 36 18.55 35.6541 18.2318 35.0973C17.9137 34.5405 17.9236 33.8544 18.2577 33.3069ZM19.3656 34.4644C19.4532 34.6177 19.6183 34.7129 19.7963 34.7129H36.2037C36.3818 34.7129 36.5468 34.6177 36.6344 34.4645C36.7219 34.3112 36.7192 34.1223 36.6273 33.9716L28.4236 20.5236C28.3346 20.3777 28.1723 20.2871 28 20.2871C27.8277 20.2871 27.6654 20.3777 27.5764 20.5236L19.3728 33.9716C19.2808 34.1223 19.2781 34.3112 19.3656 34.4644Z" fill="#DC6803"/>
<path d="M27.994 24.2956C28.4893 24.2956 28.8759 24.5583 28.8759 25.0241C28.8759 26.445 28.7068 28.487 28.7068 29.908C28.7067 30.2781 28.3805 30.4334 27.994 30.4334C27.704 30.4334 27.2933 30.2781 27.2933 29.908C27.2933 28.487 27.1242 26.4451 27.1242 25.0241C27.1242 24.5584 27.5228 24.2956 27.994 24.2956Z" fill="#DC6803"/>
<path d="M27.9818 31.2573C28.5134 31.2573 28.9121 31.6752 28.9121 32.1767C28.9121 32.6663 28.5134 33.0962 27.9818 33.0962C27.4865 33.0962 27.0637 32.6663 27.0637 32.1767C27.0637 31.6752 27.4866 31.2573 27.9818 31.2573Z" fill="#DC6803"/>
</svg>
