<svg width="16" height="16" viewBox="0 0 16 16" fill="none" xmlns="http://www.w3.org/2000/svg">
<g clip-path="url(#clip0_2495_2536)">
<g clip-path="url(#clip1_2495_2536)">
<path d="M6.59307 0.228425C6.40557 0.0315502 6.12432 -0.0434498 5.86182 0.0253002C5.59932 0.0940502 5.3962 0.303425 5.32745 0.565925L4.8337 2.51905L2.8962 1.97218C2.6337 1.89718 2.35245 1.97218 2.16182 2.1628C1.9712 2.35343 1.8962 2.63468 1.9712 2.89718L2.51807 4.83468L0.564949 5.33155C0.302449 5.39718 0.0961986 5.60343 0.0243236 5.86593C-0.0475513 6.12843 0.0305737 6.40655 0.227449 6.59405L1.6712 8.0003L0.227449 9.40655C0.0305737 9.59405 -0.0444264 9.8753 0.0243236 10.1378C0.0930737 10.4003 0.302449 10.6034 0.564949 10.6722L2.51807 11.1659L1.9712 13.1034C1.8962 13.3659 1.9712 13.6472 2.16182 13.8378C2.35245 14.0284 2.6337 14.1034 2.8962 14.0284L4.8337 13.4816L5.32745 15.4347C5.39307 15.6972 5.59932 15.9034 5.86182 15.9753C6.12432 16.0472 6.40245 15.9691 6.59307 15.7753L7.99932 14.3316L9.40557 15.7753C9.5962 15.9691 9.87432 16.0472 10.1368 15.9753C10.3993 15.9034 10.6024 15.6972 10.6712 15.4347L11.1649 13.4816L13.1024 14.0284C13.3649 14.1034 13.6462 14.0284 13.8368 13.8378C14.0274 13.6472 14.1024 13.3659 14.0274 13.1034L13.4806 11.1659L15.4337 10.6722C15.6962 10.6066 15.9024 10.4003 15.9743 10.1378C16.0462 9.8753 15.9681 9.59718 15.7743 9.40655L14.3306 8.0003L15.7743 6.59405C15.9681 6.40343 16.0462 6.1253 15.9743 5.8628C15.9024 5.6003 15.6962 5.39718 15.4337 5.32843L13.4806 4.83468L14.0274 2.89718C14.1024 2.63468 14.0274 2.35343 13.8368 2.1628C13.6462 1.97218 13.3649 1.89718 13.1024 1.97218L11.1649 2.51905L10.6681 0.565925C10.6024 0.303425 10.3962 0.0971752 10.1337 0.0253002C9.8712 -0.0465748 9.59307 0.0315502 9.40557 0.228425L7.99932 1.67218L6.59307 0.228425Z" fill="white"/>
</g>
</g>
<defs>
<clipPath id="clip0_2495_2536">
<rect width="16" height="16" fill="white"/>
</clipPath>
<clipPath id="clip1_2495_2536">
<path d="M0 0H16V16H0V0Z" fill="white"/>
</clipPath>
</defs>
</svg>
