<svg width="43" height="47" viewBox="0 0 43 47" fill="none" xmlns="http://www.w3.org/2000/svg">
<path d="M21.5782 0.170166L26.0189 4.64696L21.5782 9.12376L17.1375 4.64696L21.5782 0.170166ZM0.0625445 11.1415C3.62764 11.173 6.03564 11.2361 9.13164 12.5286C11.9775 13.7267 13.4785 15.303 15.0735 17.037C19.264 21.5453 19.2953 27.1255 19.1702 34.3451C19.0764 41.9746 11.1644 43.9608 7.31782 40.1776C5.03491 37.9392 4.816 36.2368 4.816 32.0752C4.816 28.4812 4.78473 24.8556 4.816 21.2616C11.3207 23.5315 9.13163 30.8772 9.632 34.755C9.632 35.1648 9.72582 35.5747 9.91345 35.9215C10.6015 37.5294 13.1658 37.7185 13.9476 36.1422C14.3229 35.6062 14.3855 34.9442 14.3542 34.3136C14.3855 33.5885 14.3542 32.8003 14.3542 32.0752C14.3542 26.3058 14.448 23.6891 11.2895 19.969C8.6 16.8163 5.47273 16.0281 0.0312723 15.9335C0.187636 20.8202 -0.469091 32.359 1.09455 38.7589C1.75127 40.9658 3.06473 42.8889 4.78473 44.3076V44.3707C6.59854 45.7578 8.72509 46.5775 10.8829 46.7982C11.1956 46.8297 11.5396 46.8297 11.8524 46.8297C15.9178 46.8297 19.4829 44.6544 21.4531 41.3756C23.4233 44.6544 26.9884 46.8297 31.0538 46.8297C33.7745 46.8297 36.2764 45.8524 38.2153 44.2445C39.9665 42.7943 41.2487 40.8081 41.8742 38.5697C43.4065 32.0122 42.9062 20.631 42.9687 15.9651C37.5273 16.0596 34.4313 16.8478 31.7105 20.0005C28.4269 23.8152 28.6458 26.2113 28.6458 32.1068C28.6458 34.5343 28.4269 37.2771 31.1476 37.2456C32.2735 37.2456 33.2116 36.4259 33.4305 35.3225V35.354C33.4305 35.2279 33.4618 35.1018 33.4618 34.9757C33.4305 33.5255 33.4305 31.7915 33.4618 30.3097C33.5244 26.7787 33.8058 22.8694 38.2153 21.3561C38.2465 24.8556 38.2153 28.3866 38.2153 31.8861C38.2153 35.9845 38.1527 37.8131 35.8698 40.1461C31.4291 44.6544 24.0487 41.3126 23.8924 34.755C23.7047 27.7561 23.9236 21.6399 27.864 17.3207C29.4276 15.5867 30.96 13.9474 33.7433 12.7493C36.8705 11.3937 39.3724 11.2991 43 11.2676V6.31788C37.2771 6.31788 33.8058 6.97994 29.4902 9.43903C27.7702 10.4164 26.1753 11.9296 25.0182 13.1592C22.7978 15.5552 22.4225 16.8163 21.5156 17.7936C20.1709 16.3434 18.4196 12.1819 13.5411 9.43903C9.13163 6.94842 5.848 6.31788 0 6.31788V11.1415H0.0625445Z" fill="white"/>
</svg>
