<svg width="22" height="22" viewBox="0 0 22 22" fill="none" xmlns="http://www.w3.org/2000/svg">
<path d="M2.99967 0.333252C1.52691 0.333252 0.333008 1.52716 0.333008 2.99992V6.99992C0.333008 8.47272 1.52691 9.66658 2.99967 9.66658H6.99967C8.47247 9.66658 9.66634 8.47272 9.66634 6.99992V2.99992C9.66634 1.52716 8.47247 0.333252 6.99967 0.333252H2.99967ZM14.9997 0.333252C13.5269 0.333252 12.333 1.52716 12.333 2.99992V6.99992C12.333 8.47272 13.5269 9.66658 14.9997 9.66658H18.9997C20.4725 9.66658 21.6663 8.47272 21.6663 6.99992V2.99992C21.6663 1.52716 20.4725 0.333252 18.9997 0.333252H14.9997ZM0.333008 14.9999C0.333008 13.5271 1.52691 12.3333 2.99967 12.3333H6.99967C8.47247 12.3333 9.66634 13.5271 9.66634 14.9999V18.9999C9.66634 20.4727 8.47247 21.6666 6.99967 21.6666H2.99967C1.52691 21.6666 0.333008 20.4727 0.333008 18.9999V14.9999ZM14.9997 12.3333C13.5269 12.3333 12.333 13.5271 12.333 14.9999V18.9999C12.333 20.4727 13.5269 21.6666 14.9997 21.6666H18.9997C20.4725 21.6666 21.6663 20.4727 21.6663 18.9999V14.9999C21.6663 13.5271 20.4725 12.3333 18.9997 12.3333H14.9997Z" fill="white"/>
</svg>
