<svg width="227" height="187" viewBox="0 0 227 187" fill="none" xmlns="http://www.w3.org/2000/svg">
<path d="M0.526368 144.565H4.44123L8.48768 159.699L9.04695 161.968H9.24434L9.9023 159.699L13.8172 147.724H17.3043L21.2192 159.699L21.8772 161.936H22.0746L22.568 159.699L26.4171 144.565H30.332L24.0813 168.12H20.3968L16.3503 155.718L15.6594 153.382H15.4621L14.8041 155.718L10.7247 168.12H7.04017L0.526368 144.565ZM38.4179 151.474C39.6461 151.474 40.7756 151.693 41.8064 152.132C42.8372 152.549 43.7255 153.141 44.4712 153.908C45.2168 154.676 45.798 155.586 46.2148 156.639C46.6315 157.692 46.8398 158.832 46.8398 160.06C46.8398 161.289 46.6315 162.429 46.2148 163.482C45.798 164.535 45.2168 165.445 44.4712 166.212C43.7255 166.98 42.8372 167.583 41.8064 168.022C40.7756 168.438 39.6461 168.647 38.4179 168.647C37.1897 168.647 36.0602 168.438 35.0294 168.022C33.9986 167.583 33.1104 166.98 32.3647 166.212C31.619 165.445 31.0378 164.535 30.6211 163.482C30.2044 162.429 29.996 161.289 29.996 160.06C29.996 158.832 30.2044 157.692 30.6211 156.639C31.0378 155.586 31.619 154.676 32.3647 153.908C33.1104 153.141 33.9986 152.549 35.0294 152.132C36.0602 151.693 37.1897 151.474 38.4179 151.474ZM38.4179 165.258C39.032 165.258 39.6242 165.138 40.1944 164.896C40.7646 164.655 41.2691 164.315 41.7077 163.877C42.1683 163.438 42.5302 162.901 42.7934 162.265C43.0565 161.607 43.1881 160.872 43.1881 160.06C43.1881 159.249 43.0565 158.525 42.7934 157.889C42.5302 157.231 42.1683 156.683 41.7077 156.244C41.2691 155.806 40.7646 155.466 40.1944 155.224C39.6242 154.983 39.032 154.863 38.4179 154.863C37.8038 154.863 37.2117 154.983 36.6414 155.224C36.0712 155.466 35.5558 155.806 35.0952 156.244C34.6566 156.683 34.3057 157.231 34.0425 157.889C33.7793 158.525 33.6477 159.249 33.6477 160.06C33.6477 160.872 33.7793 161.607 34.0425 162.265C34.3057 162.901 34.6566 163.438 35.0952 163.877C35.5558 164.315 36.0712 164.655 36.6414 164.896C37.2117 165.138 37.8038 165.258 38.4179 165.258ZM49.2938 152H52.7481V154.172H52.9455C53.4499 153.382 54.1517 152.735 55.0509 152.231C55.9502 151.726 56.9042 151.474 57.9131 151.474C59.1193 151.474 60.1501 151.759 61.0055 152.329C61.8828 152.878 62.5188 153.601 62.9136 154.501C63.4619 153.645 64.1966 152.933 65.1177 152.362C66.0389 151.77 67.1464 151.474 68.4404 151.474C69.4274 151.474 70.2827 151.639 71.0065 151.968C71.7302 152.275 72.3224 152.713 72.783 153.283C73.2655 153.854 73.6274 154.545 73.8686 155.356C74.1099 156.146 74.2305 157.034 74.2305 158.021V168.12H70.5788V158.646C70.5788 157.242 70.3047 156.266 69.7564 155.718C69.23 155.148 68.4514 154.863 67.4206 154.863C66.8284 154.863 66.2911 154.994 65.8086 155.257C65.348 155.52 64.9532 155.882 64.6243 156.343C64.2953 156.782 64.0431 157.297 63.8676 157.889C63.6922 158.481 63.6044 159.106 63.6044 159.764V168.12H59.9527V158.646C59.9527 157.242 59.6676 156.266 59.0974 155.718C58.5491 155.148 57.7486 154.863 56.6958 154.863C56.1256 154.863 55.6102 154.994 55.1496 155.257C54.6891 155.52 54.2943 155.882 53.9653 156.343C53.6363 156.782 53.3841 157.297 53.2087 157.889C53.0332 158.481 52.9455 159.106 52.9455 159.764V168.12H49.2938V152ZM92.7261 164.271C92.0462 165.521 91.0812 166.563 89.8311 167.397C88.581 168.23 87.0457 168.647 85.2254 168.647C84.0191 168.647 82.9006 168.438 81.8698 168.022C80.8609 167.583 79.9836 166.98 79.2379 166.212C78.4922 165.445 77.911 164.546 77.4943 163.515C77.0776 162.462 76.8693 161.311 76.8693 160.06C76.8693 158.898 77.0667 157.801 77.4614 156.771C77.8562 155.718 78.4045 154.808 79.1063 154.04C79.8301 153.251 80.6964 152.625 81.7053 152.165C82.7141 151.704 83.8327 151.474 85.0609 151.474C86.311 151.474 87.4186 151.682 88.3836 152.099C89.3705 152.516 90.2039 153.097 90.8838 153.843C91.5637 154.588 92.0791 155.488 92.43 156.54C92.8029 157.593 92.9893 158.744 92.9893 159.995C92.9893 160.104 92.9893 160.203 92.9893 160.291C92.9674 160.4 92.9564 160.499 92.9564 160.587C92.9345 160.675 92.9235 160.762 92.9235 160.85H80.5209C80.5867 161.618 80.7732 162.287 81.0802 162.857C81.3873 163.427 81.7601 163.899 82.1987 164.271C82.6593 164.644 83.1637 164.918 83.712 165.094C84.2603 165.269 84.7977 165.357 85.3241 165.357C86.3768 165.357 87.2431 165.105 87.923 164.6C88.6029 164.096 89.1622 163.471 89.6008 162.725L92.7261 164.271ZM89.3376 158.054C89.2937 157.725 89.1841 157.363 89.0086 156.968C88.8551 156.551 88.6029 156.178 88.252 155.849C87.923 155.499 87.4844 155.202 86.9361 154.961C86.4097 154.72 85.7627 154.599 84.9951 154.599C83.9423 154.599 83.0322 154.917 82.2645 155.553C81.5188 156.167 81.0144 157.001 80.7512 158.054H89.3376ZM99.2037 154.172H99.401C99.8836 153.404 100.563 152.768 101.441 152.264C102.34 151.737 103.349 151.474 104.467 151.474C106.507 151.474 108.031 152.088 109.04 153.316C110.049 154.523 110.553 156.135 110.553 158.152V168.12H106.902V158.646C106.902 157.242 106.573 156.266 105.915 155.718C105.279 155.148 104.434 154.863 103.382 154.863C102.746 154.863 102.186 154.994 101.704 155.257C101.221 155.52 100.805 155.882 100.454 156.343C100.103 156.782 99.8397 157.297 99.6642 157.889C99.4888 158.459 99.401 159.063 99.401 159.699V168.12H95.7494V152H99.2037V154.172ZM125.566 148.118V154.599H135.14V158.087H125.566V164.567H136.192V168.12H121.849V144.565H136.192V148.118H125.566ZM139.731 168.12V144.565H143.383V168.12H139.731ZM161.831 164.271C161.151 165.521 160.186 166.563 158.936 167.397C157.686 168.23 156.151 168.647 154.33 168.647C153.124 168.647 152.006 168.438 150.975 168.022C149.966 167.583 149.089 166.98 148.343 166.212C147.597 165.445 147.016 164.546 146.599 163.515C146.183 162.462 145.974 161.311 145.974 160.06C145.974 158.898 146.172 157.801 146.567 156.771C146.961 155.718 147.51 154.808 148.211 154.04C148.935 153.251 149.801 152.625 150.81 152.165C151.819 151.704 152.938 151.474 154.166 151.474C155.416 151.474 156.524 151.682 157.489 152.099C158.476 152.516 159.309 153.097 159.989 153.843C160.669 154.588 161.184 155.488 161.535 156.54C161.908 157.593 162.094 158.744 162.094 159.995C162.094 160.104 162.094 160.203 162.094 160.291C162.072 160.4 162.061 160.499 162.061 160.587C162.04 160.675 162.029 160.762 162.029 160.85H149.626C149.692 161.618 149.878 162.287 150.185 162.857C150.492 163.427 150.865 163.899 151.304 164.271C151.764 164.644 152.269 164.918 152.817 165.094C153.365 165.269 153.903 165.357 154.429 165.357C155.482 165.357 156.348 165.105 157.028 164.6C157.708 164.096 158.267 163.471 158.706 162.725L161.831 164.271ZM158.443 158.054C158.399 157.725 158.289 157.363 158.114 156.968C157.96 156.551 157.708 156.178 157.357 155.849C157.028 155.499 156.589 155.202 156.041 154.961C155.515 154.72 154.868 154.599 154.1 154.599C153.047 154.599 152.137 154.917 151.37 155.553C150.624 156.167 150.119 157.001 149.856 158.054H158.443ZM162.822 152H166.935L171.277 163.383H171.442L175.883 152H179.897L173.152 168.12H169.501L162.822 152ZM191.759 166.147H191.561C191.079 166.783 190.454 167.364 189.686 167.89C188.919 168.395 187.943 168.647 186.758 168.647C185.903 168.647 185.102 168.504 184.357 168.219C183.611 167.956 182.964 167.583 182.416 167.101C181.868 166.596 181.429 166.015 181.1 165.357C180.793 164.677 180.639 163.931 180.639 163.12C180.639 162.265 180.804 161.497 181.133 160.817C181.484 160.137 181.955 159.567 182.547 159.106C183.161 158.646 183.885 158.295 184.719 158.054C185.552 157.79 186.451 157.659 187.416 157.659C188.491 157.659 189.39 157.769 190.114 157.988C190.838 158.185 191.386 158.372 191.759 158.547V157.922C191.759 157.44 191.649 156.99 191.43 156.573C191.232 156.157 190.947 155.806 190.575 155.52C190.224 155.213 189.818 154.983 189.357 154.83C188.897 154.654 188.414 154.566 187.91 154.566C187.098 154.566 186.364 154.731 185.706 155.06C185.07 155.367 184.499 155.871 183.995 156.573L181.1 154.665C181.868 153.612 182.822 152.823 183.962 152.296C185.102 151.748 186.396 151.474 187.844 151.474C190.235 151.474 192.077 152.066 193.371 153.251C194.687 154.435 195.345 156.124 195.345 158.317V168.12H191.759V166.147ZM191.759 161.409C191.276 161.124 190.739 160.894 190.147 160.718C189.555 160.543 188.875 160.455 188.107 160.455C186.967 160.455 186.057 160.718 185.377 161.245C184.697 161.771 184.357 162.407 184.357 163.153C184.357 163.548 184.445 163.899 184.62 164.206C184.795 164.491 185.015 164.743 185.278 164.962C185.563 165.182 185.881 165.346 186.232 165.456C186.605 165.565 186.978 165.62 187.351 165.62C187.943 165.62 188.502 165.511 189.028 165.291C189.577 165.05 190.048 164.743 190.443 164.37C190.838 163.975 191.156 163.526 191.397 163.021C191.638 162.517 191.759 161.979 191.759 161.409ZM200.236 155.224H197.406V152H200.236V147.066H203.887V152H207.868V155.224H203.887V162.396C203.887 162.791 203.931 163.153 204.019 163.482C204.107 163.811 204.238 164.085 204.414 164.304C204.787 164.721 205.258 164.929 205.828 164.929C206.179 164.929 206.453 164.907 206.651 164.864C206.848 164.798 207.057 164.71 207.276 164.6L208.394 167.824C207.934 168 207.451 168.131 206.947 168.219C206.442 168.329 205.872 168.384 205.236 168.384C204.469 168.384 203.789 168.263 203.197 168.022C202.604 167.78 202.089 167.451 201.65 167.035C200.707 166.092 200.236 164.809 200.236 163.186V155.224ZM225.667 164.271C224.988 165.521 224.023 166.563 222.772 167.397C221.522 168.23 219.987 168.647 218.167 168.647C216.96 168.647 215.842 168.438 214.811 168.022C213.802 167.583 212.925 166.98 212.179 166.212C211.434 165.445 210.852 164.546 210.436 163.515C210.019 162.462 209.811 161.311 209.811 160.06C209.811 158.898 210.008 157.801 210.403 156.771C210.798 155.718 211.346 154.808 212.048 154.04C212.771 153.251 213.638 152.625 214.647 152.165C215.655 151.704 216.774 151.474 218.002 151.474C219.252 151.474 220.36 151.682 221.325 152.099C222.312 152.516 223.145 153.097 223.825 153.843C224.505 154.588 225.02 155.488 225.371 156.54C225.744 157.593 225.931 158.744 225.931 159.995C225.931 160.104 225.931 160.203 225.931 160.291C225.909 160.4 225.898 160.499 225.898 160.587C225.876 160.675 225.865 160.762 225.865 160.85H213.462C213.528 161.618 213.714 162.287 214.022 162.857C214.329 163.427 214.701 163.899 215.14 164.271C215.601 164.644 216.105 164.918 216.653 165.094C217.202 165.269 217.739 165.357 218.265 165.357C219.318 165.357 220.184 165.105 220.864 164.6C221.544 164.096 222.103 163.471 222.542 162.725L225.667 164.271ZM222.279 158.054C222.235 157.725 222.125 157.363 221.95 156.968C221.796 156.551 221.544 156.178 221.193 155.849C220.864 155.499 220.426 155.202 219.877 154.961C219.351 154.72 218.704 154.599 217.936 154.599C216.884 154.599 215.973 154.917 215.206 155.553C214.46 156.167 213.956 157.001 213.693 158.054H222.279Z" fill="white"/>
<path d="M50.6678 176.643V177.614H47.2254V180.086H50.403V180.968H47.2254V183.44H50.6678V184.411H46.1663V176.643H50.6678Z" fill="white"/>
<path d="M51.8152 184.411V179.115H52.7861V179.821C52.9626 179.556 53.1392 179.38 53.4922 179.203C53.8453 179.027 54.1101 178.938 54.4631 178.938C54.8162 178.938 55.1692 179.027 55.5223 179.203C55.7871 179.38 56.0519 179.644 56.1401 179.909C56.5815 179.203 57.1993 178.938 57.9937 178.938C58.6116 178.938 59.0529 179.115 59.4059 179.468C59.759 179.821 59.9355 180.351 59.9355 181.057V184.322H58.9646V181.145C58.9646 180.615 58.8763 180.262 58.6998 180.086C58.5233 179.909 58.2585 179.733 57.8172 179.733C57.4641 179.733 57.1111 179.909 56.8463 180.262C56.5815 180.615 56.4932 180.968 56.4932 181.41V184.322H55.5223V181.145C55.5223 180.615 55.434 180.262 55.2575 180.086C55.081 179.909 54.8162 179.733 54.3749 179.733C54.0218 179.733 53.6687 179.909 53.404 180.262C53.1392 180.615 53.0509 180.968 53.0509 181.41V184.411H51.8152Z" fill="white"/>
<path d="M63.7309 184.587C63.3778 184.587 63.0248 184.499 62.6717 184.322C62.3187 184.146 62.1421 183.969 61.9656 183.705V186.706H60.9947V179.115H61.9656V179.821C62.1421 179.556 62.4069 179.291 62.6717 179.203C63.0248 179.027 63.3778 178.938 63.7309 178.938C64.437 178.938 65.0549 179.203 65.4962 179.733C66.0258 180.262 66.2023 180.968 66.2023 181.763C66.2023 182.557 65.9375 183.175 65.4962 183.793C64.9666 184.234 64.437 184.587 63.7309 184.587ZM63.5544 183.616C63.9957 183.616 64.437 183.44 64.7901 183.087C65.1431 182.734 65.3196 182.292 65.3196 181.674C65.3196 181.145 65.1431 180.704 64.7901 180.262C64.437 179.909 64.0839 179.733 63.5544 179.733C63.113 179.733 62.6717 179.909 62.3187 180.262C61.9656 180.615 61.8773 181.057 61.8773 181.674C61.8773 182.204 62.0539 182.734 62.3187 183.087C62.6717 183.44 63.0248 183.616 63.5544 183.616Z" fill="white"/>
<path d="M67.791 181.763C67.791 182.292 67.9676 182.822 68.3206 183.175C68.6737 183.528 69.0267 183.705 69.5563 183.705C70.0859 183.705 70.439 183.528 70.792 183.175C71.1451 182.822 71.3216 182.381 71.3216 181.763C71.3216 181.233 71.1451 180.704 70.792 180.351C70.439 179.997 70.0859 179.821 69.5563 179.821C69.115 179.821 68.6737 179.997 68.3206 180.351C67.9676 180.704 67.791 181.145 67.791 181.763ZM66.8201 181.763C66.8201 180.968 67.0849 180.262 67.6145 179.733C68.1441 179.203 68.762 178.938 69.5563 178.938C70.3507 178.938 70.9686 179.203 71.4981 179.733C72.0277 180.262 72.2925 180.968 72.2925 181.763C72.2925 182.557 72.0277 183.263 71.4981 183.793C70.9686 184.322 70.3507 184.587 69.5563 184.587C68.762 184.587 68.1441 184.322 67.6145 183.793C67.0849 183.263 66.8201 182.557 66.8201 181.763Z" fill="white"/>
<path d="M80.5011 179.115L78.8241 184.411H77.8532L76.5292 180.351L75.2053 184.411H74.2343L72.4691 179.115H73.5282L74.6757 183.087H74.7639L75.9996 179.115H77.0588L78.3828 183.087L79.5302 179.115H80.5011Z" fill="white"/>
<path d="M81.9133 181.057H84.9143C84.9143 180.704 84.7378 180.351 84.473 180.174C84.2082 179.909 83.8552 179.821 83.4138 179.821C83.0608 179.821 82.7077 179.909 82.4429 180.174C82.1781 180.439 82.0016 180.704 81.9133 181.057ZM83.4138 184.587C82.6195 184.587 82.0016 184.322 81.472 183.793C80.9424 183.263 80.6776 182.557 80.6776 181.763C80.6776 180.968 80.9424 180.262 81.3838 179.733C81.9134 179.203 82.5312 178.938 83.2373 178.938C84.0317 178.938 84.6495 179.203 85.0909 179.733C85.5322 180.262 85.797 180.968 85.797 181.851V181.939H81.6486C81.6486 182.469 81.8251 182.91 82.1781 183.175C82.5312 183.528 82.8843 183.616 83.3256 183.616C83.9434 183.616 84.473 183.263 84.8261 182.645L85.7087 183.087C85.4439 183.528 85.1791 183.881 84.7378 184.146C84.473 184.411 84.0317 184.587 83.4138 184.587Z" fill="white"/>
<path d="M87.8271 184.411H86.8562V179.115H87.8271V179.997C87.9153 179.733 88.0919 179.468 88.4449 179.291C88.798 179.115 89.0628 179.027 89.3276 179.027C89.5924 179.027 89.8571 179.027 90.0337 179.115L89.7689 180.086C89.6806 179.997 89.4158 179.997 89.151 179.997C88.798 179.997 88.4449 180.174 88.1801 180.439C87.9153 180.704 87.7388 181.057 87.7388 181.498V184.411H87.8271Z" fill="white"/>
<path d="M91.8872 179.115V184.411H90.8281V179.115H91.8872ZM92.0638 177.261C92.0638 177.438 91.9755 177.614 91.8872 177.791C91.7107 177.967 91.6224 177.967 91.3576 177.967C91.1811 177.967 91.0046 177.879 90.8281 177.791C90.6515 177.614 90.6515 177.526 90.6515 177.261C90.6515 177.085 90.7398 176.908 90.8281 176.732C91.0046 176.555 91.0928 176.555 91.3576 176.555C91.5342 176.555 91.7107 176.643 91.8872 176.732C91.9755 176.908 92.0638 177.085 92.0638 177.261Z" fill="white"/>
<path d="M93.1229 179.115H94.0938V179.821C94.2704 179.556 94.4469 179.38 94.7999 179.203C95.153 179.027 95.4178 178.938 95.7709 178.938C96.3887 178.938 96.9183 179.115 97.2714 179.468C97.6244 179.821 97.8009 180.351 97.8009 181.057V184.411H96.83V181.145C96.83 180.262 96.3887 179.821 95.5061 179.821C95.153 179.821 94.7999 179.997 94.5352 180.262C94.2704 180.615 94.0938 180.968 94.0938 181.41V184.322H93.1229V179.115Z" fill="white"/>
<path d="M101.332 186.882C101.067 186.882 100.802 186.882 100.537 186.794C100.272 186.706 100.008 186.617 99.831 186.441C99.6545 186.264 99.478 186.176 99.3014 185.999C99.1249 185.823 99.0366 185.646 98.9484 185.382L99.9193 185.029C100.008 185.382 100.184 185.558 100.449 185.735C100.714 185.911 101.067 185.999 101.42 185.999C101.949 185.999 102.391 185.823 102.655 185.47C102.92 185.117 103.097 184.675 103.097 184.146V183.616C102.92 183.881 102.655 184.146 102.302 184.322C101.949 184.499 101.596 184.587 101.243 184.587C100.537 184.587 99.9193 184.322 99.478 183.793C98.9484 183.263 98.7718 182.557 98.7718 181.763C98.7718 180.968 99.0366 180.351 99.478 179.733C100.008 179.203 100.537 178.938 101.243 178.938C101.596 178.938 101.949 179.027 102.302 179.203C102.655 179.38 102.832 179.556 103.097 179.909V179.203H104.068V184.234C104.068 185.117 103.803 185.735 103.362 186.264C102.744 186.617 102.126 186.882 101.332 186.882ZM101.332 183.616C101.861 183.616 102.214 183.44 102.567 183.087C102.92 182.734 103.009 182.292 103.009 181.674C103.009 181.145 102.832 180.704 102.567 180.262C102.214 179.909 101.861 179.733 101.332 179.733C100.89 179.733 100.449 179.909 100.096 180.262C99.7428 180.615 99.6545 181.057 99.6545 181.674C99.6545 182.204 99.831 182.734 100.096 183.087C100.449 183.44 100.89 183.616 101.332 183.616Z" fill="white"/>
<path d="M115.277 176.643H116.248L114.218 184.411H113.159L111.57 179.291H111.482L109.805 184.411H108.834L106.627 176.643H107.687L109.364 182.734L111.041 177.703H112.012L113.689 182.734L115.277 176.643Z" fill="white"/>
<path d="M117.131 181.763C117.131 182.292 117.307 182.822 117.66 183.175C118.013 183.528 118.367 183.705 118.896 183.705C119.426 183.705 119.779 183.528 120.132 183.175C120.485 182.822 120.661 182.381 120.661 181.763C120.661 181.233 120.485 180.704 120.132 180.351C119.779 179.997 119.426 179.821 118.896 179.821C118.455 179.821 118.013 179.997 117.66 180.351C117.307 180.704 117.131 181.145 117.131 181.763ZM116.16 181.763C116.16 180.968 116.425 180.262 116.954 179.733C117.484 179.203 118.102 178.938 118.896 178.938C119.691 178.938 120.308 179.203 120.838 179.733C121.368 180.262 121.632 180.968 121.632 181.763C121.632 182.557 121.368 183.263 120.838 183.793C120.308 184.322 119.691 184.587 118.896 184.587C118.102 184.587 117.484 184.322 116.954 183.793C116.425 183.263 116.16 182.557 116.16 181.763Z" fill="white"/>
<path d="M122.427 184.411V179.115H123.398V179.821C123.574 179.556 123.751 179.38 124.104 179.203C124.457 179.027 124.722 178.938 125.075 178.938C125.428 178.938 125.781 179.027 126.134 179.203C126.399 179.38 126.663 179.644 126.752 179.909C127.193 179.203 127.811 178.938 128.605 178.938C129.223 178.938 129.664 179.115 130.017 179.468C130.37 179.821 130.547 180.351 130.547 181.057V184.322H129.576V181.145C129.576 180.615 129.488 180.262 129.311 180.086C129.135 179.909 128.87 179.733 128.429 179.733C128.076 179.733 127.723 179.909 127.458 180.262C127.193 180.615 127.105 180.968 127.105 181.41V184.322H126.134V181.145C126.134 180.615 126.046 180.262 125.869 180.086C125.692 179.909 125.428 179.733 124.986 179.733C124.633 179.733 124.28 179.909 124.015 180.262C123.751 180.615 123.662 180.968 123.662 181.41V184.411H122.427Z" fill="white"/>
<path d="M132.401 181.057H135.402C135.402 180.704 135.225 180.351 134.96 180.174C134.695 179.909 134.342 179.821 133.901 179.821C133.548 179.821 133.195 179.909 132.93 180.174C132.665 180.439 132.489 180.704 132.401 181.057ZM133.989 184.587C133.195 184.587 132.577 184.322 132.048 183.793C131.518 183.263 131.253 182.557 131.253 181.763C131.253 180.968 131.518 180.262 131.959 179.733C132.489 179.203 133.107 178.938 133.813 178.938C134.607 178.938 135.225 179.203 135.666 179.733C136.108 180.262 136.372 180.968 136.372 181.851V181.939H132.312C132.312 182.469 132.489 182.91 132.842 183.175C133.195 183.528 133.548 183.616 133.989 183.616C134.607 183.616 135.137 183.263 135.49 182.645L136.372 183.087C136.108 183.528 135.843 183.881 135.402 184.146C134.96 184.411 134.519 184.587 133.989 184.587Z" fill="white"/>
<path d="M137.343 179.115H138.314V179.821C138.491 179.556 138.667 179.38 139.02 179.203C139.373 179.027 139.638 178.938 139.991 178.938C140.609 178.938 141.139 179.115 141.492 179.468C141.845 179.821 142.021 180.351 142.021 181.057V184.411H141.05V181.145C141.05 180.262 140.609 179.821 139.727 179.821C139.373 179.821 139.02 179.997 138.756 180.262C138.491 180.615 138.314 180.968 138.314 181.41V184.322H137.343V179.115Z" fill="white"/>
<path d="M152.966 180.792C152.966 181.851 152.613 182.734 151.995 183.352C151.289 184.146 150.318 184.499 149.171 184.499C148.023 184.499 147.141 184.146 146.346 183.352C145.552 182.557 145.199 181.586 145.199 180.439C145.199 179.291 145.552 178.32 146.346 177.526C147.141 176.732 148.112 176.379 149.171 176.379C149.7 176.379 150.318 176.467 150.76 176.643C151.201 176.82 151.642 177.173 151.995 177.526L151.289 178.232C151.024 177.967 150.76 177.703 150.407 177.526C150.053 177.35 149.612 177.261 149.171 177.261C148.288 177.261 147.582 177.526 147.052 178.144C146.435 178.762 146.17 179.468 146.17 180.351C146.17 181.233 146.435 181.939 147.052 182.557C147.67 183.175 148.376 183.44 149.171 183.44C149.965 183.44 150.583 183.263 151.113 182.822C151.642 182.381 151.907 181.763 151.995 181.057H149.171V180.086H152.878C152.966 180.439 152.966 180.615 152.966 180.792Z" fill="white"/>
<path d="M154.996 176.643H154.025V184.411H154.996V176.643Z" fill="white"/>
<path d="M156.85 181.763C156.85 182.292 157.026 182.822 157.379 183.175C157.732 183.528 158.086 183.705 158.615 183.705C159.145 183.705 159.498 183.528 159.851 183.175C160.204 182.822 160.38 182.381 160.38 181.763C160.38 181.233 160.204 180.704 159.851 180.351C159.498 179.997 159.145 179.821 158.615 179.821C158.174 179.821 157.732 179.997 157.379 180.351C157.026 180.704 156.85 181.145 156.85 181.763ZM155.879 181.763C155.879 180.968 156.144 180.262 156.673 179.733C157.203 179.203 157.821 178.938 158.615 178.938C159.409 178.938 160.027 179.203 160.557 179.733C161.087 180.262 161.351 180.968 161.351 181.763C161.351 182.557 161.087 183.263 160.557 183.793C160.027 184.322 159.409 184.587 158.615 184.587C157.821 184.587 157.203 184.322 156.673 183.793C156.144 183.263 155.879 182.557 155.879 181.763Z" fill="white"/>
<path d="M164.794 183.616C165.235 183.616 165.676 183.44 166.029 183.087C166.382 182.734 166.559 182.292 166.559 181.674C166.559 181.145 166.382 180.704 166.029 180.262C165.676 179.909 165.323 179.733 164.794 179.733C164.352 179.733 163.911 179.909 163.558 180.262C163.205 180.615 163.117 181.057 163.117 181.674C163.117 182.204 163.293 182.734 163.558 183.087C163.911 183.44 164.264 183.616 164.794 183.616ZM164.97 184.587C164.617 184.587 164.264 184.499 163.911 184.322C163.558 184.146 163.381 183.969 163.205 183.705V184.411H162.234V176.643H163.205V179.821C163.381 179.556 163.646 179.291 163.911 179.203C164.264 179.027 164.617 178.938 164.97 178.938C165.676 178.938 166.294 179.203 166.735 179.733C167.265 180.262 167.442 180.968 167.442 181.763C167.442 182.557 167.177 183.175 166.735 183.793C166.206 184.234 165.588 184.587 164.97 184.587Z" fill="white"/>
<path d="M170.354 178.938C171.06 178.938 171.678 179.115 172.12 179.556C172.561 179.909 172.737 180.527 172.737 181.145V184.411H171.766V183.705C171.325 184.322 170.796 184.587 170.089 184.587C169.472 184.587 169.03 184.411 168.589 184.058C168.236 183.705 167.971 183.263 167.971 182.734C167.971 182.204 168.148 181.763 168.589 181.41C169.03 181.057 169.56 180.968 170.266 180.968C170.884 180.968 171.325 181.057 171.678 181.321V181.057C171.678 180.704 171.502 180.439 171.237 180.174C170.972 179.909 170.619 179.821 170.266 179.821C169.736 179.821 169.295 180.086 168.942 180.527L168.059 179.997C168.677 179.291 169.383 178.938 170.354 178.938ZM169.03 182.734C169.03 182.998 169.119 183.175 169.383 183.352C169.56 183.528 169.825 183.616 170.178 183.616C170.619 183.616 170.972 183.44 171.325 183.175C171.678 182.822 171.855 182.469 171.855 182.116C171.502 181.851 171.149 181.763 170.531 181.763C170.089 181.763 169.825 181.851 169.56 182.028C169.207 182.204 169.03 182.469 169.03 182.734Z" fill="white"/>
<path d="M174.856 176.643H173.885V184.411H174.856V176.643Z" fill="white"/>
<path d="M177.062 176.643H176.091V184.411H177.062V176.643Z" fill="white"/>
<path d="M182.976 179.115L179.622 186.706H178.651L179.887 184.058L177.68 179.115H178.739L180.328 182.91L181.917 179.115H182.976Z" fill="white"/>
<path d="M184.212 183.705C184.212 183.881 184.124 184.058 184.035 184.234C183.859 184.411 183.682 184.411 183.506 184.411C183.329 184.411 183.153 184.322 182.976 184.234C182.8 184.146 182.8 183.881 182.8 183.705C182.8 183.528 182.888 183.352 182.976 183.175C183.153 182.998 183.329 182.998 183.506 182.998C183.682 182.998 183.859 183.087 184.035 183.175C184.212 183.352 184.212 183.528 184.212 183.705Z" fill="white"/>
<path d="M186.771 183.705C186.771 183.881 186.683 184.058 186.595 184.234C186.418 184.411 186.242 184.411 186.065 184.411C185.889 184.411 185.712 184.322 185.536 184.234C185.359 184.146 185.359 183.881 185.359 183.705C185.359 183.528 185.447 183.352 185.536 183.175C185.712 182.998 185.889 182.998 186.065 182.998C186.242 182.998 186.418 183.087 186.595 183.175C186.683 183.352 186.771 183.528 186.771 183.705Z" fill="white"/>
<path d="M189.243 183.705C189.243 183.881 189.155 184.058 189.066 184.234C188.89 184.411 188.713 184.411 188.537 184.411C188.36 184.411 188.184 184.322 188.007 184.234C187.831 184.058 187.831 183.881 187.831 183.705C187.831 183.528 187.919 183.352 188.007 183.175C188.184 182.998 188.36 182.998 188.537 182.998C188.713 182.998 188.89 183.087 189.066 183.175C189.155 183.352 189.243 183.528 189.243 183.705Z" fill="white"/>
<path d="M115.807 0.732483L128.341 13.266L115.807 25.7996L103.273 13.266L115.807 0.732483ZM55.0811 31.4485C65.1433 31.5367 71.9396 31.7133 80.6778 35.3321C88.7099 38.6862 92.9466 43.0994 97.448 47.9539C109.275 60.5757 109.364 76.1985 109.011 96.4111C108.746 117.771 86.415 123.332 75.5585 112.74C69.1152 106.473 68.4973 101.707 68.4973 90.056C68.4973 79.9939 68.4091 69.8435 68.4973 59.7813C86.8563 66.1364 80.6778 86.702 82.09 97.5585C82.09 98.7059 82.3548 99.8534 82.8844 100.824C84.8262 105.326 92.0639 105.855 94.2705 101.442C95.3297 99.9416 95.5062 98.0881 95.418 96.3228C95.5062 94.2927 95.418 92.0861 95.418 90.056C95.418 73.9037 95.6828 66.5777 86.7681 56.1625C79.1773 47.3361 70.3509 45.1295 54.9929 44.8647C55.4342 58.5456 53.5807 90.8504 57.9939 108.768C59.8474 114.947 63.5545 120.331 68.4091 124.303V124.479C73.5284 128.363 79.5304 130.658 85.6206 131.275C86.5033 131.364 87.4742 131.364 88.3568 131.364C99.8312 131.364 109.893 125.274 115.454 116.094C121.015 125.274 131.077 131.364 142.551 131.364C150.23 131.364 157.291 128.628 162.764 124.126C167.707 120.066 171.325 114.505 173.091 108.238C177.416 89.8795 176.003 58.0161 176.18 44.9529C160.822 45.2177 152.084 47.4243 144.405 56.2508C135.137 66.9308 135.755 73.6388 135.755 90.1443C135.755 96.9406 135.137 104.62 142.816 104.531C145.993 104.531 148.641 102.237 149.259 99.1472V99.2355C149.259 98.8825 149.348 98.5294 149.348 98.1763C149.259 94.1162 149.259 89.2616 149.348 85.1132C149.524 75.2276 150.318 64.2828 162.764 60.0461C162.852 69.8435 162.764 79.7291 162.764 89.5264C162.764 101.001 162.587 106.12 156.144 112.652C143.61 125.274 122.78 115.917 122.339 97.5585C121.809 77.9638 122.427 60.8405 133.548 48.7483C137.961 43.8938 142.286 39.304 150.142 35.95C158.968 32.1546 166.029 31.8898 176.268 31.8015V17.944C160.116 17.944 150.318 19.7976 138.138 26.6822C133.283 29.4184 128.782 33.6551 125.516 37.0974C119.249 43.8055 118.19 47.3361 115.631 50.0723C111.835 46.0121 106.892 34.3612 93.1231 26.6822C80.6778 19.7093 71.4101 17.944 54.9046 17.944V31.4485H55.0811Z" fill="black"/>
<path d="M115.807 0.732483L128.341 13.266L115.807 25.7996L103.273 13.266L115.807 0.732483ZM55.0811 31.4485C65.1433 31.5367 71.9396 31.7133 80.6778 35.3321C88.7099 38.6862 92.9466 43.0994 97.448 47.9539C109.275 60.5757 109.364 76.1985 109.011 96.4111C108.746 117.771 86.415 123.332 75.5585 112.74C69.1152 106.473 68.4973 101.707 68.4973 90.056C68.4973 79.9939 68.4091 69.8435 68.4973 59.7813C86.8563 66.1364 80.6778 86.702 82.09 97.5585C82.09 98.7059 82.3548 99.8534 82.8844 100.824C84.8262 105.326 92.0639 105.855 94.2705 101.442C95.3297 99.9416 95.5062 98.0881 95.418 96.3228C95.5062 94.2927 95.418 92.0861 95.418 90.056C95.418 73.9037 95.6828 66.5777 86.7681 56.1625C79.1773 47.3361 70.3509 45.1295 54.9929 44.8647C55.4342 58.5456 53.5807 90.8504 57.9939 108.768C59.8474 114.947 63.5545 120.331 68.4091 124.303V124.479C73.5284 128.363 79.5304 130.658 85.6206 131.275C86.5033 131.364 87.4742 131.364 88.3568 131.364C99.8312 131.364 109.893 125.274 115.454 116.094C121.015 125.274 131.077 131.364 142.551 131.364C150.23 131.364 157.291 128.628 162.764 124.126C167.707 120.066 171.325 114.505 173.091 108.238C177.416 89.8795 176.003 58.0161 176.18 44.9529C160.822 45.2177 152.084 47.4243 144.405 56.2508C135.137 66.9308 135.755 73.6388 135.755 90.1443C135.755 96.9406 135.137 104.62 142.816 104.531C145.993 104.531 148.641 102.237 149.259 99.1472V99.2355C149.259 98.8825 149.348 98.5294 149.348 98.1763C149.259 94.1162 149.259 89.2616 149.348 85.1132C149.524 75.2276 150.318 64.2828 162.764 60.0461C162.852 69.8435 162.764 79.7291 162.764 89.5264C162.764 101.001 162.587 106.12 156.144 112.652C143.61 125.274 122.78 115.917 122.339 97.5585C121.809 77.9638 122.427 60.8405 133.548 48.7483C137.961 43.8938 142.286 39.304 150.142 35.95C158.968 32.1546 166.029 31.8898 176.268 31.8015V17.944C160.116 17.944 150.318 19.7976 138.138 26.6822C133.283 29.4184 128.782 33.6551 125.516 37.0974C119.249 43.8055 118.19 47.3361 115.631 50.0723C111.835 46.0121 106.892 34.3612 93.1231 26.6822C80.6778 19.7093 71.4101 17.944 54.9046 17.944V31.4485H55.0811Z" fill="url(#paint0_linear_988_378)"/>
<mask id="mask0_988_378" style="mask-type:alpha" maskUnits="userSpaceOnUse" x="54" y="0" width="123" height="132">
<path d="M115.807 0.732483L128.341 13.266L115.807 25.7996L103.273 13.266L115.807 0.732483ZM55.0811 31.4485C65.1433 31.5367 71.9396 31.7133 80.6778 35.3321C88.7099 38.6862 92.9466 43.0994 97.4481 47.9539C109.275 60.5757 109.364 76.1985 109.011 96.4111C108.746 117.771 86.415 123.332 75.5585 112.74C69.1152 106.473 68.4973 101.707 68.4973 90.056C68.4973 79.9939 68.4091 69.8435 68.4973 59.7813C86.8563 66.1364 80.6778 86.702 82.09 97.5585C82.09 98.7059 82.3548 99.8534 82.8844 100.824C84.8262 105.326 92.0639 105.855 94.2705 101.442C95.3297 99.9416 95.5062 98.0881 95.418 96.3228C95.5062 94.2927 95.418 92.0861 95.418 90.056C95.418 73.9037 95.6828 66.5777 86.7681 56.1625C79.1773 47.3361 70.3509 45.1295 54.9929 44.8647C55.4342 58.5456 53.5807 90.8504 57.9939 108.768C59.8474 114.947 63.5545 120.331 68.4091 124.303V124.479C73.5284 128.363 79.5304 130.658 85.6206 131.275C86.5033 131.364 87.4742 131.364 88.3568 131.364C99.8312 131.364 109.893 125.274 115.454 116.094C121.015 125.274 131.077 131.364 142.551 131.364C150.23 131.364 157.291 128.628 162.764 124.126C167.707 120.066 171.325 114.505 173.091 108.238C177.416 89.8795 176.003 58.0161 176.18 44.9529C160.822 45.2177 152.084 47.4243 144.405 56.2508C135.137 66.9308 135.755 73.6388 135.755 90.1443C135.755 96.9406 135.137 104.62 142.816 104.531C145.993 104.531 148.641 102.237 149.259 99.1472V99.2355C149.259 98.8825 149.348 98.5294 149.348 98.1764C149.259 94.1162 149.259 89.2616 149.348 85.1132C149.524 75.2276 150.318 64.2828 162.764 60.0461C162.852 69.8435 162.764 79.7291 162.764 89.5264C162.764 101.001 162.587 106.12 156.144 112.652C143.61 125.274 122.78 115.917 122.339 97.5585C121.809 77.9638 122.427 60.8405 133.548 48.7483C137.961 43.8938 142.286 39.304 150.142 35.95C158.968 32.1546 166.029 31.8898 176.268 31.8015V17.944C160.116 17.944 150.318 19.7976 138.138 26.6822C133.283 29.4184 128.782 33.6551 125.516 37.0974C119.249 43.8055 118.19 47.3361 115.631 50.0723C111.835 46.0121 106.892 34.3612 93.1231 26.6822C80.6778 19.7093 71.4101 17.944 54.9046 17.944V31.4485H55.0811Z" fill="black"/>
</mask>
<g mask="url(#mask0_988_378)">
<path d="M115.67 27.6426L192.711 7.24301V132.756L101.564 112.279L115.67 27.6426Z" fill="url(#paint1_linear_988_378)"/>
<path d="M133.249 140.058L42.5354 135.258L51.0588 52.8166L109.261 57.2729L133.249 140.058Z" fill="url(#paint2_linear_988_378)"/>
</g>
<defs>
<linearGradient id="paint0_linear_988_378" x1="185.984" y1="162.627" x2="86.4608" y2="38.164" gradientUnits="userSpaceOnUse">
<stop stop-color="#F17CD4"/>
<stop offset="1" stop-color="#6037EB"/>
</linearGradient>
<linearGradient id="paint1_linear_988_378" x1="159.725" y1="24.8214" x2="132.702" y2="66.9448" gradientUnits="userSpaceOnUse">
<stop stop-color="#30B8C4"/>
<stop offset="1" stop-color="#30B8C4" stop-opacity="0"/>
</linearGradient>
<linearGradient id="paint2_linear_988_378" x1="76.8241" y1="101.428" x2="95.6484" y2="83.7501" gradientUnits="userSpaceOnUse">
<stop stop-color="#4065EE"/>
<stop offset="0.908953" stop-color="#4065EE" stop-opacity="0"/>
</linearGradient>
</defs>
</svg>
